Project Version="4.2.0" TempoMode="FamiStudio" Name="Oddity" Author="How2Bboss" Copyright="2023" Expansions="EPSM"
	DPCMSample Name="1" Data="da0b80ff7405d6ea1780ff01d8ff0700f53f00fe0bc2fe01d4e93fa0e8be00f83f00f8ff80aafe02f8b705f00fe807bac55bd403c0ff03c0ff0376ba03e09f5f8106e0ff9152bde21500ff0780ff0fd0ed2b90a5fa570180ff47aa355515c0ff3f00f83f00be46eb14c5ff08e0f62b80f75d02a8f8ff03c0bf407d04bf502ff90b00f4ff01bcf23f00e0ff01baf407e03f68432afaff0020fc3f50592fe807f81f80bf578007fa3f8083fe2f00e0ffe00ff8096cf57f0020fc3f7081fdd509e01ffc00f81f34fa0fc003f87f30e25bf90f8007fe037eca01e0ffd001fe0facd02ffc0fc042ff01bcfa02f81f3400fc7f21fc03f81f60c37f80b2fe03e03f2500ff9f00f88ffc2312c0ff03e8fe03e07f0a00fd7f00fa87d6318caafb1500fe0f80ff0f00fe1f01bdaecaaa44daf21580ff0f00fe1f00f8ff00f83fc43b806fb52984ef2d80ff1500f8ff01c0ff07f84a50ff0a90ef1ba0f72488f6ff0180ff0b80ff14c4ff00e0ff00fd0f00fe6f01c0ff5780b6da05e07f80ff1680ff006dff0700ff83c02ff02fe00f6846ff830ae81ff01f00fcff00fca125f81fc055"
	DPCMSample Name="2" Data="ea2e00fc5fa8c8fe03f08f40fa3f4809ed3f00f87f1080ff0f80fe2f12eb4aa4eaff0080ff0780ff0fc08dfd01e0ff1123ed02f07f5842ff01ec0bf88fd812ada2bf00fe3f00f8ff01c05f2aa2bd0a51ff3f00e07f00f8ff0380ff9a00f0ff0580ff01f87f00e0ff07b454ef08e2ff00c0ff417f00f8fd2d00fe03fc4720edaaff0180ff01aafe3f00f80f8882ff0fc07f01c0ff4f00e0ff01ffc03e00fe0fe0d7aa3580bf00fc7f801fe0ff005e80ff0fc0a7ba07d0ff03c03fe403e07f00fe0fe0d6ff0300fe07fc027a03fa3f00ff01be21fd02e0ffa05590ff227d0180ff0f5888ff07f807e02fe92b80ff01e0ff011afaff01e003fe3f0009f4ff01e0ff24a2fe0500ff0ff093bd00f0ff0180ff1f00fc7f00ff01a0ffff0080ff01a0fe1f00fe0f68ad43fc473200fcff8045fa1fe03f00f8ff0380ff1300fc7f00e8ff0380ff07e0ff0300feff0080ff0304ff3f00ff03e0fb0f00ff4a00fc7fa400f8ff00ff00f8ff0000ff3f702baa6c23fc03c0ff07f04f1500fc7f802ff52f00fe05e8ff0380fbff00e01fc01ff01f80f72bc0772942fe7f0080fff40580ff"
	DPCMSample Name="3" Data="6a2f00fc3f21a9fe06d07f00f6fd00f4277453c87f501f00f83fb04aff13e05a2d01fc7f800bf87f00ff819600ff0fb0e8ff03f0944ad1fe0f003ff03f00fe83f882fe05f017ec07b803f0ff007fc07f00ff015e80ff0760d7ff00f03f0085fe3f00f8ff0f00fc0780ff7f00e03fda00f83f805ff83f00fcd30a807fd0ff00de887e81fe01f8a67e01545fb314eaff0000ff3f00f0ff4221fe0760dff70000fe3f80f6ff00f0f33b00f8be2f00e837d8d71a00f8bf6a214dd2bf0a80ff03bcda477009f0ff1f00fcda00fe0f00fe9fa00af0ffed00f01f00f4ff01f82be4ff00b0f50ed07f00f0ff0f00eea1fc0fc07f11a0ff1300fc0fdda90ce13fc0ff0300fe4f01f03fd0ff03c06f0561ff01f817fc06e82abe0700ff07c0ff7f00f0276d80fe174853fd0f00f83f80f63f00faabbc00fa57940afa1f80ff011da9bf007f01f59bb600f81fe904f0ff00bfda0300ff0f00fdff03a0bf8500f8ff0350bb5f00f83fa072ff03807eb702e27de20e80ff41566b255bb509f609fe00be41ff2b80d4771909abfa5740ddd214d43f44a9bf8434ec5f208afd172500fff304"
	DPCMSample Name="4" Data="6a2f00fe536d41fe05e0ff00e0ff1f00e07f80ff0380ff3f00c0ff07e01f49b55d03f81f00fe3f00fe5700f87f01f81f00faff00c0ff0f80fe43729556aaab11e82fd46d4da076d502f53f00f0ff04c0ff3f00ec53d4764552f4af807ab56a05e8b72a51ba5f00e0ff03d8de3f00fc03e8bfc210f0ff03e057f50380ff505fa0ff00f81f806ff43f00fc07e07fd40180ff07f842ff0f801fb0ff00fe00f83f803ff87f00f807f027f40f80ff01fc00fe1fe01f80ff01d700f87f801fe0ff03f003fe0fc03f80ff01fc41fe0380ff01fe835d00f87fe03f00fe07d400fe7f007f00fe1fb020fe1f00fe83ff00d6c1fc0f80ff01f8978e00f87f80ff01f84f1b00f0ff013f01fe3f4080ff3f00fe07f8990c80fe7f00f83f80fabf03c03f80ff02fa2b1a00fc7f80ff01e0ff0b00f8ff01e0ff82705f02fa3f00f83fc2b29c8be20f00ff3f00ff5a00e0ff03e0ff00fb3d02c0ff0780ff5b05505de9ff00e0ff00ec741bc8ff00c0ff03a6f60f00fc3f807f682b69ad00fe1f80ffb01d8077a0ff0f00fe2319c0ff03de0700feaf3580ff01e07fc07fc05e80fe03f83f00f8"
	DPCMSample Name="6" Data="ea0b80ffe22a7445f700fe03eca9fd0280ff0f80ff015cf51700feff00f807f003ff016afe0f807f00f8ff0700f87f00f83f9051ff0300fd7f005fd40bfc8b42f45f00fe0700ffff0000ff0fe07f1500f8ff0300ff0f50b727e8ae16a1be01ff8300ecff8500f8ff00bbff0100fe3f00f87f00ea3f48abde04ea25ee471140ff5f0280ff4792fe1f00e0ff0f00ff0f00bfa2517e07642bb5f62500f8ff0b00f47f49d45f0100ffff00e0ff01fc6816ec1fa0cd2ee0ff0300fa7f4220fc5f4a6aaf00c0ff1f00fe1fe01752e2ff006cfb01e0ff0180ff8f1a00ff5789f42700f4ff03e07f00ff0b00fc7f00f87f00f87f00e0ffb502c0ff27a07f01c0ff3f00fe05a0ff0380ff0f00fc3f00fe3f00f87f0f00f0ff03f80704f8ff01fc7a02e0ff00f0ff0f00ff5300fe0708f8ff0300fc7fc03f5200fe1f70cb3f00fe0700feff00e8fb0f00ff1100fe3f20c0ff0f78ab05c0ff2195fc0fc0bf0480ff1f00ecff03f05f02c0ff2700f0ff07d07f00dabf02e4f719c0f700f5fd03807ebf00f89782e8ff0200fcff03e03f81e4ff0078f93f0097f01ef60178a3ff00f6a80b"
	Instrument Name=".DPCM"
		DPCMMapping Note="C4" Sample="1" Pitch="12" Loop="True"
		DPCMMapping Note="B3" Sample="2" Pitch="12" Loop="True"
		DPCMMapping Note="A#3" Sample="3" Pitch="12" Loop="True"
		DPCMMapping Note="A3" Sample="4" Pitch="12" Loop="True"
		DPCMMapping Note="G#3" Sample="6" Pitch="12" Loop="True"
	Instrument Name="Bell"
		Envelope Type="Volume" Length="115" Loop="93" Release="94" Values="6,6,6,6,6,6,5,5,5,5,5,5,5,5,5,5,5,5,5,5,5,5,4,4,4,4,4,4,4,4,4,4,4,4,4,4,4,4,4,4,4,4,3,3,3,3,3,3,3,3,3,3,3,3,3,3,3,3,3,3,3,3,3,3,3,3,3,3,3,3,3,3,3,3,3,3,3,3,3,3,3,3,3,3,3,3,3,3,3,3,3,3,3,2,3,3,3,3,3,3,3,3,3,3,3,3,3,3,3,3,3,3,3,3,2"
		Envelope Type="DutyCycle" Length="2" Values="2,3"
	Instrument Name="Bell 1"
		Envelope Type="Volume" Length="36" Loop="18" Release="19" Values="10,8,7,6,5,5,5,5,4,4,4,4,4,4,4,4,4,4,4,3,3,3,3,3,2,2,2,2,2,2,2,1,1,1,1,0"
		Envelope Type="DutyCycle" Length="1" Values="3"
	Instrument Name="Ambient Noise"
		Envelope Type="Volume" Length="1" Values="1"
		Envelope Type="Arpeggio" Length="256" Loop="0" Values="0,0,0,0,0,0,0,0,0,0,0,0,0,0,0,0,0,0,0,0,0,0,0,0,0,0,0,0,0,0,0,0,0,0,0,0,0,0,0,0,0,0,0,-3,0,0,0,0,0,0,0,0,0,0,0,0,0,0,0,0,0,0,0,0,0,0,0,0,0,0,0,0,0,0,0,0,0,0,0,0,0,0,0,0,0,0,-1,-1,-1,-1,-1,-1,-1,-1,-1,-1,-1,1,1,1,1,1,1,1,1,1,1,1,1,1,1,1,1,1,1,1,1,1,1,1,1,1,1,1,5,1,1,1,1,1,1,1,1,1,1,1,1,1,1,1,1,1,1,1,1,1,1,1,1,1,1,1,1,1,1,1,1,-1,0,0,0,0,0,0,0,0,0,0,0,0,0,0,0,0,0,0,0,0,0,0,0,0,0,0,0,0,0,0,0,0,0,0,0,0,0,0,0,0,0,0,0,0,0,0,0,0,2,0,2,0,0,0,0,0,0,0,0,0,0,0,0,0,0,0,0,0,0,0,0,0,0,0,0,0,0,0,0,0,0,0,0,0,-1,0,0,0,0,0,0,0,0,0,0,0,0,0"
		Envelope Type="DutyCycle" Length="247" Loop="0" Values="0,0,0,0,0,0,0,0,0,0,0,0,0,0,0,0,0,0,0,0,0,0,0,0,0,0,0,0,0,0,0,0,0,0,0,0,0,0,0,0,1,0,0,0,0,0,0,0,0,0,0,0,0,0,0,0,0,0,0,0,0,0,0,0,0,0,0,0,0,0,0,0,0,0,0,0,0,0,0,0,0,0,0,0,0,0,0,0,0,0,0,0,0,0,0,0,0,0,0,0,0,0,0,0,0,0,0,0,0,0,0,0,0,0,0,0,0,0,0,0,0,0,0,0,0,0,0,0,0,0,0,0,0,0,0,0,0,0,0,0,0,0,0,0,0,0,0,0,0,0,0,0,1,0,0,0,0,0,0,0,0,0,0,0,0,0,0,0,0,0,0,0,0,0,0,0,0,0,0,0,0,0,0,0,0,0,0,0,0,0,0,0,0,0,0,0,0,0,0,0,0,0,0,0,0,0,0,0,0,0,0,0,0,0,0,0,0,0,0,0,0,0,0,0,0,0,0,0,1,0,0,0,0,0,0,0,0,0,1,0,0,0,0,0,0,0,0"
	Instrument Name="Ambient Noise 1"
		Envelope Type="Volume" Length="219" Loop="27" Values="0,0,0,1,1,1,1,1,1,1,1,1,1,1,1,1,1,1,1,2,2,2,2,2,2,2,2,2,2,2,2,2,2,2,2,3,3,3,3,3,3,3,3,3,3,3,3,3,3,3,3,3,3,3,3,3,3,3,3,3,3,4,4,4,4,4,4,4,4,4,4,4,4,4,4,4,4,4,4,4,4,4,4,4,4,4,4,4,4,4,4,4,4,4,4,4,4,4,4,4,3,3,3,3,3,3,3,3,3,3,3,3,3,3,3,3,3,3,3,3,3,3,3,3,3,3,3,3,3,3,3,3,3,2,2,2,2,2,2,2,2,2,2,2,2,2,2,2,2,2,2,2,2,2,2,2,2,2,2,2,2,2,2,2,2,2,2,2,2,2,2,2,2,2,2,3,3,3,3,3,3,3,3,3,3,3,3,3,3,3,2,2,2,2,2,2,2,2,2,2,2,2,2,2,2,2,2,2,2,2,2,2,2,2,2,2,2,2,2"
		Envelope Type="Arpeggio" Length="256" Loop="0" Values="0,0,0,0,0,0,0,0,0,0,0,0,0,0,0,0,0,0,0,0,0,0,0,0,0,0,0,0,0,0,0,0,0,0,0,0,0,0,0,0,0,0,0,24,24,0,0,0,0,0,0,0,0,0,0,0,0,0,0,0,0,0,0,0,0,0,0,0,0,0,0,0,0,0,0,0,0,0,0,0,0,0,0,0,0,0,0,0,0,0,0,0,0,0,0,0,0,0,0,0,0,0,0,0,0,0,0,0,0,0,0,0,0,0,0,0,0,0,0,0,12,12,0,0,0,0,0,0,0,0,0,0,0,0,0,0,24,24,0,0,0,0,0,0,0,0,0,0,0,0,0,0,0,0,0,0,0,0,0,0,0,0,0,0,0,0,0,0,0,0,0,0,0,0,0,0,0,0,0,0,0,0,0,0,0,0,0,0,0,0,0,0,0,12,24,24,0,0,0,0,0,0,0,0,0,0,0,0,0,0,0,0,0,0,0,0,0,0,0,0,0,0,0,0,0,0,0,0,0,0,0,0,0,0,0,0,0,0,0,0,0,0,12,0,0,0,0,0,0,0,0,0,0,0,0,0"
		Envelope Type="DutyCycle" Length="247" Loop="0" Values="0,0,0,0,0,0,0,0,0,0,0,0,0,0,0,0,0,0,0,0,0,0,0,0,0,0,0,0,0,0,0,0,0,1,1,1,1,1,1,1,1,1,1,1,1,1,1,1,1,1,1,1,1,1,1,1,1,1,1,1,1,1,1,1,1,1,1,1,1,1,1,1,1,1,1,1,1,1,1,1,1,1,1,1,1,1,1,1,1,1,1,1,1,1,1,1,0,0,0,0,0,0,0,0,0,0,0,0,0,0,0,0,0,0,0,0,0,0,0,0,0,0,0,0,0,0,0,0,0,0,0,0,0,0,0,0,0,0,0,0,0,0,0,0,0,0,0,0,0,0,0,0,2,2,2,2,2,2,2,2,2,2,2,2,2,2,2,2,2,2,2,2,2,2,2,2,2,2,2,2,2,2,2,2,2,2,2,2,2,2,2,2,2,2,2,2,2,2,2,2,2,2,2,2,2,2,2,2,2,2,2,2,2,0,0,0,0,0,0,0,0,0,0,0,0,0,0,0,1,1,1,1,1,1,1,1,1,1,1,1,1,1,1,1,1,1,1"
	Instrument Name="D1"
		Envelope Type="Volume" Length="29" Loop="15" Release="16" Values="11,11,10,10,9,9,8,8,7,7,6,6,6,5,5,5,4,4,4,4,3,3,3,2,2,2,1,1,0"
		Envelope Type="Arpeggio" Length="8" Values="-12,0,0,0,0,0,0,0"
	Instrument Name="D2"
		Envelope Type="Volume" Length="29" Loop="15" Release="16" Values="11,11,10,10,9,9,8,8,7,7,6,6,6,5,5,5,4,4,4,4,3,3,3,2,2,2,1,1,0"
		Envelope Type="Arpeggio" Length="8" Values="-12,0,0,0,0,0,0,0"
		Envelope Type="DutyCycle" Length="1" Values="1"
	Instrument Name="D3"
		Envelope Type="Volume" Length="29" Loop="15" Release="16" Values="11,11,10,10,9,9,8,8,7,7,6,6,6,5,5,5,4,4,4,4,3,3,3,2,2,2,1,1,0"
		Envelope Type="Arpeggio" Length="8" Values="-12,0,0,0,0,0,0,0"
		Envelope Type="DutyCycle" Length="1" Values="2"
	Instrument Name="Hi Hat"
		Envelope Type="Volume" Length="17" Values="14,3,1,0,0,0,0,0,0,0,0,0,0,0,0,0,0"
		Envelope Type="Arpeggio" Length="8" Values="1,0,0,0,0,0,0,0"
	Instrument Name="Hi Hat 1"
		Envelope Type="Volume" Length="17" Values="5,1,0,0,0,0,0,0,0,0,0,0,0,0,0,0,0"
		Envelope Type="Arpeggio" Length="8" Values="1,0,0,0,0,0,0,0"
	Instrument Name="Hi Hat 4"
		Envelope Type="Volume" Length="17" Values="5,3,2,2,2,2,1,1,1,1,1,0,0,0,0,0,0"
		Envelope Type="Arpeggio" Length="8" Values="1,0,0,0,0,0,0,0"
	Instrument Name="Hi Hat 2"
		Envelope Type="Volume" Length="17" Values="11,3,0,0,0,0,0,0,0,0,0,0,0,0,0,0,0"
		Envelope Type="Arpeggio" Length="8" Values="1,0,0,0,0,0,0,0"
		Envelope Type="DutyCycle" Length="1" Values="1"
	Instrument Name="Hi Hat 3"
		Envelope Type="Volume" Length="6" Values="1,2,3,4,5,6"
	Instrument Name="Pluck 1"
		Envelope Type="Volume" Length="9" Loop="4" Release="5" Values="7,9,9,9,8,5,5,4,4"
		Envelope Type="Arpeggio" Length="8" Values="0,19,0,0,0,0,0,0"
		Envelope Type="Pitch" Length="41" Loop="27" Values="0,0,0,0,0,0,0,0,0,0,0,0,0,0,0,0,0,0,0,0,0,0,0,0,0,0,0,0,0,1,2,2,2,1,0,0,-1,-2,-2,-2,-1"
		Envelope Type="DutyCycle" Length="1" Values="2"
	Instrument Name="Pluck 1 D1"
		Envelope Type="Volume" Length="8" Loop="3" Release="4" Values="8,9,9,8,7,5,5,4"
		Envelope Type="Arpeggio" Length="16" Values="-12,0,0,0,0,0,0,0,0,0,12,12,12,12,0,0"
		Envelope Type="DutyCycle" Length="18" Values="0,0,0,0,0,0,0,0,2,2,2,2,2,2,2,2,2,2"
	Instrument Name="Pluck 1 D2"
		Envelope Type="Volume" Length="8" Loop="3" Release="4" Values="8,9,9,8,7,5,5,4"
		Envelope Type="Arpeggio" Length="16" Values="-12,0,0,0,0,0,0,0,0,0,12,12,12,12,0,0"
		Envelope Type="DutyCycle" Length="18" Values="1,1,1,1,1,1,1,1,2,2,2,2,2,2,2,2,2,2"
	Instrument Name="Pluck 1 D3"
		Envelope Type="Volume" Length="8" Loop="3" Release="4" Values="8,9,9,8,7,5,5,4"
		Envelope Type="Arpeggio" Length="16" Values="-12,0,0,0,0,0,0,0,0,0,12,12,12,12,0,0"
		Envelope Type="DutyCycle" Length="18" Values="2,2,2,2,2,2,2,2,1,1,1,1,1,1,1,1,1,1"
	Instrument Name="Pluck 1 D 1"
		Envelope Type="Volume" Length="8" Loop="3" Release="4" Values="10,11,11,10,9,6,6,5"
		Envelope Type="Arpeggio" Length="2" Values="-12,0"
		Envelope Type="DutyCycle" Length="1" Values="1"
	Instrument Name="Pluck 1 D 2"
		Envelope Type="Volume" Length="8" Loop="3" Release="4" Values="10,9,8,9,7,6,5,5"
		Envelope Type="Arpeggio" Length="3" Values="12,12,0"
		Envelope Type="DutyCycle" Length="3" Values="2,2,1"
	Instrument Name="Pluck 3"
		Envelope Type="Volume" Length="29" Loop="15" Release="16" Values="11,11,10,10,9,9,8,8,7,7,6,6,6,5,5,5,4,4,4,4,3,3,3,2,2,2,1,1,0"
	Instrument Name="Arpy 1"
		Envelope Type="Volume" Length="29" Loop="15" Release="16" Values="9,9,9,8,8,8,7,7,7,6,6,6,5,5,5,4,3,3,3,3,2,2,2,1,1,1,1,1,0"
		Envelope Type="Arpeggio" Length="8" Loop="0" Values="0,0,5,5,8,8,12,12"
		Envelope Type="DutyCycle" Length="1" Values="2"
	Instrument Name="Arpy 2"
		Envelope Type="Volume" Length="29" Loop="15" Release="16" Values="9,9,9,8,8,8,7,7,7,6,6,6,5,5,5,4,3,3,3,3,2,2,2,1,1,1,1,1,0"
		Envelope Type="Arpeggio" Length="8" Loop="0" Values="0,0,4,4,7,7,12,12"
		Envelope Type="DutyCycle" Length="1" Values="2"
	Instrument Name="Arpy 3"
		Envelope Type="Volume" Length="29" Loop="15" Release="16" Values="9,9,9,8,8,8,7,7,7,6,6,6,5,5,5,4,3,3,3,3,2,2,2,1,1,1,1,1,0"
		Envelope Type="Arpeggio" Length="8" Loop="0" Values="0,0,3,3,7,7,12,12"
		Envelope Type="DutyCycle" Length="1" Values="2"
	Instrument Name="Arpy 4"
		Envelope Type="Volume" Length="29" Loop="15" Release="16" Values="9,9,9,8,8,8,7,7,7,6,6,6,5,5,5,4,3,3,3,3,2,2,2,1,1,1,1,1,0"
		Envelope Type="Arpeggio" Length="8" Loop="0" Values="0,0,5,5,8,8,12,12"
		Envelope Type="DutyCycle" Length="1" Values="1"
	Instrument Name="Arpy 5"
		Envelope Type="Volume" Length="29" Loop="15" Release="16" Values="9,9,9,8,8,8,7,7,7,6,6,6,5,5,5,4,3,3,3,3,2,2,2,1,1,1,1,1,0"
		Envelope Type="Arpeggio" Length="8" Loop="0" Values="0,0,4,4,7,7,12,12"
		Envelope Type="DutyCycle" Length="1" Values="1"
	Instrument Name="Arpy 6"
		Envelope Type="Volume" Length="29" Loop="15" Release="16" Values="9,9,9,8,8,8,7,7,7,6,6,6,5,5,5,4,3,3,3,3,2,2,2,1,1,1,1,1,0"
		Envelope Type="Arpeggio" Length="8" Loop="0" Values="0,0,3,3,7,7,12,12"
		Envelope Type="DutyCycle" Length="1" Values="1"
	Instrument Name="Pluck Echo"
		Envelope Type="Volume" Length="8" Loop="3" Release="4" Values="6,7,7,6,7,7,7,6"
		Envelope Type="DutyCycle" Length="10" Values="1,1,1,1,1,1,1,1,1,0"
	Instrument Name="Pluck Echo 1"
		Envelope Type="Volume" Length="1" Values="8"
	Instrument Name="Snare"
		Envelope Type="Volume" Length="21" Values="11,8,6,5,5,4,4,4,4,3,3,3,3,3,3,3,2,2,2,2,1"
		Envelope Type="Arpeggio" Length="3" Values="-4,2,0"
	Instrument Name="Snare 1"
		Envelope Type="Volume" Length="9" Values="10,7,4,3,3,2,2,2,1"
		Envelope Type="Arpeggio" Length="3" Values="2,1,0"
	Instrument Name="Snare 2"
		Envelope Type="Volume" Length="71" Values="3,3,3,3,3,3,3,3,3,3,3,3,3,3,3,3,3,2,2,2,2,2,2,2,2,2,2,2,2,2,2,2,2,1,1,1,1,1,1,1,1,1,1,1,1,1,1,1,1,1,1,1,1,1,1,1,1,1,1,1,1,1,1,1,1,1,1,1,1,1,1"
		Envelope Type="Arpeggio" Length="16" Loop="0" Values="-11,-11,-12,-12,6,3,1,-1,-3,-4,-5,-6,-7,-8,-9,-10"
	Instrument Name="Snare Louder"
		Envelope Type="Volume" Length="9" Values="15,14,11,8,6,4,3,3,2"
		Envelope Type="Arpeggio" Length="3" Values="3,1,0"
	Instrument Name="Snare Louder 3"
		Envelope Type="Volume" Length="16" Values="11,8,6,5,4,4,3,3,2,2,2,1,1,1,1,0"
		Envelope Type="Arpeggio" Length="3" Values="9,3,0"
	Instrument Name="Snare Louder 1"
		Envelope Type="Volume" Length="9" Values="13,10,8,6,5,4,3,3,2"
		Envelope Type="Arpeggio" Length="3" Values="1,-5,0"
	Instrument Name="Snare Louder 2"
		Envelope Type="Volume" Length="9" Values="10,8,6,3,3,2,2,2,1"
		Envelope Type="Arpeggio" Length="3" Values="1,-5,0"
	Instrument Name="ARP"
		Envelope Type="Volume" Length="1" Values="8"
		Envelope Type="Arpeggio" Length="36" Loop="0" Values="12,0,0,15,3,3,19,7,7,24,12,12,27,15,15,31,19,19,36,24,24,31,19,19,27,15,15,24,12,12,19,7,7,15,3,3"
		Envelope Type="DutyCycle" Length="37" Loop="0" Values="2,2,2,2,2,2,1,1,1,1,1,1,1,0,0,0,0,0,0,0,0,1,1,1,1,1,1,0,0,0,0,2,2,2,2,2,2"
	Instrument Name="Soft 6"
		Envelope Type="Volume" Length="9" Values="2,2,2,0,0,0,1,1,1"
		Envelope Type="Arpeggio" Length="2" Loop="0" Values="0,7"
		Envelope Type="DutyCycle" Length="8" Values="2,2,2,2,2,2,2,1"
	Instrument Name="Tri Bass"
		Envelope Type="Volume" Length="1" Values="14"
		Envelope Type="Arpeggio" Length="8" Values="12,0,0,0,0,0,0,0"
	Instrument Name="Tri Bass 1"
		Envelope Type="Arpeggio" Length="8" Values="24,12,0,0,0,0,0,0"
	Instrument Name="Tri Bass 2"
		Envelope Type="Volume" Length="6" Values="15,15,15,15,15,0"
		Envelope Type="Arpeggio" Length="6" Values="7,5,3,1,-1,-3"
		Envelope Type="Pitch" Length="1" Loop="0" Relative="True" Values="36"
	Instrument Name="Tri Vib"
		Envelope Type="Pitch" Length="41" Loop="27" Values="0,0,0,0,0,0,0,0,0,0,0,0,0,0,0,0,0,0,0,0,0,0,0,0,0,0,0,0,0,1,2,2,2,1,0,0,-1,-2,-2,-2,-1"
	Instrument Name="Vol 6"
		Envelope Type="Volume" Length="1" Values="5"
	Instrument Name="Vol 9 R6"
		Envelope Type="Volume" Length="3" Loop="0" Release="1" Values="9,9,6"
	Instrument Name="Bell L" Expansion="EPSM" EpsmPatch="0" EpsmReg0="4" EpsmReg1="144" EpsmReg2="15" EpsmReg3="20" EpsmReg4="31" EpsmReg5="31" EpsmReg6="8" EpsmReg7="2" EpsmReg8="0" EpsmReg9="45" EpsmReg10="36" EpsmReg11="31" EpsmReg12="31" EpsmReg13="6" EpsmReg14="3" EpsmReg15="0" EpsmReg16="122" EpsmReg17="16" EpsmReg18="31" EpsmReg19="31" EpsmReg20="6" EpsmReg21="3" EpsmReg22="0" EpsmReg23="23" EpsmReg24="36" EpsmReg25="31" EpsmReg26="31" EpsmReg27="5" EpsmReg28="3" EpsmReg29="0" EpsmReg30="0"
	Instrument Name="Bell R" Expansion="EPSM" EpsmPatch="0" EpsmReg0="4" EpsmReg1="80" EpsmReg2="15" EpsmReg3="20" EpsmReg4="31" EpsmReg5="31" EpsmReg6="8" EpsmReg7="2" EpsmReg8="0" EpsmReg9="45" EpsmReg10="38" EpsmReg11="31" EpsmReg12="31" EpsmReg13="6" EpsmReg14="3" EpsmReg15="0" EpsmReg16="122" EpsmReg17="16" EpsmReg18="31" EpsmReg19="31" EpsmReg20="6" EpsmReg21="3" EpsmReg22="0" EpsmReg23="23" EpsmReg24="38" EpsmReg25="31" EpsmReg26="31" EpsmReg27="5" EpsmReg28="3" EpsmReg29="0" EpsmReg30="0"
	Instrument Name="Evil 1" Expansion="EPSM" EpsmPatch="0" EpsmReg0="4" EpsmReg1="208" EpsmReg2="98" EpsmReg3="20" EpsmReg4="31" EpsmReg5="31" EpsmReg6="0" EpsmReg7="0" EpsmReg8="0" EpsmReg9="2" EpsmReg10="35" EpsmReg11="11" EpsmReg12="31" EpsmReg13="0" EpsmReg14="4" EpsmReg15="0" EpsmReg16="50" EpsmReg17="18" EpsmReg18="31" EpsmReg19="31" EpsmReg20="0" EpsmReg21="0" EpsmReg22="0" EpsmReg23="18" EpsmReg24="35" EpsmReg25="11" EpsmReg26="31" EpsmReg27="0" EpsmReg28="4" EpsmReg29="0" EpsmReg30="0"
	Instrument Name="Evil 2" Expansion="EPSM" EpsmPatch="0" EpsmReg0="4" EpsmReg1="144" EpsmReg2="98" EpsmReg3="20" EpsmReg4="31" EpsmReg5="31" EpsmReg6="0" EpsmReg7="0" EpsmReg8="0" EpsmReg9="2" EpsmReg10="35" EpsmReg11="11" EpsmReg12="31" EpsmReg13="0" EpsmReg14="4" EpsmReg15="0" EpsmReg16="50" EpsmReg17="18" EpsmReg18="31" EpsmReg19="31" EpsmReg20="0" EpsmReg21="0" EpsmReg22="0" EpsmReg23="18" EpsmReg24="35" EpsmReg25="11" EpsmReg26="31" EpsmReg27="0" EpsmReg28="4" EpsmReg29="0" EpsmReg30="0"
	Instrument Name="Evil 3" Expansion="EPSM" EpsmPatch="0" EpsmReg0="4" EpsmReg1="80" EpsmReg2="98" EpsmReg3="20" EpsmReg4="31" EpsmReg5="31" EpsmReg6="0" EpsmReg7="0" EpsmReg8="0" EpsmReg9="2" EpsmReg10="35" EpsmReg11="11" EpsmReg12="31" EpsmReg13="0" EpsmReg14="4" EpsmReg15="0" EpsmReg16="50" EpsmReg17="18" EpsmReg18="31" EpsmReg19="31" EpsmReg20="0" EpsmReg21="0" EpsmReg22="0" EpsmReg23="18" EpsmReg24="35" EpsmReg25="11" EpsmReg26="31" EpsmReg27="0" EpsmReg28="4" EpsmReg29="0" EpsmReg30="0"
	Instrument Name="Evil L" Expansion="EPSM" EpsmPatch="0" EpsmReg0="36" EpsmReg1="128" EpsmReg2="34" EpsmReg3="8" EpsmReg4="4" EpsmReg5="31" EpsmReg6="5" EpsmReg7="9" EpsmReg8="0" EpsmReg9="2" EpsmReg10="38" EpsmReg11="31" EpsmReg12="31" EpsmReg13="0" EpsmReg14="9" EpsmReg15="0" EpsmReg16="115" EpsmReg17="8" EpsmReg18="4" EpsmReg19="31" EpsmReg20="5" EpsmReg21="9" EpsmReg22="0" EpsmReg23="3" EpsmReg24="42" EpsmReg25="31" EpsmReg26="31" EpsmReg27="0" EpsmReg28="9" EpsmReg29="0" EpsmReg30="0"
	Instrument Name="Evil LR" Expansion="EPSM" EpsmPatch="0" EpsmReg0="36" EpsmReg1="192" EpsmReg2="98" EpsmReg3="8" EpsmReg4="4" EpsmReg5="31" EpsmReg6="5" EpsmReg7="9" EpsmReg8="0" EpsmReg9="2" EpsmReg10="38" EpsmReg11="31" EpsmReg12="31" EpsmReg13="0" EpsmReg14="9" EpsmReg15="0" EpsmReg16="51" EpsmReg17="8" EpsmReg18="4" EpsmReg19="31" EpsmReg20="5" EpsmReg21="9" EpsmReg22="0" EpsmReg23="3" EpsmReg24="42" EpsmReg25="31" EpsmReg26="31" EpsmReg27="0" EpsmReg28="9" EpsmReg29="0" EpsmReg30="0"
	Instrument Name="Evil R" Expansion="EPSM" EpsmPatch="0" EpsmReg0="36" EpsmReg1="64" EpsmReg2="98" EpsmReg3="8" EpsmReg4="4" EpsmReg5="31" EpsmReg6="5" EpsmReg7="9" EpsmReg8="0" EpsmReg9="2" EpsmReg10="38" EpsmReg11="31" EpsmReg12="31" EpsmReg13="0" EpsmReg14="9" EpsmReg15="0" EpsmReg16="51" EpsmReg17="8" EpsmReg18="4" EpsmReg19="31" EpsmReg20="5" EpsmReg21="9" EpsmReg22="0" EpsmReg23="3" EpsmReg24="42" EpsmReg25="31" EpsmReg26="31" EpsmReg27="0" EpsmReg28="9" EpsmReg29="0" EpsmReg30="0"
	Instrument Name="Noise" Expansion="EPSM" EpsmPatch="0" EpsmReg0="52" EpsmReg1="64" EpsmReg2="15" EpsmReg3="0" EpsmReg4="31" EpsmReg5="0" EpsmReg6="0" EpsmReg7="15" EpsmReg8="0" EpsmReg9="0" EpsmReg10="55" EpsmReg11="7" EpsmReg12="0" EpsmReg13="0" EpsmReg14="15" EpsmReg15="0" EpsmReg16="0" EpsmReg17="127" EpsmReg18="31" EpsmReg19="0" EpsmReg20="0" EpsmReg21="7" EpsmReg22="0" EpsmReg23="112" EpsmReg24="51" EpsmReg25="31" EpsmReg26="0" EpsmReg27="0" EpsmReg28="7" EpsmReg29="0" EpsmReg30="0"
	Instrument Name="Noise 1" Expansion="EPSM" EpsmPatch="0" EpsmReg0="60" EpsmReg1="128" EpsmReg2="15" EpsmReg3="0" EpsmReg4="31" EpsmReg5="0" EpsmReg6="0" EpsmReg7="15" EpsmReg8="0" EpsmReg9="0" EpsmReg10="55" EpsmReg11="7" EpsmReg12="0" EpsmReg13="0" EpsmReg14="15" EpsmReg15="0" EpsmReg16="48" EpsmReg17="127" EpsmReg18="31" EpsmReg19="0" EpsmReg20="0" EpsmReg21="7" EpsmReg22="0" EpsmReg23="49" EpsmReg24="51" EpsmReg25="31" EpsmReg26="0" EpsmReg27="0" EpsmReg28="7" EpsmReg29="0" EpsmReg30="0"
	Instrument Name="Saw L" Expansion="EPSM" EpsmPatch="0" EpsmReg0="55" EpsmReg1="128" EpsmReg2="48" EpsmReg3="20" EpsmReg4="31" EpsmReg5="0" EpsmReg6="0" EpsmReg7="12" EpsmReg8="0" EpsmReg9="0" EpsmReg10="127" EpsmReg11="31" EpsmReg12="0" EpsmReg13="0" EpsmReg14="15" EpsmReg15="0" EpsmReg16="0" EpsmReg17="127" EpsmReg18="31" EpsmReg19="0" EpsmReg20="0" EpsmReg21="15" EpsmReg22="0" EpsmReg23="0" EpsmReg24="127" EpsmReg25="31" EpsmReg26="0" EpsmReg27="0" EpsmReg28="15" EpsmReg29="0" EpsmReg30="0"
	Instrument Name="Saw R" Expansion="EPSM" EpsmPatch="0" EpsmReg0="55" EpsmReg1="64" EpsmReg2="112" EpsmReg3="20" EpsmReg4="31" EpsmReg5="0" EpsmReg6="0" EpsmReg7="12" EpsmReg8="0" EpsmReg9="0" EpsmReg10="127" EpsmReg11="31" EpsmReg12="0" EpsmReg13="0" EpsmReg14="15" EpsmReg15="0" EpsmReg16="0" EpsmReg17="127" EpsmReg18="31" EpsmReg19="0" EpsmReg20="0" EpsmReg21="15" EpsmReg22="0" EpsmReg23="0" EpsmReg24="127" EpsmReg25="31" EpsmReg26="0" EpsmReg27="0" EpsmReg28="15" EpsmReg29="0" EpsmReg30="0"
	Instrument Name="Saw R 1" Expansion="EPSM" EpsmPatch="0" EpsmReg0="55" EpsmReg1="64" EpsmReg2="113" EpsmReg3="25" EpsmReg4="31" EpsmReg5="0" EpsmReg6="0" EpsmReg7="12" EpsmReg8="0" EpsmReg9="0" EpsmReg10="127" EpsmReg11="31" EpsmReg12="0" EpsmReg13="0" EpsmReg14="15" EpsmReg15="0" EpsmReg16="0" EpsmReg17="127" EpsmReg18="31" EpsmReg19="0" EpsmReg20="0" EpsmReg21="15" EpsmReg22="0" EpsmReg23="0" EpsmReg24="127" EpsmReg25="31" EpsmReg26="0" EpsmReg27="0" EpsmReg28="15" EpsmReg29="0" EpsmReg30="0"
	Instrument Name="Screech" Expansion="EPSM" EpsmPatch="0" EpsmReg0="36" EpsmReg1="192" EpsmReg2="113" EpsmReg3="8" EpsmReg4="4" EpsmReg5="31" EpsmReg6="5" EpsmReg7="4" EpsmReg8="0" EpsmReg9="1" EpsmReg10="35" EpsmReg11="31" EpsmReg12="31" EpsmReg13="0" EpsmReg14="4" EpsmReg15="0" EpsmReg16="63" EpsmReg17="11" EpsmReg18="4" EpsmReg19="31" EpsmReg20="5" EpsmReg21="4" EpsmReg22="0" EpsmReg23="0" EpsmReg24="44" EpsmReg25="31" EpsmReg26="31" EpsmReg27="0" EpsmReg28="3" EpsmReg29="0" EpsmReg30="0"
	Instrument Name="Soft Saw Bass" Expansion="EPSM" EpsmPatch="0" EpsmReg0="61" EpsmReg1="192" EpsmReg2="0" EpsmReg3="30" EpsmReg4="31" EpsmReg5="11" EpsmReg6="0" EpsmReg7="255" EpsmReg8="0" EpsmReg9="48" EpsmReg10="30" EpsmReg11="31" EpsmReg12="9" EpsmReg13="0" EpsmReg14="249" EpsmReg15="0" EpsmReg16="112" EpsmReg17="34" EpsmReg18="31" EpsmReg19="0" EpsmReg20="0" EpsmReg21="15" EpsmReg22="0" EpsmReg23="0" EpsmReg24="30" EpsmReg25="17" EpsmReg26="31" EpsmReg27="0" EpsmReg28="7" EpsmReg29="0" EpsmReg30="0"
	Song Name="EPSM Detected" Length="1" LoopPoint="-1" PatternLength="16" BeatLength="4" NoteLength="7" Groove="7" GroovePaddingMode="Middle"
		Channel Type="Square1"
		Channel Type="Square2"
		Channel Type="Triangle"
		Channel Type="Noise"
		Channel Type="DPCM"
		Channel Type="EPSMFM1"
			Pattern Name="How2Bboss's Pattern01"
				Note Time="0" Value="B6" Duration="7" Instrument="Saw R"
				Note Time="7" Value="D7" Duration="7" Instrument="Saw R"
				Note Time="14" Value="G7" Duration="7" Instrument="Saw R"
				Note Time="42" Value="G7" Duration="4" Instrument="Saw R"
				Note Time="49" Value="G7" Duration="3" Instrument="Saw R"
			PatternInstance Time="0" Pattern="How2Bboss's Pattern01"
		Channel Type="EPSMFM2"
			Pattern Name="How2Bboss's Pattern01"
				Note Time="0" Value="G6" Duration="7" Instrument="Saw L"
				Note Time="7" Value="B6" Duration="7" Instrument="Saw L"
				Note Time="14" Value="D7" Duration="7" Instrument="Saw L"
				Note Time="63" Value="D7" Duration="3" Instrument="Saw L"
				Note Time="70" Value="D7" Duration="4" Instrument="Saw L"
			PatternInstance Time="0" Pattern="How2Bboss's Pattern01"
		Channel Type="EPSMFM3"
			Pattern Name="How2Bboss's Pattern01"
				Note Time="0" Value="B3" Duration="7" Instrument="Soft Saw Bass"
				Note Time="7" Value="G4" Duration="7" Instrument="Soft Saw Bass"
				Note Time="14" Value="B4" Duration="8" Instrument="Soft Saw Bass"
				Note Time="84" Value="G3" Duration="4" Instrument="Soft Saw Bass"
				Note Time="91" Value="G3" Duration="14" Release="7" Instrument="Soft Saw Bass"
			PatternInstance Time="0" Pattern="How2Bboss's Pattern01"
	Song Name="Intro" Length="32" LoopPoint="-1" PatternLength="14" BeatLength="4" NoteLength="9" Groove="9" GroovePaddingMode="Middle"
		PatternCustomSettings Time="27" Length="8" NoteLength="9" Groove="9" GroovePaddingMode="Middle" BeatLength="4"
		PatternCustomSettings Time="28" Length="2" NoteLength="9" Groove="10-9-9-9" GroovePaddingMode="Middle" BeatLength="4"
		PatternCustomSettings Time="29" Length="2" NoteLength="9" Groove="10-10-10-9" GroovePaddingMode="Middle" BeatLength="4"
		PatternCustomSettings Time="30" Length="2" NoteLength="10" Groove="11-11-10" GroovePaddingMode="Middle" BeatLength="4"
		PatternCustomSettings Time="31" Length="32" NoteLength="11" Groove="11" GroovePaddingMode="Middle" BeatLength="4"
		Channel Type="Square1"
			Pattern Name="How2Bboss's Pattern01"
				Note Time="0" Value="A2" Duration="9" Release="7" Instrument="Pluck 1 D1"
				Note Time="9" Value="E2" Duration="9" Instrument="Pluck 1 D1" Attack="False"
				Note Time="18" Value="E3" Duration="9" Release="7" Instrument="Pluck 1 D2"
				Note Time="27" Value="A2" Duration="9" Instrument="Pluck 1 D2" Attack="False"
				Note Time="36" Value="C3" Duration="9" Release="7" Instrument="Pluck 1 D3"
				Note Time="45" Value="E3" Duration="9" Instrument="Pluck 1 D3" Attack="False"
				Note Time="54" Value="E2" Duration="9" Release="7" Instrument="Pluck 1 D1"
				Note Time="63" Value="C3" Duration="9" Instrument="Pluck 1 D1" Attack="False"
				Note Time="72" Value="F2" Duration="9" Release="7" Instrument="Pluck 1 D2"
				Note Time="81" Value="E2" Duration="9" Instrument="Pluck 1 D2" Attack="False"
				Note Time="90" Value="E3" Duration="9" Release="7" Instrument="Pluck 1 D3"
				Note Time="99" Value="F2" Duration="9" Instrument="Pluck 1 D3" Attack="False"
				Note Time="108" Value="F2" Duration="9" Release="7" Instrument="Pluck 1 D2"
				Note Time="117" Value="E3" Duration="9" Instrument="Pluck 1 D2" Attack="False"
			Pattern Name="How2Bboss's Pattern02"
				Note Time="0" Value="A2" Duration="9" Release="7" Instrument="Pluck 1 D3"
				Note Time="9" Value="D#2" Duration="9" Instrument="Pluck 1 D3" Attack="False"
				Note Time="18" Value="D#3" Duration="9" Release="7" Instrument="Pluck 1 D2"
				Note Time="27" Value="A2" Duration="9" Instrument="Pluck 1 D2" Attack="False"
				Note Time="36" Value="C3" Duration="9" Release="7" Instrument="Pluck 1 D1"
				Note Time="45" Value="D#3" Duration="9" Instrument="Pluck 1 D1" Attack="False"
				Note Time="54" Value="D#2" Duration="9" Release="7" Instrument="Pluck 1 D3"
				Note Time="63" Value="C3" Duration="9" Instrument="Pluck 1 D3" Attack="False"
				Note Time="72" Value="F#2" Duration="9" Release="7" Instrument="Pluck 1 D3"
				Note Time="81" Value="D#2" Duration="9" Instrument="Pluck 1 D3" Attack="False"
				Note Time="90" Value="D#3" Duration="9" Release="7" Instrument="Pluck 1 D2"
				Note Time="99" Value="F#2" Duration="9" Instrument="Pluck 1 D2" Attack="False"
				Note Time="108" Value="F#2" Duration="9" Release="7" Instrument="Pluck 1 D1"
				Note Time="117" Value="D#3" Duration="9" Instrument="Pluck 1 D1" Attack="False"
			Pattern Name="How2Bboss's Pattern05"
				Note Time="0" Value="A2" Duration="9" Release="8" Instrument="Pluck Echo"
				Note Time="9" Value="A0" Duration="9" Instrument="Pluck Echo" Attack="False"
				Note Time="18" Value="E3" Duration="9" Release="8" Instrument="Pluck Echo"
				Note Time="27" Value="A0" Duration="9" Instrument="Pluck Echo" Attack="False"
				Note Time="36" Value="C3" Duration="9" Release="8" Instrument="Pluck Echo"
				Note Time="45" Value="A0" Duration="9" Instrument="Pluck Echo" Attack="False"
				Note Time="54" Value="E2" Duration="9" Release="8" Instrument="Pluck Echo"
				Note Time="63" Value="A0" Duration="9" Instrument="Pluck Echo" Attack="False"
				Note Time="72" Value="F2" Duration="9" Release="8" Instrument="Pluck Echo"
				Note Time="81" Value="A0" Duration="9" Instrument="Pluck Echo" Attack="False"
				Note Time="90" Value="E3" Duration="9" Release="8" Instrument="Pluck Echo"
				Note Time="99" Value="A0" Duration="9" Instrument="Pluck Echo" Attack="False"
				Note Time="108" Value="F2" Duration="9" Release="8" Instrument="Pluck Echo"
				Note Time="117" Value="A0" Duration="9" Instrument="Pluck Echo" Attack="False"
			Pattern Name="How2Bboss's Pattern06"
				Note Time="0" Value="A2" Duration="9" Release="8" Instrument="Pluck Echo"
				Note Time="9" Value="D#1" Duration="9" Instrument="Pluck Echo" Attack="False"
				Note Time="18" Value="D#3" Duration="9" Release="8" Instrument="Pluck Echo"
				Note Time="27" Value="D#1" Duration="9" Instrument="Pluck Echo" Attack="False"
				Note Time="36" Value="C3" Duration="9" Release="8" Instrument="Pluck Echo"
				Note Time="45" Value="D#1" Duration="9" Instrument="Pluck Echo" Attack="False"
				Note Time="54" Value="D#2" Duration="9" Release="8" Instrument="Pluck Echo"
				Note Time="63" Value="D#1" Duration="9" Instrument="Pluck Echo" Attack="False"
				Note Time="72" Value="F#2" Duration="9" Release="8" Instrument="Pluck Echo"
				Note Time="81" Value="D#1" Duration="9" Instrument="Pluck Echo" Attack="False"
				Note Time="90" Value="D#3" Duration="9" Release="8" Instrument="Pluck Echo"
				Note Time="99" Value="D#1" Duration="9" Instrument="Pluck Echo" Attack="False"
				Note Time="108" Value="F#2" Duration="9" Release="8" Instrument="Pluck Echo"
				Note Time="117" Value="D#1" Duration="9" Instrument="Pluck Echo" Attack="False"
			Pattern Name="How2Bboss's Pattern07"
				Note Time="0" Value="A2" Duration="9" Release="8" Instrument="Pluck Echo"
				Note Time="9" Value="D#1" Duration="9" Instrument="Pluck Echo" Attack="False"
				Note Time="18" Value="D#3" Duration="9" Release="8" Instrument="Pluck Echo"
				Note Time="27" Value="D#1" Duration="9" Instrument="Pluck Echo" Attack="False"
				Note Time="36" Value="C3" Duration="9" Release="8" Instrument="Pluck Echo"
				Note Time="45" Value="D#1" Duration="9" Instrument="Pluck Echo" Attack="False"
				Note Time="54" Value="D#2" Duration="9" Release="8" Instrument="Pluck Echo"
				Note Time="63" Value="D#1" Duration="9" Instrument="Pluck Echo" Attack="False"
				Note Time="72" Value="F#2" Duration="9" Release="8" Instrument="Pluck Echo"
				Note Time="81" Value="F#1" Duration="9" Instrument="Pluck Echo" Attack="False"
				Note Time="90" Value="D#3" Duration="9" Release="8" Instrument="Pluck Echo"
				Note Time="99" Value="D#1" Duration="9" Instrument="Pluck Echo" Attack="False"
				Note Time="108" Value="F#2" Duration="9" Release="8" Instrument="Pluck Echo"
				Note Time="117" Value="D#1" Duration="9" Instrument="Pluck Echo" Attack="False"
			Pattern Name="How2Bboss's Pattern10"
				Note Time="0" Value="A2" Duration="9" Release="8" Instrument="Pluck Echo"
				Note Time="9" Value="D#1" Duration="9" Instrument="Pluck Echo" Attack="False"
				Note Time="18" Value="D#3" Duration="9" Release="8" Instrument="Pluck Echo"
				Note Time="27" Value="D#1" Duration="9" Instrument="Pluck Echo" Attack="False"
				Note Time="36" Value="C3" Duration="9" Release="8" Instrument="Pluck Echo"
				Note Time="45" Value="D#1" Duration="9" Instrument="Pluck Echo" Attack="False"
				Note Time="54" Value="D#2" Duration="9" Release="8" Instrument="Pluck Echo"
				Note Time="63" Value="D#1" Duration="9" Instrument="Pluck Echo" Attack="False"
			Pattern Name="How2Bboss's Pattern11"
				Note Time="0" Value="F#2" Duration="9" Release="8" Instrument="Pluck Echo"
				Note Time="9" Value="F#1" Duration="9" Instrument="Pluck Echo" Attack="False"
			Pattern Name="How2Bboss's Pattern03"
				Note Time="0" Value="D#3" Duration="9" Release="8" Instrument="Pluck Echo"
				Note Time="9" Value="D#1" Duration="9" Instrument="Pluck Echo" Attack="False"
			Pattern Name="How2Bboss's Pattern04"
				Note Time="0" Value="F#2" Duration="10" Release="9" Instrument="Pluck Echo"
				Note Time="10" Value="D#1" Duration="10" Instrument="Pluck Echo" Attack="False"
			Pattern Name="How2Bboss's Pattern08"
				Note Time="2" Value="A#0" Duration="64" Instrument="Pluck 3"
				Note Time="66" Value="A#0" Duration="22" Instrument="Pluck 3" SlideTarget="G1" Attack="False"
				Note Time="88" Value="G1" Duration="176" Release="121" Instrument="Pluck 3" Attack="False"
			PatternInstance Time="0" Pattern="How2Bboss's Pattern01"
			PatternInstance Time="1" Pattern="How2Bboss's Pattern01"
			PatternInstance Time="2" Pattern="How2Bboss's Pattern02"
			PatternInstance Time="3" Pattern="How2Bboss's Pattern02"
			PatternInstance Time="4" Pattern="How2Bboss's Pattern01"
			PatternInstance Time="5" Pattern="How2Bboss's Pattern01"
			PatternInstance Time="6" Pattern="How2Bboss's Pattern02"
			PatternInstance Time="7" Pattern="How2Bboss's Pattern02"
			PatternInstance Time="8" Pattern="How2Bboss's Pattern01"
			PatternInstance Time="9" Pattern="How2Bboss's Pattern01"
			PatternInstance Time="10" Pattern="How2Bboss's Pattern02"
			PatternInstance Time="11" Pattern="How2Bboss's Pattern02"
			PatternInstance Time="12" Pattern="How2Bboss's Pattern05"
			PatternInstance Time="13" Pattern="How2Bboss's Pattern05"
			PatternInstance Time="14" Pattern="How2Bboss's Pattern06"
			PatternInstance Time="15" Pattern="How2Bboss's Pattern07"
			PatternInstance Time="16" Pattern="How2Bboss's Pattern05"
			PatternInstance Time="17" Pattern="How2Bboss's Pattern05"
			PatternInstance Time="18" Pattern="How2Bboss's Pattern06"
			PatternInstance Time="19" Pattern="How2Bboss's Pattern07"
			PatternInstance Time="20" Pattern="How2Bboss's Pattern05"
			PatternInstance Time="21" Pattern="How2Bboss's Pattern05"
			PatternInstance Time="22" Pattern="How2Bboss's Pattern06"
			PatternInstance Time="23" Pattern="How2Bboss's Pattern07"
			PatternInstance Time="24" Pattern="How2Bboss's Pattern05"
			PatternInstance Time="25" Pattern="How2Bboss's Pattern05"
			PatternInstance Time="26" Pattern="How2Bboss's Pattern06"
			PatternInstance Time="27" Pattern="How2Bboss's Pattern10"
			PatternInstance Time="28" Pattern="How2Bboss's Pattern11"
			PatternInstance Time="29" Pattern="How2Bboss's Pattern03"
			PatternInstance Time="30" Pattern="How2Bboss's Pattern04"
			PatternInstance Time="31" Pattern="How2Bboss's Pattern08"
		Channel Type="Square2"
			Pattern Name="How2Bboss's Pattern15"
				Note Time="0" Value="A0" Duration="252" Instrument="Bell"
			Pattern Name="How2Bboss's Pattern16"
				Note Time="0" Value="D#1" Duration="252" Instrument="Bell" Attack="False"
			Pattern Name="How2Bboss's Pattern01"
				Note Time="0" Value="A0" Duration="27" Release="9" Instrument="Pluck 3"
				Note Time="27" Value="A0" Duration="27" Release="9" Instrument="Pluck 3"
				Note Time="54" Value="A0" Duration="27" Release="9" Instrument="Pluck 3"
				Note Time="81" Value="A0" Duration="27" Release="9" Instrument="Pluck 3"
				Note Time="108" Value="A0" Duration="27" Release="9" Instrument="Pluck 3"
			Pattern Name="How2Bboss's Pattern02"
				Note Time="9" Value="A0" Duration="27" Release="9" Instrument="Pluck 3"
				Note Time="36" Value="A0" Duration="27" Release="9" Instrument="Pluck 3"
				Note Time="63" Value="A0" Duration="27" Release="9" Instrument="Pluck 3"
				Note Time="90" Value="A0" Duration="18" Release="9" Instrument="Pluck 3"
				Note Time="108" Value="A0" Duration="9" Release="6" Instrument="Pluck 3"
				Note Time="117" Value="A0" Duration="9" Release="6" Instrument="Pluck 3"
			Pattern Name="How2Bboss's Pattern03"
				Note Time="0" Value="D#1" Duration="27" Release="9" Instrument="Pluck 3"
				Note Time="27" Value="D#1" Duration="27" Release="9" Instrument="Pluck 3"
				Note Time="54" Value="D#1" Duration="27" Release="9" Instrument="Pluck 3"
				Note Time="81" Value="D#1" Duration="27" Release="9" Instrument="Pluck 3"
				Note Time="108" Value="D#1" Duration="27" Release="9" Instrument="Pluck 3"
			Pattern Name="How2Bboss's Pattern09"
				Note Time="9" Value="D#1" Duration="27" Release="9" Instrument="Pluck 3"
				Note Time="36" Value="D#1" Duration="27" Release="9" Instrument="Pluck 3"
				Note Time="63" Value="D#1" Duration="9" Instrument="Pluck 3"
				Note Time="72" Value="F#1" Duration="18" Instrument="Pluck 3"
				Note Time="90" Value="D#1" Duration="36" Instrument="Pluck 3"
			Pattern Name="How2Bboss's Pattern08"
				Note Time="9" Value="D#1" Duration="27" Release="9" Instrument="Pluck 3"
				Note Time="36" Value="D#1" Duration="27" Release="9" Instrument="Pluck 3"
				Note Time="63" Value="D#1" Duration="9" Instrument="Pluck 3"
				Note Time="72" Value="F#1" Duration="9" Release="5" Instrument="Pluck 3"
				Note Time="81" Value="F#1" Duration="9" Release="5" Instrument="Pluck 3"
				Note Time="90" Value="D#1" Duration="18" Release="14" Instrument="Pluck 3"
				Note Time="108" Value="D#1" Duration="18" Release="14" Instrument="Pluck 3"
			Pattern Name="How2Bboss's Pattern10"
				Note Time="0" Value="A0" Duration="27" Release="9" Instrument="Pluck 3" FinePitch="6"
				Note Time="27" Value="A0" Duration="27" Release="9" Instrument="Pluck 3"
				Note Time="54" Value="A0" Duration="27" Release="9" Instrument="Pluck 3"
				Note Time="81" Value="A0" Duration="27" Release="9" Instrument="Pluck 3"
				Note Time="108" Value="A0" Duration="27" Release="9" Instrument="Pluck 3"
			Pattern Name="How2Bboss's Pattern17"
				Note Time="9" Value="D#1" Duration="27" Release="9" Instrument="Pluck 3"
				Note Time="36" Value="D#1" Duration="27" Release="9" Instrument="Pluck 3"
				Note Time="63" Value="D#1" Duration="9" Instrument="Pluck 3"
			Pattern Name="How2Bboss's Pattern18"
				Note Time="0" Value="F#1" Duration="9" Release="5" Instrument="Pluck 3"
				Note Time="9" Value="F#1" Duration="9" Release="5" Instrument="Pluck 3"
			Pattern Name="How2Bboss's Pattern04"
				Note Time="0" Value="D#1" Duration="18" Release="14" Instrument="Pluck 3"
			Pattern Name="How2Bboss's Pattern19"
				Note Time="0" Value="D#1" Duration="20" Release="15" Instrument="Pluck 3"
			Pattern Name="How2Bboss's Pattern20"
				Note Time="0" Value="A#0" Duration="66" Instrument="Pluck 3"
				Note Time="66" Value="A#0" Duration="22" Instrument="Pluck 3" SlideTarget="G1" Attack="False"
				Note Time="88" Value="G1" Duration="176" Release="132" Instrument="Pluck 3" Attack="False"
			PatternInstance Time="0" Pattern="How2Bboss's Pattern15"
			PatternInstance Time="2" Pattern="How2Bboss's Pattern16"
			PatternInstance Time="4" Pattern="How2Bboss's Pattern01"
			PatternInstance Time="5" Pattern="How2Bboss's Pattern02"
			PatternInstance Time="6" Pattern="How2Bboss's Pattern03"
			PatternInstance Time="7" Pattern="How2Bboss's Pattern09"
			PatternInstance Time="8" Pattern="How2Bboss's Pattern01"
			PatternInstance Time="9" Pattern="How2Bboss's Pattern02"
			PatternInstance Time="10" Pattern="How2Bboss's Pattern03"
			PatternInstance Time="11" Pattern="How2Bboss's Pattern08"
			PatternInstance Time="12" Pattern="How2Bboss's Pattern10"
			PatternInstance Time="13" Pattern="How2Bboss's Pattern02"
			PatternInstance Time="14" Pattern="How2Bboss's Pattern03"
			PatternInstance Time="15" Pattern="How2Bboss's Pattern08"
			PatternInstance Time="16" Pattern="How2Bboss's Pattern10"
			PatternInstance Time="17" Pattern="How2Bboss's Pattern02"
			PatternInstance Time="18" Pattern="How2Bboss's Pattern03"
			PatternInstance Time="19" Pattern="How2Bboss's Pattern08"
			PatternInstance Time="20" Pattern="How2Bboss's Pattern10"
			PatternInstance Time="21" Pattern="How2Bboss's Pattern02"
			PatternInstance Time="22" Pattern="How2Bboss's Pattern03"
			PatternInstance Time="23" Pattern="How2Bboss's Pattern08"
			PatternInstance Time="24" Pattern="How2Bboss's Pattern10"
			PatternInstance Time="25" Pattern="How2Bboss's Pattern02"
			PatternInstance Time="26" Pattern="How2Bboss's Pattern03"
			PatternInstance Time="27" Pattern="How2Bboss's Pattern17"
			PatternInstance Time="28" Pattern="How2Bboss's Pattern18"
			PatternInstance Time="29" Pattern="How2Bboss's Pattern04"
			PatternInstance Time="30" Pattern="How2Bboss's Pattern19"
			PatternInstance Time="31" Pattern="How2Bboss's Pattern20"
		Channel Type="Triangle"
			Pattern Name="How2Bboss's Pattern03"
				Note Time="0" Value="A1" Duration="126" Instrument="Pluck 3"
			Pattern Name="How2Bboss's Pattern01"
				Note Time="0" Value="A1" Duration="108" Instrument="Pluck 3" Attack="False"
				Note Time="108" Value="A1" Duration="9" Instrument="Pluck 3" SlideTarget="G1" Attack="False"
				Note Time="117" Value="G1" Duration="9" Instrument="Pluck 3" SlideTarget="D#1" Attack="False"
			Pattern Name="How2Bboss's Pattern02"
				Note Time="0" Value="D#1" Duration="126" Instrument="Pluck 3" Attack="False"
			Pattern Name="How2Bboss's Pattern07"
				Note Time="0" Value="A4" Duration="90" Instrument="Tri Vib"
				Note Time="90" Value="C5" Duration="36" Instrument="Tri Vib"
			Pattern Name="How2Bboss's Pattern08"
				Note Time="0" Value="B4" Duration="90" Instrument="Tri Vib"
				Note Time="90" Value="G#4" Duration="36" Instrument="Tri Vib"
			Pattern Name="How2Bboss's Pattern09"
				Note Time="0" Value="C5" Duration="108" Instrument="Tri Vib"
				Note Time="108" Value="B4" Duration="9" Instrument="Tri Vib"
				Note Time="117" Value="A#4" Duration="9" Instrument="Tri Vib"
			Pattern Name="How2Bboss's Pattern20"
				Note Time="0" Value="A4" Duration="126" Instrument="Tri Vib"
			Pattern Name="How2Bboss's Pattern13"
				Note Time="0" Value="G4" Duration="36" Instrument="Tri Vib"
				Note Time="36" Value="D#5" Duration="72" Instrument="Tri Vib"
				Note Time="108" Value="C5" Duration="9" Instrument="Tri Vib"
				Note Time="117" Value="D5" Duration="9" Instrument="Tri Vib"
			Pattern Name="How2Bboss's Pattern10"
				Note Time="0" Value="D#5" Duration="126" Instrument="Tri Vib"
			Pattern Name="How2Bboss's Pattern11"
				Note Time="0" Value="C5" Duration="90" Instrument="Tri Vib"
				Note Time="90" Value="B4" Duration="36" Instrument="Tri Vib"
			Pattern Name="How2Bboss's Pattern12"
				Note Time="0" Value="C5" Duration="90" Instrument="Tri Vib"
				Note Time="90" Value="D5" Duration="36" Instrument="Tri Vib"
			Pattern Name="How2Bboss's Pattern16"
				Note Time="0" Value="D#5" Duration="108" Instrument="Tri Vib"
				Note Time="108" Value="D5" Duration="9" Instrument="Tri Vib"
				Note Time="117" Value="D#5" Duration="9" Instrument="Tri Vib"
			Pattern Name="How2Bboss's Pattern19"
				Note Time="0" Value="F#5" Duration="108" Instrument="Tri Vib"
				Note Time="108" Value="G#5" Duration="18" Instrument="Tri Vib"
			Pattern Name="How2Bboss's Pattern21"
				Note Time="0" Value="A5" Duration="90" Instrument="Tri Vib"
				Note Time="90" Value="E5" Duration="36" Instrument="Tri Vib"
			Pattern Name="How2Bboss's Pattern22"
				Note Time="0" Value="C5" Duration="72" Instrument="Tri Vib"
				Note Time="72" Value="A4" Duration="27" Instrument="Tri Vib"
				Note Time="99" Value="G#4" Duration="27" Instrument="Tri Vib"
			Pattern Name="How2Bboss's Pattern14"
				Note Time="0" Value="D#5" Duration="72" Instrument="Tri Vib"
			Pattern Name="How2Bboss's Pattern15"
				Note Time="0" Value="F#5" Duration="15" Instrument="Tri Vib"
			Pattern Name="How2Bboss's Pattern17"
				Note Time="0" Value="F#5" Duration="16" Instrument="Tri Vib"
			Pattern Name="How2Bboss's Pattern18"
				Note Time="0" Value="F#5" Duration="11" Instrument="Tri Vib"
				Note Time="11" Value="G5" Duration="66" Instrument="Tri Vib"
				Note Time="77" Value="G5" Duration="11" Instrument="Tri Vib" SlideTarget="G#4" Attack="False"
				Note Time="88" Value="G1" Duration="132" Instrument="Tri Vib"
			PatternInstance Time="0" Pattern="How2Bboss's Pattern03"
			PatternInstance Time="1" Pattern="How2Bboss's Pattern01"
			PatternInstance Time="2" Pattern="How2Bboss's Pattern02"
			PatternInstance Time="3" Pattern="How2Bboss's Pattern02"
			PatternInstance Time="4" Pattern="How2Bboss's Pattern03"
			PatternInstance Time="5" Pattern="How2Bboss's Pattern01"
			PatternInstance Time="6" Pattern="How2Bboss's Pattern02"
			PatternInstance Time="7" Pattern="How2Bboss's Pattern02"
			PatternInstance Time="8" Pattern="How2Bboss's Pattern03"
			PatternInstance Time="9" Pattern="How2Bboss's Pattern01"
			PatternInstance Time="10" Pattern="How2Bboss's Pattern02"
			PatternInstance Time="11" Pattern="How2Bboss's Pattern02"
			PatternInstance Time="12" Pattern="How2Bboss's Pattern07"
			PatternInstance Time="13" Pattern="How2Bboss's Pattern08"
			PatternInstance Time="14" Pattern="How2Bboss's Pattern09"
			PatternInstance Time="15" Pattern="How2Bboss's Pattern20"
			PatternInstance Time="16" Pattern="How2Bboss's Pattern07"
			PatternInstance Time="17" Pattern="How2Bboss's Pattern08"
			PatternInstance Time="18" Pattern="How2Bboss's Pattern13"
			PatternInstance Time="19" Pattern="How2Bboss's Pattern10"
			PatternInstance Time="20" Pattern="How2Bboss's Pattern11"
			PatternInstance Time="21" Pattern="How2Bboss's Pattern12"
			PatternInstance Time="22" Pattern="How2Bboss's Pattern16"
			PatternInstance Time="23" Pattern="How2Bboss's Pattern19"
			PatternInstance Time="24" Pattern="How2Bboss's Pattern21"
			PatternInstance Time="25" Pattern="How2Bboss's Pattern22"
			PatternInstance Time="26" Pattern="How2Bboss's Pattern13"
			PatternInstance Time="27" Pattern="How2Bboss's Pattern14"
			PatternInstance Time="28" Pattern="How2Bboss's Pattern15"
			PatternInstance Time="29" Pattern="How2Bboss's Pattern15"
			PatternInstance Time="30" Pattern="How2Bboss's Pattern17"
			PatternInstance Time="31" Pattern="How2Bboss's Pattern18"
		Channel Type="Noise"
			Pattern Name="How2Bboss's Pattern01"
				Note Time="0" Value="D#5" Duration="4" Instrument="Snare"
				Note Time="9" Value="C#5" Duration="4" Instrument="Hi Hat 1"
				Note Time="27" Value="C#5" Duration="5" Instrument="Hi Hat 1"
				Note Time="36" Value="C#5" Duration="4" Instrument="Hi Hat"
				Note Time="54" Value="C#5" Duration="4" Instrument="Hi Hat 1"
				Note Time="63" Value="C#5" Duration="4" Instrument="Hi Hat"
				Note Time="81" Value="C#5" Duration="5" Instrument="Hi Hat 1"
				Note Time="90" Value="C#5" Duration="4" Instrument="Hi Hat"
				Note Time="108" Value="C#5" Duration="4" Instrument="Hi Hat"
				Note Time="117" Value="C#5" Duration="5" Instrument="Hi Hat 1"
			Pattern Name="How2Bboss's Pattern02"
				Note Time="0" Value="D#5" Duration="4" Instrument="Snare"
				Note Time="9" Value="C#5" Duration="4" Instrument="Hi Hat 1"
				Note Time="27" Value="C#5" Duration="5" Instrument="Hi Hat 1"
				Note Time="36" Value="C#5" Duration="4" Instrument="Hi Hat"
				Note Time="40" Value="C5" Duration="5" Instrument="Hi Hat 1"
				Note Time="45" Value="C#5" Duration="5" Instrument="Hi Hat 1"
				Note Time="54" Value="C#5" Duration="4" Instrument="Hi Hat 1"
				Note Time="63" Value="C#5" Duration="4" Instrument="Hi Hat"
				Note Time="81" Value="C#5" Duration="5" Instrument="Hi Hat 1"
				Note Time="90" Value="C#5" Duration="4" Instrument="Hi Hat"
				Note Time="99" Value="C#5" Duration="5" Instrument="Hi Hat 1"
				Note Time="104" Value="C#5" Duration="4" Instrument="Hi Hat"
				Note Time="108" Value="C5" Duration="3" Instrument="Hi Hat"
				Note Time="114" Value="C#5" Duration="3" Instrument="Hi Hat"
				Note Time="120" Value="C#5" Duration="3" Instrument="Hi Hat"
			Pattern Name="How2Bboss's Pattern04"
				Note Time="0" Value="D#5" Duration="4" Instrument="Snare"
				Note Time="9" Value="C#5" Duration="4" Instrument="Hi Hat 1"
				Note Time="27" Value="C#5" Duration="5" Instrument="Hi Hat 1"
				Note Time="36" Value="C#5" Duration="4" Instrument="Hi Hat"
				Note Time="40" Value="C5" Duration="5" Instrument="Hi Hat 1"
				Note Time="45" Value="C#5" Duration="5" Instrument="Hi Hat 1"
				Note Time="54" Value="C#5" Duration="4" Instrument="Hi Hat 1"
				Note Time="63" Value="C#5" Duration="4" Instrument="Hi Hat"
				Note Time="72" Value="B4" Duration="4" Instrument="Hi Hat"
				Note Time="81" Value="C5" Duration="5" Instrument="Hi Hat 1"
				Note Time="90" Value="C#5" Duration="4" Instrument="Hi Hat 1"
				Note Time="99" Value="C5" Duration="5" Instrument="Hi Hat"
				Note Time="108" Value="C5" Duration="4" Instrument="Hi Hat 1"
				Note Time="117" Value="C#5" Duration="5" Instrument="Hi Hat 1"
			Pattern Name="How2Bboss's Pattern03"
				Note Time="0" Value="D#5" Duration="4" Instrument="Snare"
				Note Time="9" Value="C#5" Duration="4" Instrument="Hi Hat 1"
				Note Time="27" Value="C#5" Duration="5" Instrument="Hi Hat 1"
				Note Time="36" Value="C#5" Duration="4" Instrument="Hi Hat"
				Note Time="40" Value="C5" Duration="5" Instrument="Hi Hat 1"
				Note Time="45" Value="C#5" Duration="5" Instrument="Hi Hat 1"
				Note Time="54" Value="C#5" Duration="4" Instrument="Hi Hat 1"
				Note Time="63" Value="C#5" Duration="4" Instrument="Hi Hat"
				Note Time="81" Value="C#5" Duration="5" Instrument="Hi Hat 1"
				Note Time="90" Value="C5" Duration="4" Instrument="Hi Hat"
				Note Time="96" Value="C#5" Duration="3" Instrument="Hi Hat 1"
				Note Time="102" Value="C#5" Duration="3" Instrument="Hi Hat 1"
				Note Time="108" Value="C5" Duration="4" Instrument="Hi Hat"
				Note Time="114" Value="C#5" Duration="3" Instrument="Hi Hat 1"
				Note Time="120" Value="C#5" Duration="3" Instrument="Hi Hat 1"
			Pattern Name="How2Bboss's Pattern05"
				Note Time="0" Value="D#5" Duration="4" Instrument="Snare"
				Note Time="9" Value="C#5" Duration="4" Instrument="Hi Hat 1"
				Note Time="18" Value="B4" Duration="9" Instrument="Hi Hat 2"
				Note Time="27" Value="C#5" Duration="5" Instrument="Hi Hat 1"
				Note Time="36" Value="G#4" Duration="9" Instrument="Snare"
				Note Time="45" Value="C#5" Duration="5" Instrument="Hi Hat 1"
				Note Time="54" Value="B4" Duration="9" Instrument="Hi Hat 2"
				Note Time="63" Value="B4" Duration="9" Instrument="Hi Hat 2"
				Note Time="81" Value="C#5" Duration="5" Instrument="Hi Hat 1"
				Note Time="90" Value="C#5" Duration="4" Instrument="Hi Hat"
				Note Time="99" Value="C#5" Duration="5" Instrument="Hi Hat 1"
				Note Time="104" Value="C#5" Duration="4" Instrument="Hi Hat 1"
				Note Time="108" Value="C5" Duration="6" Instrument="Snare"
				Note Time="114" Value="C#5" Duration="3" Instrument="Hi Hat 1"
				Note Time="117" Value="B4" Duration="3" Instrument="Hi Hat 2"
				Note Time="120" Value="C#5" Duration="3" Instrument="Hi Hat 1"
			Pattern Name="How2Bboss's Pattern07"
				Note Time="0" Value="D#5" Duration="4" Instrument="Snare"
				Note Time="9" Value="C#5" Duration="4" Instrument="Hi Hat 1"
				Note Time="18" Value="B4" Duration="9" Instrument="Hi Hat 2"
				Note Time="27" Value="C#5" Duration="5" Instrument="Hi Hat 1"
				Note Time="36" Value="G#4" Duration="9" Instrument="Snare"
				Note Time="45" Value="C#5" Duration="5" Instrument="Hi Hat 1"
				Note Time="54" Value="B4" Duration="9" Instrument="Hi Hat 2"
				Note Time="63" Value="B4" Duration="9" Instrument="Hi Hat 2"
				Note Time="81" Value="C#5" Duration="5" Instrument="Hi Hat 1"
				Note Time="90" Value="C#5" Duration="4" Instrument="Hi Hat"
				Note Time="99" Value="C#5" Duration="5" Instrument="Hi Hat 1"
				Note Time="104" Value="C#5" Duration="4" Instrument="Hi Hat 1"
				Note Time="108" Value="A4" Duration="6" Instrument="Snare"
				Note Time="114" Value="C#5" Duration="3" Instrument="Hi Hat 1"
				Note Time="117" Value="A4" Duration="3" Instrument="Snare"
				Note Time="120" Value="C#5" Duration="3" Instrument="Hi Hat 1"
			Pattern Name="How2Bboss's Pattern08"
				Note Time="0" Value="D#5" Duration="4" Instrument="Snare"
				Note Time="9" Value="C#5" Duration="4" Instrument="Hi Hat 1"
				Note Time="18" Value="B4" Duration="9" Instrument="Hi Hat 2"
				Note Time="27" Value="C#5" Duration="5" Instrument="Hi Hat 1"
				Note Time="36" Value="G#4" Duration="9" Instrument="Snare"
				Note Time="45" Value="C#5" Duration="5" Instrument="Hi Hat 1"
				Note Time="54" Value="B4" Duration="9" Instrument="Hi Hat 2"
				Note Time="63" Value="B4" Duration="9" Instrument="Hi Hat 2"
			Pattern Name="How2Bboss's Pattern09"
				Note Time="0" Value="G4" Duration="9" Instrument="Snare"
				Note Time="9" Value="C#5" Duration="5" Instrument="Hi Hat 1"
			Pattern Name="How2Bboss's Pattern10"
				Note Time="0" Value="G4" Duration="9" Instrument="Snare"
				Note Time="9" Value="C#5" Duration="5" Instrument="Hi Hat 1"
				Note Time="14" Value="C#5" Duration="4" Instrument="Hi Hat 1"
			Pattern Name="How2Bboss's Pattern11"
				Note Time="0" Value="G4" Duration="6" Instrument="Snare"
				Note Time="6" Value="C#5" Duration="4" Instrument="Hi Hat 1"
				Note Time="10" Value="A4" Duration="3" Instrument="Snare"
				Note Time="13" Value="C#5" Duration="3" Instrument="Hi Hat 1"
			Pattern Name="How2Bboss's Pattern12"
				Note Time="0" Value="A#4" Duration="22" Instrument="Snare"
				Note Time="22" Value="A#4" Duration="33" Instrument="Snare" SlideTarget="D#4" Attack="False"
				Note Time="55" Value="D#4" Duration="22" Instrument="Snare" SlideTarget="G#2" Attack="False"
				Note Time="77" Value="G#2" Duration="11" Instrument="Snare" SlideTarget="D1" Attack="False"
				Note Time="88" Value="B0" Duration="78" Instrument="Snare 2"
			PatternInstance Time="2" Pattern="How2Bboss's Pattern01"
			PatternInstance Time="3" Pattern="How2Bboss's Pattern01"
			PatternInstance Time="4" Pattern="How2Bboss's Pattern02"
			PatternInstance Time="5" Pattern="How2Bboss's Pattern02"
			PatternInstance Time="6" Pattern="How2Bboss's Pattern02"
			PatternInstance Time="7" Pattern="How2Bboss's Pattern04"
			PatternInstance Time="8" Pattern="How2Bboss's Pattern02"
			PatternInstance Time="9" Pattern="How2Bboss's Pattern02"
			PatternInstance Time="10" Pattern="How2Bboss's Pattern02"
			PatternInstance Time="11" Pattern="How2Bboss's Pattern03"
			PatternInstance Time="12" Pattern="How2Bboss's Pattern05"
			PatternInstance Time="13" Pattern="How2Bboss's Pattern05"
			PatternInstance Time="14" Pattern="How2Bboss's Pattern05"
			PatternInstance Time="15" Pattern="How2Bboss's Pattern07"
			PatternInstance Time="16" Pattern="How2Bboss's Pattern05"
			PatternInstance Time="17" Pattern="How2Bboss's Pattern05"
			PatternInstance Time="18" Pattern="How2Bboss's Pattern05"
			PatternInstance Time="19" Pattern="How2Bboss's Pattern07"
			PatternInstance Time="20" Pattern="How2Bboss's Pattern05"
			PatternInstance Time="21" Pattern="How2Bboss's Pattern05"
			PatternInstance Time="22" Pattern="How2Bboss's Pattern05"
			PatternInstance Time="23" Pattern="How2Bboss's Pattern07"
			PatternInstance Time="24" Pattern="How2Bboss's Pattern05"
			PatternInstance Time="25" Pattern="How2Bboss's Pattern05"
			PatternInstance Time="26" Pattern="How2Bboss's Pattern05"
			PatternInstance Time="27" Pattern="How2Bboss's Pattern08"
			PatternInstance Time="28" Pattern="How2Bboss's Pattern09"
			PatternInstance Time="29" Pattern="How2Bboss's Pattern10"
			PatternInstance Time="30" Pattern="How2Bboss's Pattern11"
			PatternInstance Time="31" Pattern="How2Bboss's Pattern12"
		Channel Type="DPCM"
			Pattern Name="How2Bboss's Pattern01"
				Note Time="0" DeltaCounter="14"
				Note Time="9" DeltaCounter="28"
				Note Time="18" DeltaCounter="44"
				Note Time="27" DeltaCounter="66"
			PatternInstance Time="12" Pattern="How2Bboss's Pattern01"
		Channel Type="EPSMFM1"
			Pattern Name="How2Bboss's Pattern01"
				Note Time="0" Value="A0" Duration="234" Instrument="Evil 1"
			Pattern Name="How2Bboss's Pattern02"
				Note Time="108" Value="A0" Duration="18" Instrument="Evil 1" SlideTarget="D#0" Attack="False"
			Pattern Name="How2Bboss's Pattern03"
				Note Time="0" Value="D#0" Duration="252" Instrument="Evil 1" Attack="False"
			Pattern Name="How2Bboss's Pattern10"
				Note Time="0" Value="D#0" Duration="254" Instrument="Evil 1" Attack="False"
			Pattern Name="How2Bboss's Pattern04"
				Note Time="0" Value="F#0" Duration="11" Instrument="Evil 1"
				Note Time="11" Value="G0" Duration="319" Release="176" Instrument="Evil 1" Attack="False"
			PatternInstance Time="0" Pattern="How2Bboss's Pattern01"
			PatternInstance Time="1" Pattern="How2Bboss's Pattern02"
			PatternInstance Time="2" Pattern="How2Bboss's Pattern03"
			PatternInstance Time="4" Pattern="How2Bboss's Pattern01"
			PatternInstance Time="5" Pattern="How2Bboss's Pattern02"
			PatternInstance Time="6" Pattern="How2Bboss's Pattern03"
			PatternInstance Time="8" Pattern="How2Bboss's Pattern01"
			PatternInstance Time="9" Pattern="How2Bboss's Pattern02"
			PatternInstance Time="10" Pattern="How2Bboss's Pattern03"
			PatternInstance Time="12" Pattern="How2Bboss's Pattern01"
			PatternInstance Time="13" Pattern="How2Bboss's Pattern02"
			PatternInstance Time="14" Pattern="How2Bboss's Pattern03"
			PatternInstance Time="16" Pattern="How2Bboss's Pattern01"
			PatternInstance Time="17" Pattern="How2Bboss's Pattern02"
			PatternInstance Time="18" Pattern="How2Bboss's Pattern03"
			PatternInstance Time="20" Pattern="How2Bboss's Pattern01"
			PatternInstance Time="21" Pattern="How2Bboss's Pattern02"
			PatternInstance Time="22" Pattern="How2Bboss's Pattern03"
			PatternInstance Time="24" Pattern="How2Bboss's Pattern01"
			PatternInstance Time="25" Pattern="How2Bboss's Pattern02"
			PatternInstance Time="26" Pattern="How2Bboss's Pattern10"
			PatternInstance Time="31" Pattern="How2Bboss's Pattern04"
		Channel Type="EPSMFM2"
			Pattern Name="How2Bboss's Pattern01"
				Note Time="0" Value="C0" Duration="252" Instrument="Bell R"
			Pattern Name="How2Bboss's Pattern02"
				Note Time="0" Value="A1" Duration="234" Instrument="Evil R"
			Pattern Name="How2Bboss's Pattern05"
				Note Time="108" Value="A1" Duration="9" Instrument="Evil R" SlideTarget="G1" Attack="False"
				Note Time="117" Value="G1" Duration="9" Instrument="Evil R" SlideTarget="D#1" Attack="False"
			Pattern Name="How2Bboss's Pattern04"
				Note Time="0" Value="D#1" Duration="252" Release="249" Instrument="Evil R" Attack="False"
			PatternInstance Time="0" Pattern="How2Bboss's Pattern01"
			PatternInstance Time="4" Pattern="How2Bboss's Pattern01"
			PatternInstance Time="8" Pattern="How2Bboss's Pattern01"
			PatternInstance Time="12" Pattern="How2Bboss's Pattern02"
			PatternInstance Time="13" Pattern="How2Bboss's Pattern05"
			PatternInstance Time="14" Pattern="How2Bboss's Pattern04"
			PatternInstance Time="16" Pattern="How2Bboss's Pattern02"
			PatternInstance Time="17" Pattern="How2Bboss's Pattern05"
			PatternInstance Time="18" Pattern="How2Bboss's Pattern04"
			PatternInstance Time="20" Pattern="How2Bboss's Pattern02"
			PatternInstance Time="21" Pattern="How2Bboss's Pattern05"
			PatternInstance Time="22" Pattern="How2Bboss's Pattern04"
			PatternInstance Time="24" Pattern="How2Bboss's Pattern02"
			PatternInstance Time="25" Pattern="How2Bboss's Pattern05"
			PatternInstance Time="26" Pattern="How2Bboss's Pattern04"
		Channel Type="EPSMFM3"
			Pattern Name="How2Bboss's Pattern01"
				Note Time="0" Value="C0" Duration="252" Instrument="Bell L"
			Pattern Name="How2Bboss's Pattern07"
				Note Time="0" Value="D#2" Duration="27" Release="13" Instrument="Soft Saw Bass"
				Note Time="27" Value="D#2" Duration="27" Release="13" Instrument="Soft Saw Bass"
				Note Time="54" Value="D#2" Duration="27" Release="13" Instrument="Soft Saw Bass"
				Note Time="81" Value="D#2" Duration="27" Release="13" Instrument="Soft Saw Bass"
				Note Time="108" Value="D#2" Duration="27" Release="13" Instrument="Soft Saw Bass"
			Pattern Name="How2Bboss's Pattern08"
				Note Time="9" Value="D#2" Duration="27" Release="13" Instrument="Soft Saw Bass"
				Note Time="36" Value="D#2" Duration="27" Release="13" Instrument="Soft Saw Bass"
				Note Time="63" Value="D#2" Duration="9" Instrument="Soft Saw Bass"
				Note Time="72" Value="D#2" Duration="18" Release="9" Instrument="Soft Saw Bass"
				Note Time="90" Value="D#2" Duration="18" Release="9" Instrument="Soft Saw Bass"
				Note Time="108" Value="D#2" Duration="18" Release="9" Instrument="Soft Saw Bass"
			Pattern Name="How2Bboss's Pattern02"
				Note Time="0" Value="A1" Duration="234" Instrument="Evil L"
			Pattern Name="How2Bboss's Pattern05"
				Note Time="108" Value="A1" Duration="9" Instrument="Evil L" SlideTarget="G1" Attack="False"
				Note Time="117" Value="G1" Duration="9" Instrument="Evil L" SlideTarget="D#1" Attack="False"
			Pattern Name="How2Bboss's Pattern04"
				Note Time="0" Value="D#1" Duration="252" Release="249" Instrument="Evil L" Attack="False"
			Pattern Name="How2Bboss's Pattern03"
				Note Time="0" Value="G1" Duration="330" Release="220" Instrument="Screech"
			PatternInstance Time="0" Pattern="How2Bboss's Pattern01"
			PatternInstance Time="2" Pattern="How2Bboss's Pattern07"
			PatternInstance Time="3" Pattern="How2Bboss's Pattern08"
			PatternInstance Time="4" Pattern="How2Bboss's Pattern01"
			PatternInstance Time="6" Pattern="How2Bboss's Pattern07"
			PatternInstance Time="7" Pattern="How2Bboss's Pattern08"
			PatternInstance Time="8" Pattern="How2Bboss's Pattern01"
			PatternInstance Time="10" Pattern="How2Bboss's Pattern07"
			PatternInstance Time="11" Pattern="How2Bboss's Pattern08"
			PatternInstance Time="12" Pattern="How2Bboss's Pattern02"
			PatternInstance Time="13" Pattern="How2Bboss's Pattern05"
			PatternInstance Time="14" Pattern="How2Bboss's Pattern04"
			PatternInstance Time="16" Pattern="How2Bboss's Pattern02"
			PatternInstance Time="17" Pattern="How2Bboss's Pattern05"
			PatternInstance Time="18" Pattern="How2Bboss's Pattern04"
			PatternInstance Time="20" Pattern="How2Bboss's Pattern02"
			PatternInstance Time="21" Pattern="How2Bboss's Pattern05"
			PatternInstance Time="22" Pattern="How2Bboss's Pattern04"
			PatternInstance Time="24" Pattern="How2Bboss's Pattern02"
			PatternInstance Time="25" Pattern="How2Bboss's Pattern05"
			PatternInstance Time="26" Pattern="How2Bboss's Pattern04"
			PatternInstance Time="31" Pattern="How2Bboss's Pattern03"
	Song Name="Dangerous Citty" Length="36" LoopPoint="8" PatternLength="14" BeatLength="4" NoteLength="7" Groove="7" GroovePaddingMode="Middle"
		PatternCustomSettings Time="7" Length="20" NoteLength="7" Groove="7" GroovePaddingMode="Middle" BeatLength="4"
		Channel Type="Square1"
			Pattern Name="How2Bboss's Pattern01"
				Note Time="0" Value="F#1" Duration="3" Instrument="Pluck 3"
				Note Time="7" Value="F#1" Duration="3" Instrument="Pluck 3"
				Note Time="14" Value="F#1" Duration="7" Instrument="Pluck 3"
				Note Time="28" Value="F#1" Duration="7" Instrument="Pluck 3"
				Note Time="42" Value="F#1" Duration="3" Instrument="Pluck 3"
				Note Time="49" Value="F#1" Duration="3" Instrument="Pluck 3"
				Note Time="56" Value="F#1" Duration="7" Instrument="Pluck 3"
				Note Time="70" Value="F#1" Duration="3" Instrument="Pluck 3"
				Note Time="77" Value="F#1" Duration="3" Instrument="Pluck 3"
				Note Time="84" Value="F#1" Duration="7" Instrument="Pluck 3"
			Pattern Name="How2Bboss's Pattern02"
				Note Time="0" Value="G1" Duration="3" Instrument="Pluck 3"
				Note Time="7" Value="G1" Duration="3" Instrument="Pluck 3"
				Note Time="14" Value="G1" Duration="7" Instrument="Pluck 3"
				Note Time="28" Value="G1" Duration="7" Instrument="Pluck 3"
				Note Time="42" Value="G1" Duration="3" Instrument="Pluck 3"
				Note Time="49" Value="G1" Duration="3" Instrument="Pluck 3"
				Note Time="56" Value="F1" Duration="3" Instrument="Pluck 3"
				Note Time="63" Value="F1" Duration="3" Instrument="Pluck 3"
				Note Time="70" Value="F1" Duration="7" Instrument="Pluck 3"
				Note Time="84" Value="F1" Duration="3" Instrument="Pluck 3"
				Note Time="91" Value="F1" Duration="3" Instrument="Pluck 3"
			Pattern Name="How2Bboss's Pattern03"
				Note Time="7" Value="B2" Duration="7" Instrument="Arpy 3"
				Note Time="14" Value="B0" Duration="7" Instrument="Pluck 3"
				Note Time="21" Value="B0" Duration="7" Instrument="Pluck 3"
				Note Time="28" Value="B2" Duration="7" Instrument="Arpy 3"
				Note Time="35" Value="B0" Duration="7" Instrument="Pluck 3"
				Note Time="42" Value="B0" Duration="4" Instrument="Pluck 3"
				Note Time="49" Value="B0" Duration="3" Instrument="Pluck 3"
				Note Time="56" Value="B2" Duration="4" Instrument="Arpy 3"
				Note Time="63" Value="B2" Duration="3" Instrument="Arpy 3"
				Note Time="70" Value="B2" Duration="10" Instrument="Arpy 3"
				Note Time="80" Value="B1" Duration="4" Instrument="Pluck 3"
				Note Time="84" Value="B2" Duration="10" Instrument="Arpy 3"
				Note Time="94" Value="B0" Duration="4" Instrument="Pluck 3"
			Pattern Name="How2Bboss's Pattern04"
				Note Time="0" Value="C1" Duration="7" Instrument="Pluck 3"
				Note Time="7" Value="C3" Duration="7" Instrument="Arpy 3"
				Note Time="14" Value="C1" Duration="7" Instrument="Pluck 3"
				Note Time="21" Value="C1" Duration="7" Instrument="Pluck 3"
				Note Time="28" Value="C3" Duration="7" Instrument="Arpy 3"
				Note Time="35" Value="C1" Duration="7" Instrument="Pluck 3"
				Note Time="42" Value="C1" Duration="4" Instrument="Pluck 3"
				Note Time="49" Value="C1" Duration="3" Instrument="Pluck 3"
				Note Time="56" Value="A0" Duration="7" Instrument="Pluck 3"
				Note Time="63" Value="A2" Duration="14" Instrument="Arpy 3"
				Note Time="77" Value="A3" Duration="21" Instrument="Arpy 3"
			Pattern Name="How2Bboss's Pattern05"
				Note Time="0" Value="F#3" Duration="21" Instrument="Arpy 1"
				Note Time="21" Value="B0" Duration="7" Instrument="Pluck 3"
				Note Time="28" Value="F#3" Duration="7" Instrument="Arpy 1"
				Note Time="35" Value="B0" Duration="7" Instrument="Pluck 3"
				Note Time="42" Value="B1" Duration="4" Instrument="Pluck 3"
				Note Time="49" Value="B2" Duration="3" Instrument="Pluck 3"
				Note Time="56" Value="B2" Duration="4" Instrument="Pluck 3"
				Note Time="63" Value="B1" Duration="3" Instrument="Pluck 3"
				Note Time="70" Value="F#3" Duration="14" Instrument="Arpy 1"
				Note Time="84" Value="F#3" Duration="14" Instrument="Arpy 1"
			Pattern Name="How2Bboss's Pattern06"
				Note Time="0" Value="G3" Duration="14" Instrument="Arpy 1"
				Note Time="14" Value="C1" Duration="7" Instrument="Pluck 3"
				Note Time="21" Value="C4" Duration="14" Instrument="Arpy 3"
				Note Time="35" Value="C3" Duration="7" Instrument="Pluck 3"
				Note Time="42" Value="D#3" Duration="7" Instrument="Pluck 3"
				Note Time="49" Value="A1" Duration="7" Instrument="Pluck 3"
				Note Time="63" Value="A1" Duration="7" Instrument="Pluck 3"
				Note Time="70" Value="A2" Duration="7" Instrument="Pluck 3"
				Note Time="77" Value="C3" Duration="7" Instrument="Pluck 3"
				Note Time="84" Value="E3" Duration="7" Instrument="Pluck 3"
				Note Time="91" Value="A3" Duration="7" Instrument="Pluck 3"
			Pattern Name="How2Bboss's Pattern07"
				Note Time="0" Value="F#3" Duration="7" Instrument="Pluck 3"
				Note Time="7" Value="B2" Duration="7" Instrument="Arpy 3"
				Note Time="14" Value="B0" Duration="7" Instrument="Pluck 3"
				Note Time="21" Value="B0" Duration="7" Instrument="Pluck 3"
				Note Time="28" Value="B2" Duration="7" Instrument="Arpy 3"
				Note Time="35" Value="B0" Duration="7" Instrument="Pluck 3"
				Note Time="42" Value="B0" Duration="4" Instrument="Pluck 3"
				Note Time="49" Value="B0" Duration="3" Instrument="Pluck 3"
				Note Time="56" Value="B2" Duration="4" Instrument="Arpy 3"
				Note Time="63" Value="B2" Duration="3" Instrument="Arpy 3"
				Note Time="70" Value="B2" Duration="10" Instrument="Arpy 3"
				Note Time="80" Value="B1" Duration="4" Instrument="Pluck 3"
				Note Time="84" Value="B2" Duration="10" Instrument="Arpy 3"
				Note Time="94" Value="B0" Duration="4" Instrument="Pluck 3"
			Pattern Name="How2Bboss's Pattern09"
				Note Time="0" Value="F#3" Duration="21" Instrument="Arpy 1"
				Note Time="21" Value="B0" Duration="7" Instrument="Pluck 3"
				Note Time="28" Value="F#3" Duration="7" Instrument="Arpy 1"
				Note Time="35" Value="B0" Duration="7" Instrument="Pluck 3"
				Note Time="42" Value="B1" Duration="4" Instrument="Pluck 3"
				Note Time="49" Value="B2" Duration="3" Instrument="Pluck 3"
				Note Time="56" Value="B3" Duration="4" Instrument="Pluck 3"
				Note Time="63" Value="B3" Duration="3" Instrument="Pluck 3"
				Note Time="70" Value="F#3" Duration="14" Instrument="Arpy 1"
				Note Time="84" Value="F#3" Duration="14" Instrument="Arpy 1"
			Pattern Name="How2Bboss's Pattern10"
				Note Time="0" Value="G3" Duration="14" Instrument="Arpy 1"
				Note Time="14" Value="C1" Duration="7" Instrument="Pluck 3"
				Note Time="21" Value="C4" Duration="14" Instrument="Arpy 3"
				Note Time="35" Value="C3" Duration="7" Instrument="D3"
				Note Time="42" Value="D#3" Duration="7" Instrument="D3"
				Note Time="49" Value="A1" Duration="7" Instrument="D3"
				Note Time="63" Value="A1" Duration="7" Instrument="Pluck 3"
				Note Time="70" Value="A2" Duration="7" Instrument="D3"
				Note Time="77" Value="C3" Duration="7" Instrument="D1"
				Note Time="84" Value="E3" Duration="7" Instrument="D1"
				Note Time="91" Value="A3" Duration="7" Instrument="D2"
			Pattern Name="How2Bboss's Pattern11"
				Note Time="0" Value="B3" Duration="7" Instrument="D2"
				Note Time="7" Value="B3" Duration="7" Instrument="Arpy 3"
				Note Time="14" Value="F#3" Duration="7" Instrument="D2"
				Note Time="21" Value="F3" Duration="7" Instrument="D2"
				Note Time="28" Value="F#3" Duration="7" Instrument="D2"
				Note Time="35" Value="B2" Duration="7" Instrument="D2"
				Note Time="42" Value="D3" Duration="7" Instrument="D2"
				Note Time="49" Value="B2" Duration="7" Instrument="D2"
				Note Time="56" Value="F#2" Duration="7" Instrument="D2"
				Note Time="63" Value="B1" Duration="7" Instrument="D2"
				Note Time="70" Value="D3" Duration="14" Instrument="D2"
				Note Time="84" Value="C#3" Duration="14" Instrument="D2"
			Pattern Name="How2Bboss's Pattern12"
				Note Time="0" Value="C3" Duration="7" Instrument="D2"
				Note Time="7" Value="G2" Duration="7" Instrument="D3"
				Note Time="14" Value="C3" Duration="4" Instrument="D2"
				Note Time="21" Value="C3" Duration="3" Instrument="D2"
				Note Time="28" Value="G2" Duration="7" Instrument="D3"
				Note Time="35" Value="B2" Duration="7" Instrument="D2"
				Note Time="42" Value="C3" Duration="7" Instrument="D2"
				Note Time="49" Value="C2" Duration="7" Instrument="D3"
				Note Time="56" Value="B2" Duration="7" Instrument="D2"
				Note Time="63" Value="C3" Duration="7" Instrument="D2"
				Note Time="70" Value="A2" Duration="7" Instrument="D3"
				Note Time="77" Value="B2" Duration="7" Instrument="D2"
				Note Time="84" Value="B3" Duration="4" Instrument="D3"
				Note Time="91" Value="B3" Duration="2" Instrument="D3"
				Note Time="94" Value="B3" Duration="2" Instrument="D3"
			Pattern Name="How2Bboss's Pattern13"
				Note Time="7" Value="B3" Duration="3" Instrument="D1"
				Note Time="14" Value="B3" Duration="7" Instrument="D3"
				Note Time="21" Value="B3" Duration="3" Instrument="D3"
				Note Time="28" Value="B2" Duration="14" Instrument="D1"
				Note Time="42" Value="A#2" Duration="7" Instrument="D1"
				Note Time="49" Value="B2" Duration="7" Instrument="D1"
				Note Time="56" Value="B1" Duration="7" Instrument="D1"
				Note Time="63" Value="B1" Duration="3" Instrument="D1"
				Note Time="70" Value="B1" Duration="4" Instrument="D1"
				Note Time="77" Value="B2" Duration="3" Instrument="D1"
				Note Time="84" Value="B2" Duration="4" Instrument="D1"
				Note Time="91" Value="B2" Duration="7" Instrument="D1"
			Pattern Name="How2Bboss's Pattern14"
				Note Time="0" Value="F#3" Duration="4" Instrument="Arpy 1"
				Note Time="4" Value="G3" Duration="17" Instrument="Arpy 1" Attack="False"
				Note Time="21" Value="C4" Duration="14" Instrument="Arpy 3"
				Note Time="35" Value="C3" Duration="7" Instrument="Pluck 3"
				Note Time="42" Value="D#3" Duration="7" Instrument="Pluck 3"
				Note Time="49" Value="A1" Duration="7" Instrument="Pluck 3"
				Note Time="63" Value="A1" Duration="7" Instrument="Pluck 3"
				Note Time="70" Value="A2" Duration="7" Instrument="Pluck 3"
				Note Time="77" Value="C3" Duration="7" Instrument="Pluck 3"
				Note Time="84" Value="E3" Duration="7" Instrument="Pluck 3"
				Note Time="91" Value="A3" Duration="7" Instrument="Pluck 3"
			Pattern Name="How2Bboss's Pattern19"
				Note Time="0" Value="F#3" Duration="7" Instrument="D2"
				Note Time="7" Value="B3" Duration="7" Instrument="Arpy 3"
				Note Time="14" Value="B3" Duration="7" Instrument="D2"
				Note Time="21" Value="D3" Duration="7" Instrument="D2"
				Note Time="28" Value="F#3" Duration="7" Instrument="D2"
				Note Time="35" Value="G3" Duration="7" Instrument="D2"
				Note Time="42" Value="B2" Duration="7" Instrument="D2"
				Note Time="49" Value="F#2" Duration="7" Instrument="D2"
				Note Time="56" Value="C#3" Duration="4" Instrument="D2"
				Note Time="63" Value="D3" Duration="4" Instrument="D2"
				Note Time="70" Value="D3" Duration="14" Instrument="D2"
				Note Time="84" Value="D3" Duration="7" Instrument="D2"
				Note Time="91" Value="C#3" Duration="7" Instrument="D2"
			Pattern Name="How2Bboss's Pattern20"
				Note Time="0" Value="G3" Duration="21" Instrument="Arpy 1"
				Note Time="21" Value="C4" Duration="14" Instrument="Arpy 3"
				Note Time="35" Value="C3" Duration="7" Instrument="Pluck 3"
				Note Time="42" Value="D#3" Duration="7" Instrument="Pluck 3"
				Note Time="49" Value="A1" Duration="7" Instrument="Pluck 3"
				Note Time="63" Value="A1" Duration="7" Instrument="Pluck 3"
				Note Time="70" Value="A2" Duration="7" Instrument="Pluck 3"
				Note Time="77" Value="C3" Duration="7" Instrument="Pluck 3"
				Note Time="84" Value="E3" Duration="7" Instrument="Pluck 3"
				Note Time="91" Value="A3" Duration="7" Instrument="Pluck 3"
			Pattern Name="How2Bboss's Pattern08"
				Note Time="0" Value="F#1" Duration="3" Instrument="Pluck 3"
				Note Time="7" Value="F#1" Duration="3" Instrument="Pluck 3"
				Note Time="14" Value="F#1" Duration="7" Instrument="Pluck 3"
				Note Time="28" Value="F#1" Duration="7" Instrument="Pluck 3"
				Note Time="42" Value="F#1" Duration="3" Instrument="Pluck 3"
				Note Time="49" Value="F#1" Duration="3" Instrument="Pluck 3"
				Note Time="56" Value="F#1" Duration="7" Instrument="Pluck 3"
				Note Time="70" Value="F#1" Duration="3" Instrument="Pluck 3"
				Note Time="77" Value="F#1" Duration="3" Instrument="Pluck 3"
				Note Time="84" Value="F#1" Duration="7" Instrument="Pluck 3"
			Pattern Name="How2Bboss's Pattern15"
				Note Time="0" Value="G1" Duration="3" Instrument="Pluck 3"
				Note Time="7" Value="G1" Duration="3" Instrument="Pluck 3"
				Note Time="14" Value="G1" Duration="7" Instrument="Pluck 3"
				Note Time="28" Value="G1" Duration="7" Instrument="Pluck 3"
				Note Time="42" Value="G1" Duration="3" Instrument="Pluck 3"
				Note Time="49" Value="G1" Duration="3" Instrument="Pluck 3"
				Note Time="56" Value="E1" Duration="3" Instrument="Pluck 3"
				Note Time="63" Value="E1" Duration="3" Instrument="Pluck 3"
				Note Time="70" Value="E1" Duration="7" Instrument="Pluck 3"
				Note Time="84" Value="E1" Duration="3" Instrument="Pluck 3"
				Note Time="91" Value="E1" Duration="3" Instrument="Pluck 3"
			Pattern Name="How2Bboss's Pattern16"
				Note Time="0" Value="D#4" Duration="4" Instrument="Pluck 1"
				Note Time="4" Value="E4" Duration="52" Release="38" Instrument="Pluck 1"
				Note Time="56" Value="B3" Duration="7" Instrument="Pluck 1"
				Note Time="63" Value="A3" Duration="11" Release="7" Instrument="Pluck 1"
				Note Time="77" Value="B3" Duration="11" Release="7" Instrument="Pluck 1"
				Note Time="91" Value="A3" Duration="7" Instrument="Pluck 1"
			Pattern Name="How2Bboss's Pattern17"
				Note Time="7" Value="C4" Duration="28" Instrument="Pluck 1"
				Note Time="42" Value="C4" Duration="7" Instrument="Pluck 1"
				Note Time="49" Value="B3" Duration="7" Instrument="Pluck 1"
				Note Time="56" Value="A3" Duration="21" Instrument="Pluck 1"
				Note Time="77" Value="C#3" Duration="21" Instrument="Pluck 1"
			Pattern Name="How2Bboss's Pattern18"
				Note Time="0" Value="D3" Duration="49" Instrument="Pluck 1"
				Note Time="63" Value="D3" Duration="3" Instrument="Pluck 1"
				Note Time="70" Value="D3" Duration="7" Instrument="Pluck 1"
				Note Time="84" Value="D4" Duration="4" Instrument="Pluck 1"
				Note Time="91" Value="D4" Duration="3" Instrument="Pluck 1"
			Pattern Name="How2Bboss's Pattern21"
				Note Time="0" Value="C4" Duration="28" Instrument="Pluck 1"
				Note Time="21" Value="G3" Duration="21" Instrument="Pluck 1"
				Note Time="42" Value="A3" Duration="21" Instrument="Pluck 1"
				Note Time="63" Value="C4" Duration="21" Instrument="Pluck 1"
				Note Time="84" Value="A3" Duration="14" Instrument="Pluck 1"
			Pattern Name="How2Bboss's Pattern24"
				Note Time="0" Value="A#3" Duration="4" Instrument="Pluck 1"
				Note Time="4" Value="B3" Duration="52" Release="38" Instrument="Pluck 1"
				Note Time="56" Value="F#3" Duration="7" Instrument="Pluck 1"
				Note Time="63" Value="G3" Duration="11" Release="7" Instrument="Pluck 1"
				Note Time="77" Value="B3" Duration="11" Release="7" Instrument="Pluck 1"
				Note Time="91" Value="G3" Duration="7" Instrument="Pluck 1"
			Pattern Name="How2Bboss's Pattern25"
				Note Time="0" Value="A3" Duration="21" Instrument="Pluck 1"
				Note Time="21" Value="C4" Duration="21" Instrument="Pluck 1"
				Note Time="42" Value="A3" Duration="14" Instrument="Pluck 1"
				Note Time="56" Value="A2" Duration="7" Instrument="Pluck 1"
				Note Time="63" Value="C3" Duration="7" Instrument="Pluck 1"
				Note Time="77" Value="C4" Duration="7" Instrument="Pluck 1"
				Note Time="91" Value="A3" Duration="7" Instrument="Pluck 1"
			Pattern Name="How2Bboss's Pattern26"
				Note Time="0" Value="B3" Duration="49" Instrument="Pluck 1"
				Note Time="63" Value="D3" Duration="3" Instrument="Pluck 1"
				Note Time="70" Value="D3" Duration="7" Instrument="Pluck 1"
				Note Time="84" Value="D4" Duration="4" Instrument="Pluck 1"
				Note Time="91" Value="D4" Duration="3" Instrument="Pluck 1"
			Pattern Name="How2Bboss's Pattern27"
				Note Time="0" Value="C4" Duration="28" Instrument="Pluck 1"
				Note Time="21" Value="G3" Duration="21" Instrument="Pluck 1"
				Note Time="42" Value="A3" Duration="21" Instrument="Pluck 1"
				Note Time="56" Value="A2" Duration="8" Instrument="Pluck 1"
				Note Time="63" Value="B2" Duration="7" Instrument="Pluck 1"
				Note Time="70" Value="A3" Duration="4" Instrument="Pluck 1"
				Note Time="77" Value="A2" Duration="8" Instrument="Pluck 1"
				Note Time="84" Value="B2" Duration="7" Instrument="Pluck 1"
				Note Time="91" Value="A3" Duration="3" Instrument="Pluck 1"
			PatternInstance Time="2" Pattern="How2Bboss's Pattern01"
			PatternInstance Time="3" Pattern="How2Bboss's Pattern02"
			PatternInstance Time="6" Pattern="How2Bboss's Pattern01"
			PatternInstance Time="7" Pattern="How2Bboss's Pattern02"
			PatternInstance Time="8" Pattern="How2Bboss's Pattern03"
			PatternInstance Time="9" Pattern="How2Bboss's Pattern04"
			PatternInstance Time="10" Pattern="How2Bboss's Pattern05"
			PatternInstance Time="11" Pattern="How2Bboss's Pattern06"
			PatternInstance Time="12" Pattern="How2Bboss's Pattern07"
			PatternInstance Time="13" Pattern="How2Bboss's Pattern04"
			PatternInstance Time="14" Pattern="How2Bboss's Pattern09"
			PatternInstance Time="15" Pattern="How2Bboss's Pattern10"
			PatternInstance Time="16" Pattern="How2Bboss's Pattern11"
			PatternInstance Time="17" Pattern="How2Bboss's Pattern12"
			PatternInstance Time="18" Pattern="How2Bboss's Pattern13"
			PatternInstance Time="19" Pattern="How2Bboss's Pattern14"
			PatternInstance Time="20" Pattern="How2Bboss's Pattern19"
			PatternInstance Time="21" Pattern="How2Bboss's Pattern12"
			PatternInstance Time="22" Pattern="How2Bboss's Pattern13"
			PatternInstance Time="23" Pattern="How2Bboss's Pattern20"
			PatternInstance Time="26" Pattern="How2Bboss's Pattern08"
			PatternInstance Time="27" Pattern="How2Bboss's Pattern15"
			PatternInstance Time="28" Pattern="How2Bboss's Pattern16"
			PatternInstance Time="29" Pattern="How2Bboss's Pattern17"
			PatternInstance Time="30" Pattern="How2Bboss's Pattern18"
			PatternInstance Time="31" Pattern="How2Bboss's Pattern21"
			PatternInstance Time="32" Pattern="How2Bboss's Pattern24"
			PatternInstance Time="33" Pattern="How2Bboss's Pattern25"
			PatternInstance Time="34" Pattern="How2Bboss's Pattern26"
			PatternInstance Time="35" Pattern="How2Bboss's Pattern27"
		Channel Type="Square2"
			Pattern Name="How2Bboss's Pattern01"
				Note Time="0" Value="B0" Duration="3" Instrument="Pluck 3" FinePitch="-1"
				Note Time="7" Value="B0" Duration="3" Instrument="Pluck 3"
				Note Time="14" Value="B0" Duration="7" Instrument="Pluck 3"
				Note Time="28" Value="B0" Duration="7" Instrument="Pluck 3"
				Note Time="42" Value="B0" Duration="3" Instrument="Pluck 3"
				Note Time="49" Value="B0" Duration="3" Instrument="Pluck 3"
				Note Time="56" Value="B0" Duration="7" Instrument="Pluck 3"
				Note Time="70" Value="B0" Duration="3" Instrument="Pluck 3"
				Note Time="77" Value="B0" Duration="3" Instrument="Pluck 3"
				Note Time="84" Value="B0" Duration="7" Instrument="Pluck 3"
			Pattern Name="How2Bboss's Pattern02"
				Note Time="0" Value="C1" Duration="3" Instrument="Pluck 3"
				Note Time="7" Value="C1" Duration="3" Instrument="Pluck 3"
				Note Time="14" Value="C1" Duration="7" Instrument="Pluck 3"
				Note Time="28" Value="C1" Duration="7" Instrument="Pluck 3"
				Note Time="42" Value="C1" Duration="3" Instrument="Pluck 3"
				Note Time="49" Value="C1" Duration="3" Instrument="Pluck 3"
				Note Time="56" Value="A#0" Duration="3" Instrument="Pluck 3"
				Note Time="63" Value="A#0" Duration="3" Instrument="Pluck 3"
				Note Time="70" Value="A#0" Duration="7" Instrument="Pluck 3"
				Note Time="84" Value="A#0" Duration="3" Instrument="Pluck 3"
				Note Time="91" Value="A#0" Duration="3" Instrument="Pluck 3"
			Pattern Name="How2Bboss's Pattern03"
				Note Time="0" Value="B0" Duration="7" Instrument="D1"
				Note Time="7" Value="B1" Duration="7" Instrument="D2"
				Note Time="14" Value="B0" Duration="7" Instrument="D2"
				Note Time="21" Value="B0" Duration="7" Instrument="D3"
				Note Time="28" Value="B1" Duration="7" Instrument="D2"
				Note Time="35" Value="B0" Duration="7" Instrument="D1"
				Note Time="42" Value="B0" Duration="4" Instrument="D1"
				Note Time="49" Value="B0" Duration="3" Instrument="D2"
				Note Time="56" Value="B0" Duration="7" Instrument="D2"
				Note Time="63" Value="B0" Duration="7" Instrument="D3"
				Note Time="70" Value="B1" Duration="4" Instrument="D3"
				Note Time="77" Value="B1" Duration="3" Instrument="D1"
				Note Time="84" Value="B0" Duration="7" Instrument="D1"
				Note Time="91" Value="B0" Duration="7" Instrument="D3"
			Pattern Name="How2Bboss's Pattern04"
				Note Time="0" Value="C1" Duration="7" Instrument="D1"
				Note Time="7" Value="C2" Duration="7" Instrument="D1"
				Note Time="14" Value="C1" Duration="7" Instrument="D1"
				Note Time="21" Value="C1" Duration="7" Instrument="D2"
				Note Time="28" Value="C2" Duration="7" Instrument="D2"
				Note Time="35" Value="C1" Duration="7" Instrument="D2"
				Note Time="42" Value="C1" Duration="4" Instrument="D1"
				Note Time="49" Value="C1" Duration="3" Instrument="D2"
				Note Time="56" Value="A0" Duration="7" Instrument="D2"
				Note Time="63" Value="A0" Duration="7" Instrument="D3"
				Note Time="70" Value="A1" Duration="4" Instrument="D3"
				Note Time="77" Value="A1" Duration="3" Instrument="D3"
				Note Time="84" Value="A0" Duration="7" Instrument="D2"
				Note Time="91" Value="A0" Duration="7" Instrument="D3"
			PatternInstance Time="0" Pattern="How2Bboss's Pattern01"
			PatternInstance Time="1" Pattern="How2Bboss's Pattern02"
			PatternInstance Time="2" Pattern="How2Bboss's Pattern01"
			PatternInstance Time="3" Pattern="How2Bboss's Pattern02"
			PatternInstance Time="4" Pattern="How2Bboss's Pattern01"
			PatternInstance Time="5" Pattern="How2Bboss's Pattern02"
			PatternInstance Time="6" Pattern="How2Bboss's Pattern01"
			PatternInstance Time="7" Pattern="How2Bboss's Pattern02"
			PatternInstance Time="8" Pattern="How2Bboss's Pattern03"
			PatternInstance Time="9" Pattern="How2Bboss's Pattern04"
			PatternInstance Time="10" Pattern="How2Bboss's Pattern03"
			PatternInstance Time="11" Pattern="How2Bboss's Pattern04"
			PatternInstance Time="12" Pattern="How2Bboss's Pattern03"
			PatternInstance Time="13" Pattern="How2Bboss's Pattern04"
			PatternInstance Time="14" Pattern="How2Bboss's Pattern03"
			PatternInstance Time="15" Pattern="How2Bboss's Pattern04"
			PatternInstance Time="16" Pattern="How2Bboss's Pattern03"
			PatternInstance Time="17" Pattern="How2Bboss's Pattern04"
			PatternInstance Time="18" Pattern="How2Bboss's Pattern03"
			PatternInstance Time="19" Pattern="How2Bboss's Pattern04"
			PatternInstance Time="20" Pattern="How2Bboss's Pattern03"
			PatternInstance Time="21" Pattern="How2Bboss's Pattern04"
			PatternInstance Time="22" Pattern="How2Bboss's Pattern03"
			PatternInstance Time="23" Pattern="How2Bboss's Pattern04"
			PatternInstance Time="24" Pattern="How2Bboss's Pattern03"
			PatternInstance Time="25" Pattern="How2Bboss's Pattern04"
			PatternInstance Time="26" Pattern="How2Bboss's Pattern03"
			PatternInstance Time="27" Pattern="How2Bboss's Pattern04"
			PatternInstance Time="28" Pattern="How2Bboss's Pattern03"
			PatternInstance Time="29" Pattern="How2Bboss's Pattern04"
			PatternInstance Time="30" Pattern="How2Bboss's Pattern03"
			PatternInstance Time="31" Pattern="How2Bboss's Pattern04"
			PatternInstance Time="32" Pattern="How2Bboss's Pattern03"
			PatternInstance Time="33" Pattern="How2Bboss's Pattern04"
			PatternInstance Time="34" Pattern="How2Bboss's Pattern03"
			PatternInstance Time="35" Pattern="How2Bboss's Pattern04"
		Channel Type="Triangle"
			Pattern Name="How2Bboss's Pattern02"
				Note Time="84" Value="B0" Duration="14" Instrument="Tri Bass 1" SlideTarget="B1"
			Pattern Name="How2Bboss's Pattern01"
				Note Time="0" Value="B1" Duration="98" Instrument="Tri Bass 1"
			Pattern Name="How2Bboss's Pattern03"
				Note Time="0" Value="C2" Duration="56" Instrument="Tri Bass 1"
				Note Time="56" Value="A#1" Duration="42" Instrument="Tri Bass 1"
			Pattern Name="How2Bboss's Pattern04"
				Note Time="0" Value="B0" Duration="28" Instrument="Tri Bass 1"
				Note Time="28" Value="B1" Duration="70" Instrument="Tri Bass 1"
			Pattern Name="How2Bboss's Pattern05"
				Note Time="0" Value="C2" Duration="56" Instrument="Tri Bass 1"
				Note Time="56" Value="A#1" Duration="14" Instrument="Tri Bass 1"
				Note Time="70" Value="A#2" Duration="7" Instrument="Tri Bass 1"
				Note Time="84" Value="A#3" Duration="7" Instrument="Tri Bass 1"
				Note Time="91" Value="A#3" Duration="7" Instrument="Tri Bass 1"
				Note Time="105" Value="B4" Duration="3" Instrument="Tri Bass 2"
				Note Time="108" Value="B4" Duration="4" Instrument="Tri Bass 2"
				Note Time="112" Value="B4" Duration="7" Instrument="Tri Bass 2"
				Note Time="119" Value="B4" Duration="7" Instrument="Tri Bass 2"
				Note Time="126" Value="F#4" Duration="7" Instrument="Tri Bass 2"
				Note Time="133" Value="C#4" Duration="7" Instrument="Tri Bass 2"
			Pattern Name="How2Bboss's Pattern06"
				Note Time="0" Value="B2" Duration="14" Instrument="Tri Bass 2" SlideTarget="C#2"
				Note Time="28" Value="F4" Duration="4" Instrument="Tri Bass 2"
				Note Time="56" Value="B2" Duration="7" Instrument="Tri Bass 2" SlideTarget="C#2"
				Note Time="63" Value="F4" Duration="4" Instrument="Tri Bass 2"
				Note Time="70" Value="B2" Duration="7" Instrument="Tri Bass 2" SlideTarget="C#2"
				Note Time="84" Value="F4" Duration="3" Instrument="Tri Bass 2"
			Pattern Name="How2Bboss's Pattern07"
				Note Time="0" Value="B2" Duration="7" Instrument="Tri Bass 2" SlideTarget="C#2"
				Note Time="28" Value="F4" Duration="4" Instrument="Tri Bass 2"
				Note Time="42" Value="F4" Duration="4" Instrument="Tri Bass 2"
				Note Time="49" Value="B2" Duration="7" Instrument="Tri Bass 2" SlideTarget="C#2"
				Note Time="56" Value="B2" Duration="7" Instrument="Tri Bass 2" SlideTarget="C#2"
				Note Time="63" Value="F4" Duration="4" Instrument="Tri Bass 2"
				Note Time="70" Value="B2" Duration="7" Instrument="Tri Bass 2" SlideTarget="C#2"
				Note Time="77" Value="B2" Duration="7" Instrument="Tri Bass 2" SlideTarget="C#2"
				Note Time="84" Value="F4" Duration="4" Instrument="Tri Bass 2"
				Note Time="91" Value="F4" Duration="4" Instrument="Tri Bass 2"
			PatternInstance Time="3" Pattern="How2Bboss's Pattern02"
			PatternInstance Time="4" Pattern="How2Bboss's Pattern01"
			PatternInstance Time="5" Pattern="How2Bboss's Pattern03"
			PatternInstance Time="6" Pattern="How2Bboss's Pattern04"
			PatternInstance Time="7" Pattern="How2Bboss's Pattern05"
			PatternInstance Time="8" Pattern="How2Bboss's Pattern06"
			PatternInstance Time="9" Pattern="How2Bboss's Pattern06"
			PatternInstance Time="10" Pattern="How2Bboss's Pattern06"
			PatternInstance Time="11" Pattern="How2Bboss's Pattern07"
			PatternInstance Time="12" Pattern="How2Bboss's Pattern06"
			PatternInstance Time="13" Pattern="How2Bboss's Pattern06"
			PatternInstance Time="14" Pattern="How2Bboss's Pattern06"
			PatternInstance Time="15" Pattern="How2Bboss's Pattern07"
			PatternInstance Time="16" Pattern="How2Bboss's Pattern06"
			PatternInstance Time="17" Pattern="How2Bboss's Pattern06"
			PatternInstance Time="18" Pattern="How2Bboss's Pattern06"
			PatternInstance Time="19" Pattern="How2Bboss's Pattern07"
			PatternInstance Time="20" Pattern="How2Bboss's Pattern06"
			PatternInstance Time="21" Pattern="How2Bboss's Pattern06"
			PatternInstance Time="22" Pattern="How2Bboss's Pattern06"
			PatternInstance Time="23" Pattern="How2Bboss's Pattern07"
			PatternInstance Time="24" Pattern="How2Bboss's Pattern06"
			PatternInstance Time="25" Pattern="How2Bboss's Pattern06"
			PatternInstance Time="26" Pattern="How2Bboss's Pattern06"
			PatternInstance Time="27" Pattern="How2Bboss's Pattern07"
			PatternInstance Time="28" Pattern="How2Bboss's Pattern06"
			PatternInstance Time="29" Pattern="How2Bboss's Pattern06"
			PatternInstance Time="30" Pattern="How2Bboss's Pattern06"
			PatternInstance Time="31" Pattern="How2Bboss's Pattern07"
			PatternInstance Time="32" Pattern="How2Bboss's Pattern06"
			PatternInstance Time="33" Pattern="How2Bboss's Pattern06"
			PatternInstance Time="34" Pattern="How2Bboss's Pattern06"
			PatternInstance Time="35" Pattern="How2Bboss's Pattern07"
		Channel Type="Noise"
			Pattern Name="How2Bboss's Pattern01"
				Note Time="0" Value="D#5" Duration="4" Instrument="Hi Hat"
				Note Time="7" Value="C5" Duration="7" Instrument="Hi Hat 1"
				Note Time="14" Value="C5" Duration="7" Instrument="Hi Hat 1"
				Note Time="21" Value="C5" Duration="3" Instrument="Hi Hat 1"
				Note Time="24" Value="C5" Duration="4" Instrument="Hi Hat 1"
				Note Time="28" Value="G#4" Duration="7" Instrument="Hi Hat 4"
				Note Time="35" Value="C5" Duration="3" Instrument="Hi Hat 1"
				Note Time="42" Value="C5" Duration="4" Instrument="Hi Hat 1"
				Note Time="49" Value="C5" Duration="7" Instrument="Hi Hat 4"
				Note Time="56" Value="D#5" Duration="4" Instrument="Hi Hat"
				Note Time="63" Value="G#4" Duration="7" Instrument="Hi Hat 4"
				Note Time="70" Value="D#5" Duration="4" Instrument="Hi Hat"
				Note Time="77" Value="C5" Duration="3" Instrument="Hi Hat 1"
				Note Time="80" Value="C5" Duration="4" Instrument="Hi Hat 1"
				Note Time="84" Value="G#4" Duration="7" Instrument="Hi Hat 4"
				Note Time="91" Value="G#4" Duration="7" Instrument="Hi Hat 4"
			Pattern Name="How2Bboss's Pattern02"
				Note Time="0" Value="D#5" Duration="7" Instrument="Snare 1"
				Note Time="7" Value="C5" Duration="7" Instrument="Hi Hat 1"
				Note Time="14" Value="C#5" Duration="7" Instrument="Hi Hat 3"
				Note Time="21" Value="C5" Duration="3" Instrument="Hi Hat 1"
				Note Time="24" Value="C5" Duration="4" Instrument="Hi Hat 1"
				Note Time="28" Value="C5" Duration="7" Instrument="Snare Louder"
				Note Time="35" Value="C5" Duration="3" Instrument="Hi Hat 1"
				Note Time="42" Value="C5" Duration="4" Instrument="Hi Hat 1"
				Note Time="49" Value="C5" Duration="7" Instrument="Hi Hat 4"
				Note Time="56" Value="D#5" Duration="7" Instrument="Snare 1"
				Note Time="63" Value="C5" Duration="7" Instrument="Snare Louder"
				Note Time="70" Value="D#5" Duration="7" Instrument="Snare 1"
				Note Time="77" Value="C5" Duration="3" Instrument="Hi Hat 1"
				Note Time="80" Value="C5" Duration="4" Instrument="Hi Hat 1"
				Note Time="84" Value="C5" Duration="7" Instrument="Snare Louder"
				Note Time="91" Value="C5" Duration="3" Instrument="Hi Hat 1"
				Note Time="94" Value="C5" Duration="4" Instrument="Hi Hat 1"
			Pattern Name="How2Bboss's Pattern03"
				Note Time="0" Value="D#5" Duration="7" Instrument="Snare 1"
				Note Time="7" Value="C5" Duration="7" Instrument="Hi Hat 1"
				Note Time="14" Value="C#5" Duration="7" Instrument="Hi Hat 3"
				Note Time="21" Value="C5" Duration="3" Instrument="Hi Hat 1"
				Note Time="24" Value="C5" Duration="4" Instrument="Hi Hat 1"
				Note Time="28" Value="C5" Duration="7" Instrument="Snare Louder"
				Note Time="35" Value="C5" Duration="3" Instrument="Hi Hat 1"
				Note Time="42" Value="C5" Duration="4" Instrument="Hi Hat 1"
				Note Time="49" Value="C5" Duration="7" Instrument="Hi Hat 4"
				Note Time="56" Value="D#5" Duration="7" Instrument="Snare 1"
				Note Time="63" Value="C5" Duration="7" Instrument="Snare Louder"
				Note Time="70" Value="D#5" Duration="7" Instrument="Snare 1"
				Note Time="77" Value="C5" Duration="3" Instrument="Hi Hat 1"
				Note Time="80" Value="C5" Duration="4" Instrument="Hi Hat 1"
				Note Time="84" Value="C5" Duration="7" Instrument="Snare Louder"
				Note Time="91" Value="C5" Duration="3" Instrument="Hi Hat 1"
				Note Time="94" Value="C5" Duration="4" Instrument="Hi Hat 1"
				Note Time="105" Value="C5" Duration="4" Instrument="Snare Louder"
				Note Time="109" Value="C5" Duration="3" Instrument="Snare Louder"
				Note Time="112" Value="C5" Duration="7" Instrument="Snare Louder"
				Note Time="119" Value="C5" Duration="7" Instrument="Snare Louder"
				Note Time="126" Value="C5" Duration="7" Instrument="Snare Louder"
				Note Time="133" Value="C5" Duration="7" Instrument="Snare Louder"
			Pattern Name="How2Bboss's Pattern05"
				Note Time="0" Value="D#5" Duration="7" Instrument="Snare 1"
				Note Time="7" Value="C5" Duration="7" Instrument="Hi Hat 1"
				Note Time="14" Value="C#5" Duration="7" Instrument="Hi Hat 3"
				Note Time="21" Value="C5" Duration="3" Instrument="Hi Hat 1"
				Note Time="24" Value="C5" Duration="4" Instrument="Hi Hat 1"
				Note Time="28" Value="A#4" Duration="14" Instrument="Snare Louder 3"
				Note Time="42" Value="C5" Duration="4" Instrument="Hi Hat 1"
				Note Time="49" Value="C5" Duration="7" Instrument="Hi Hat 4"
				Note Time="56" Value="D#5" Duration="7" Instrument="Snare 1"
				Note Time="63" Value="A#4" Duration="7" Instrument="Snare Louder 3"
				Note Time="70" Value="D#5" Duration="7" Instrument="Snare 1"
				Note Time="77" Value="C5" Duration="3" Instrument="Hi Hat 1"
				Note Time="80" Value="C5" Duration="4" Instrument="Hi Hat 1"
				Note Time="84" Value="A#4" Duration="7" Instrument="Snare Louder 3"
				Note Time="91" Value="C5" Duration="3" Instrument="Hi Hat 1"
				Note Time="94" Value="C5" Duration="4" Instrument="Hi Hat 1"
			Pattern Name="How2Bboss's Pattern06"
				Note Time="0" Value="D#5" Duration="7" Instrument="Snare 1"
				Note Time="7" Value="C5" Duration="7" Instrument="Hi Hat 1"
				Note Time="14" Value="C#5" Duration="7" Instrument="Hi Hat 3"
				Note Time="21" Value="C5" Duration="3" Instrument="Hi Hat 1"
				Note Time="24" Value="C5" Duration="4" Instrument="Hi Hat 1"
				Note Time="28" Value="A#4" Duration="7" Instrument="Snare Louder 3"
				Note Time="35" Value="C5" Duration="3" Instrument="Hi Hat 1"
				Note Time="42" Value="A#4" Duration="7" Instrument="Snare Louder 3"
				Note Time="49" Value="D#5" Duration="7" Instrument="Snare 1"
				Note Time="56" Value="D#5" Duration="7" Instrument="Snare 1"
				Note Time="63" Value="A#4" Duration="7" Instrument="Snare Louder 3"
				Note Time="70" Value="D#5" Duration="7" Instrument="Snare 1"
				Note Time="77" Value="D#5" Duration="7" Instrument="Snare 1"
				Note Time="84" Value="A#4" Duration="7" Instrument="Snare Louder 3"
				Note Time="91" Value="A#4" Duration="7" Instrument="Snare Louder 3"
			PatternInstance Time="0" Pattern="How2Bboss's Pattern01"
			PatternInstance Time="1" Pattern="How2Bboss's Pattern01"
			PatternInstance Time="2" Pattern="How2Bboss's Pattern01"
			PatternInstance Time="3" Pattern="How2Bboss's Pattern01"
			PatternInstance Time="4" Pattern="How2Bboss's Pattern02"
			PatternInstance Time="5" Pattern="How2Bboss's Pattern02"
			PatternInstance Time="6" Pattern="How2Bboss's Pattern02"
			PatternInstance Time="7" Pattern="How2Bboss's Pattern03"
			PatternInstance Time="8" Pattern="How2Bboss's Pattern05"
			PatternInstance Time="9" Pattern="How2Bboss's Pattern05"
			PatternInstance Time="10" Pattern="How2Bboss's Pattern05"
			PatternInstance Time="11" Pattern="How2Bboss's Pattern06"
			PatternInstance Time="12" Pattern="How2Bboss's Pattern05"
			PatternInstance Time="13" Pattern="How2Bboss's Pattern05"
			PatternInstance Time="14" Pattern="How2Bboss's Pattern05"
			PatternInstance Time="15" Pattern="How2Bboss's Pattern06"
			PatternInstance Time="16" Pattern="How2Bboss's Pattern05"
			PatternInstance Time="17" Pattern="How2Bboss's Pattern05"
			PatternInstance Time="18" Pattern="How2Bboss's Pattern05"
			PatternInstance Time="19" Pattern="How2Bboss's Pattern06"
			PatternInstance Time="20" Pattern="How2Bboss's Pattern05"
			PatternInstance Time="21" Pattern="How2Bboss's Pattern05"
			PatternInstance Time="22" Pattern="How2Bboss's Pattern05"
			PatternInstance Time="23" Pattern="How2Bboss's Pattern06"
			PatternInstance Time="24" Pattern="How2Bboss's Pattern05"
			PatternInstance Time="25" Pattern="How2Bboss's Pattern05"
			PatternInstance Time="26" Pattern="How2Bboss's Pattern05"
			PatternInstance Time="27" Pattern="How2Bboss's Pattern06"
			PatternInstance Time="28" Pattern="How2Bboss's Pattern05"
			PatternInstance Time="29" Pattern="How2Bboss's Pattern05"
			PatternInstance Time="30" Pattern="How2Bboss's Pattern05"
			PatternInstance Time="31" Pattern="How2Bboss's Pattern06"
			PatternInstance Time="32" Pattern="How2Bboss's Pattern05"
			PatternInstance Time="33" Pattern="How2Bboss's Pattern05"
			PatternInstance Time="34" Pattern="How2Bboss's Pattern05"
			PatternInstance Time="35" Pattern="How2Bboss's Pattern06"
		Channel Type="DPCM"
		Channel Type="EPSMFM1"
		Channel Type="EPSMFM2"
		Channel Type="EPSMFM3"
	Song Name="Dangerous Citty Battle" Length="28" LoopPoint="8" PatternLength="14" BeatLength="4" NoteLength="7" Groove="7" GroovePaddingMode="Middle"
		PatternCustomSettings Time="1" Length="14" NoteLength="6" Groove="7-7-7-7-7-7-7-6" GroovePaddingMode="Middle" BeatLength="4"
		PatternCustomSettings Time="2" Length="14" NoteLength="6" Groove="7-7-7-6" GroovePaddingMode="Middle" BeatLength="4"
		PatternCustomSettings Time="3" Length="14" NoteLength="6" Groove="7-7-6" GroovePaddingMode="Middle" BeatLength="4"
		PatternCustomSettings Time="4" Length="14" NoteLength="6" Groove="7-6" GroovePaddingMode="Middle" BeatLength="4"
		PatternCustomSettings Time="5" Length="14" NoteLength="6" Groove="7-6-7-6-7-6-6-6" GroovePaddingMode="Middle" BeatLength="4"
		PatternCustomSettings Time="6" Length="14" NoteLength="6" Groove="7-6-6-6" GroovePaddingMode="Middle" BeatLength="4"
		PatternCustomSettings Time="7" Length="14" NoteLength="6" Groove="7-6-6-6-6-6-6-6" GroovePaddingMode="Middle" BeatLength="4"
		PatternCustomSettings Time="8" Length="14" NoteLength="6" Groove="6" GroovePaddingMode="Middle" BeatLength="4"
		PatternCustomSettings Time="9" Length="14" NoteLength="6" Groove="6" GroovePaddingMode="Middle" BeatLength="4"
		PatternCustomSettings Time="10" Length="14" NoteLength="6" Groove="6" GroovePaddingMode="Middle" BeatLength="4"
		PatternCustomSettings Time="11" Length="14" NoteLength="6" Groove="6" GroovePaddingMode="Middle" BeatLength="4"
		PatternCustomSettings Time="12" Length="14" NoteLength="6" Groove="6" GroovePaddingMode="Middle" BeatLength="4"
		PatternCustomSettings Time="13" Length="14" NoteLength="6" Groove="6" GroovePaddingMode="Middle" BeatLength="4"
		PatternCustomSettings Time="14" Length="14" NoteLength="6" Groove="6" GroovePaddingMode="Middle" BeatLength="4"
		PatternCustomSettings Time="15" Length="17" NoteLength="6" Groove="6" GroovePaddingMode="Middle" BeatLength="4"
		PatternCustomSettings Time="16" Length="14" NoteLength="6" Groove="6" GroovePaddingMode="Middle" BeatLength="4"
		PatternCustomSettings Time="17" Length="14" NoteLength="6" Groove="6" GroovePaddingMode="Middle" BeatLength="4"
		PatternCustomSettings Time="18" Length="14" NoteLength="6" Groove="6" GroovePaddingMode="Middle" BeatLength="4"
		PatternCustomSettings Time="19" Length="14" NoteLength="6" Groove="6" GroovePaddingMode="Middle" BeatLength="4"
		PatternCustomSettings Time="20" Length="14" NoteLength="6" Groove="6" GroovePaddingMode="Middle" BeatLength="4"
		PatternCustomSettings Time="21" Length="14" NoteLength="6" Groove="6" GroovePaddingMode="Middle" BeatLength="4"
		PatternCustomSettings Time="22" Length="14" NoteLength="6" Groove="6" GroovePaddingMode="Middle" BeatLength="4"
		PatternCustomSettings Time="23" Length="14" NoteLength="6" Groove="6" GroovePaddingMode="Middle" BeatLength="4"
		PatternCustomSettings Time="24" Length="14" NoteLength="6" Groove="6" GroovePaddingMode="Middle" BeatLength="4"
		PatternCustomSettings Time="25" Length="14" NoteLength="6" Groove="6" GroovePaddingMode="Middle" BeatLength="4"
		PatternCustomSettings Time="26" Length="14" NoteLength="6" Groove="6" GroovePaddingMode="Middle" BeatLength="4"
		PatternCustomSettings Time="27" Length="14" NoteLength="6" Groove="6" GroovePaddingMode="Middle" BeatLength="4"
		Channel Type="Square1"
			Pattern Name="How2Bboss's Pattern15"
				Note Time="14" Value="B3" Duration="56" Release="28" Instrument="Arpy 3"
			Pattern Name="How2Bboss's Pattern18"
				Note Time="12" Value="F#3" Duration="18" Instrument="Arpy 1"
				Note Time="30" Value="B3" Duration="42" Release="24" Instrument="Arpy 3"
			Pattern Name="How2Bboss's Pattern21"
				Note Time="0" Value="G3" Duration="18" Instrument="Arpy 1"
				Note Time="18" Value="C4" Duration="18" Instrument="Arpy 3"
				Note Time="36" Value="G#3" Duration="18" Instrument="Arpy 1"
				Note Time="54" Value="C#4" Duration="18" Instrument="Arpy 3"
				Note Time="72" Value="D4" Duration="18" Instrument="Arpy 3"
			Pattern Name="How2Bboss's Pattern30"
				Note Time="6" Value="C#4" Duration="18" Release="16" Instrument="Arpy 3"
				Note Time="24" Value="C#4" Duration="3" Instrument="Arpy 3" Attack="False"
				Note Time="27" Value="C4" Duration="3" Instrument="Arpy 3" Attack="False"
				Note Time="30" Value="B3" Duration="3" Instrument="Arpy 3" Attack="False"
				Note Time="33" Value="A#3" Duration="3" Instrument="Arpy 3" Attack="False"
			Pattern Name="How2Bboss's Pattern22"
				Note Time="6" Value="C#3" Duration="6" Instrument="Arpy 3"
				Note Time="12" Value="C#1" Duration="6" Instrument="Pluck 3"
				Note Time="18" Value="C#1" Duration="6" Instrument="Pluck 3"
				Note Time="24" Value="C#3" Duration="6" Instrument="Arpy 3"
				Note Time="30" Value="C#1" Duration="6" Instrument="Pluck 3"
				Note Time="36" Value="C#1" Duration="3" Instrument="Pluck 3"
				Note Time="42" Value="C#1" Duration="2" Instrument="Pluck 3"
				Note Time="48" Value="C#3" Duration="3" Instrument="Arpy 3"
				Note Time="54" Value="C#3" Duration="3" Instrument="Arpy 3"
				Note Time="60" Value="C#3" Duration="8" Instrument="Arpy 3"
				Note Time="68" Value="C#2" Duration="4" Instrument="Pluck 3"
				Note Time="72" Value="C#3" Duration="8" Instrument="Arpy 3"
				Note Time="80" Value="C#1" Duration="4" Instrument="Pluck 3"
			Pattern Name="How2Bboss's Pattern23"
				Note Time="0" Value="D1" Duration="6" Instrument="Pluck 3"
				Note Time="6" Value="D3" Duration="6" Instrument="Arpy 3"
				Note Time="12" Value="D1" Duration="6" Instrument="Pluck 3"
				Note Time="18" Value="D1" Duration="6" Instrument="Pluck 3"
				Note Time="24" Value="D3" Duration="6" Instrument="Arpy 3"
				Note Time="30" Value="D1" Duration="6" Instrument="Pluck 3"
				Note Time="36" Value="D1" Duration="3" Instrument="Pluck 3"
				Note Time="42" Value="D1" Duration="2" Instrument="Pluck 3"
				Note Time="48" Value="D3" Duration="18" Instrument="Arpy 3"
				Note Time="66" Value="D4" Duration="18" Instrument="Arpy 3"
			Pattern Name="How2Bboss's Pattern24"
				Note Time="0" Value="G#3" Duration="18" Instrument="Arpy 1"
				Note Time="18" Value="C#1" Duration="6" Instrument="Pluck 3"
				Note Time="24" Value="G#3" Duration="6" Instrument="Arpy 1"
				Note Time="30" Value="C#1" Duration="6" Instrument="Pluck 3"
				Note Time="36" Value="C#2" Duration="3" Instrument="Pluck 3"
				Note Time="42" Value="C#3" Duration="2" Instrument="Pluck 3"
				Note Time="48" Value="C#3" Duration="3" Instrument="Pluck 3"
				Note Time="54" Value="C#2" Duration="2" Instrument="Pluck 3"
				Note Time="60" Value="G#3" Duration="12" Instrument="Arpy 1"
				Note Time="72" Value="G#3" Duration="12" Instrument="Arpy 1"
			Pattern Name="How2Bboss's Pattern25"
				Note Time="0" Value="A3" Duration="12" Instrument="Arpy 1"
				Note Time="12" Value="D1" Duration="6" Instrument="Pluck 3"
				Note Time="18" Value="D4" Duration="12" Instrument="Arpy 3"
				Note Time="30" Value="D3" Duration="6" Instrument="Pluck 3"
				Note Time="36" Value="F3" Duration="6" Instrument="Pluck 3"
				Note Time="42" Value="D2" Duration="6" Instrument="Pluck 3"
				Note Time="48" Value="F2" Duration="6" Instrument="Pluck 3"
				Note Time="54" Value="C#3" Duration="6" Instrument="Pluck 3"
				Note Time="60" Value="D3" Duration="6" Instrument="Pluck 3"
				Note Time="66" Value="F3" Duration="6" Instrument="Pluck 3"
				Note Time="72" Value="A3" Duration="6" Instrument="Pluck 3"
				Note Time="78" Value="F3" Duration="6" Instrument="Pluck 3"
			Pattern Name="How2Bboss's Pattern26"
				Note Time="0" Value="G#3" Duration="6" Instrument="Pluck 3"
				Note Time="6" Value="C#3" Duration="6" Instrument="Arpy 3"
				Note Time="12" Value="C#1" Duration="6" Instrument="Pluck 3"
				Note Time="18" Value="C#1" Duration="6" Instrument="Pluck 3"
				Note Time="24" Value="C#3" Duration="6" Instrument="Arpy 3"
				Note Time="30" Value="C#1" Duration="6" Instrument="Pluck 3"
				Note Time="36" Value="C#1" Duration="3" Instrument="Pluck 3"
				Note Time="42" Value="C#1" Duration="2" Instrument="Pluck 3"
				Note Time="48" Value="C#3" Duration="3" Instrument="Arpy 3"
				Note Time="54" Value="C#3" Duration="2" Instrument="Arpy 3"
				Note Time="60" Value="C#3" Duration="8" Instrument="Arpy 3"
				Note Time="68" Value="C#2" Duration="4" Instrument="Pluck 3"
				Note Time="72" Value="C#3" Duration="8" Instrument="Arpy 3"
				Note Time="80" Value="C#1" Duration="4" Instrument="Pluck 3"
			Pattern Name="How2Bboss's Pattern27"
				Note Time="0" Value="D1" Duration="6" Instrument="Pluck 3"
				Note Time="6" Value="D3" Duration="6" Instrument="Arpy 3"
				Note Time="12" Value="D1" Duration="6" Instrument="Pluck 3"
				Note Time="18" Value="D1" Duration="6" Instrument="Pluck 3"
				Note Time="24" Value="D3" Duration="6" Instrument="Arpy 3"
				Note Time="30" Value="D1" Duration="6" Instrument="Pluck 3"
				Note Time="36" Value="D1" Duration="3" Instrument="Pluck 3"
				Note Time="42" Value="D1" Duration="2" Instrument="Pluck 3"
				Note Time="48" Value="B3" Duration="18" Instrument="Arpy 6"
				Note Time="66" Value="G3" Duration="18" Instrument="Arpy 5"
			Pattern Name="How2Bboss's Pattern28"
				Note Time="0" Value="G#3" Duration="18" Release="12" Instrument="Arpy 4"
				Note Time="18" Value="G#3" Duration="12" Release="11" Instrument="Arpy 4"
				Note Time="30" Value="C#1" Duration="6" Instrument="Pluck 3"
				Note Time="36" Value="C#2" Duration="3" Instrument="Pluck 3"
				Note Time="42" Value="C#3" Duration="2" Instrument="Pluck 3"
				Note Time="48" Value="C#4" Duration="3" Instrument="Pluck 3"
				Note Time="54" Value="C#4" Duration="2" Instrument="Pluck 3"
				Note Time="60" Value="G#3" Duration="12" Instrument="Arpy 1"
				Note Time="72" Value="G#3" Duration="12" Instrument="Arpy 1"
			Pattern Name="How2Bboss's Pattern29"
				Note Time="0" Value="A3" Duration="12" Instrument="Arpy 1"
				Note Time="12" Value="D1" Duration="6" Instrument="Pluck 3"
				Note Time="18" Value="D4" Duration="12" Instrument="Arpy 3"
				Note Time="30" Value="D3" Duration="6" Instrument="Pluck 3"
				Note Time="36" Value="F3" Duration="6" Instrument="Pluck 3"
				Note Time="42" Value="D2" Duration="6" Instrument="Pluck 3"
				Note Time="48" Value="A3" Duration="6" Instrument="Pluck 3"
				Note Time="54" Value="F3" Duration="6" Instrument="Pluck 3"
				Note Time="60" Value="D3" Duration="6" Instrument="Pluck 3"
				Note Time="66" Value="D4" Duration="6" Instrument="Pluck 3"
				Note Time="72" Value="A3" Duration="6" Instrument="Pluck 3"
				Note Time="78" Value="F3" Duration="6" Instrument="Pluck 3"
				Note Time="84" Value="F4" Duration="6" Instrument="Pluck 3"
				Note Time="90" Value="D4" Duration="6" Instrument="Pluck 3"
				Note Time="96" Value="A3" Duration="6" Instrument="Pluck 3"
			Pattern Name="How2Bboss's Pattern31"
				Note Time="0" Value="C#3" Duration="6" Instrument="Pluck 3"
				Note Time="6" Value="E3" Duration="6" Instrument="Pluck 3"
				Note Time="12" Value="G#3" Duration="3" Instrument="Pluck 3"
				Note Time="18" Value="C#3" Duration="3" Instrument="Pluck 3"
				Note Time="24" Value="E3" Duration="6" Instrument="Pluck 3"
				Note Time="30" Value="G#3" Duration="6" Instrument="Pluck 3"
				Note Time="36" Value="C#3" Duration="3" Instrument="Pluck 3"
				Note Time="42" Value="E3" Duration="3" Instrument="Pluck 3"
				Note Time="48" Value="G#3" Duration="6" Instrument="Pluck 3"
				Note Time="54" Value="C#3" Duration="6" Instrument="Pluck 3"
				Note Time="60" Value="E3" Duration="3" Instrument="Pluck 3"
				Note Time="66" Value="G#3" Duration="3" Instrument="Pluck 3"
				Note Time="72" Value="C#3" Duration="6" Instrument="Pluck 3"
				Note Time="78" Value="E3" Duration="3" Instrument="Pluck 3"
			Pattern Name="How2Bboss's Pattern33"
				Note Time="0" Value="D3" Duration="6" Instrument="Pluck 3"
				Note Time="6" Value="F3" Duration="6" Instrument="Pluck 3"
				Note Time="12" Value="A3" Duration="3" Instrument="Pluck 3"
				Note Time="18" Value="D3" Duration="3" Instrument="Pluck 3"
				Note Time="24" Value="F3" Duration="6" Instrument="Pluck 3"
				Note Time="30" Value="A3" Duration="6" Instrument="Pluck 3"
				Note Time="36" Value="D3" Duration="3" Instrument="Pluck 3"
				Note Time="42" Value="F3" Duration="3" Instrument="Pluck 3"
				Note Time="48" Value="A3" Duration="6" Instrument="Pluck 3"
				Note Time="54" Value="D3" Duration="6" Instrument="Pluck 3"
				Note Time="60" Value="F3" Duration="3" Instrument="Pluck 3"
				Note Time="66" Value="A3" Duration="3" Instrument="Pluck 3"
				Note Time="72" Value="D3" Duration="6" Instrument="Pluck 3"
				Note Time="78" Value="F3" Duration="3" Instrument="Pluck 3"
			Pattern Name="How2Bboss's Pattern32"
				Note Time="0" Value="G#3" Duration="72" Instrument="Pluck 1"
				Note Time="72" Value="A3" Duration="12" Instrument="Pluck 1"
			Pattern Name="How2Bboss's Pattern34"
				Note Time="0" Value="E3" Duration="6" Instrument="Pluck 1"
				Note Time="6" Value="F3" Duration="30" Instrument="Pluck 1" Attack="False"
				Note Time="36" Value="E3" Duration="4" Instrument="Pluck 1" Attack="False"
				Note Time="40" Value="D#3" Duration="4" Instrument="Pluck 1" Attack="False"
				Note Time="44" Value="C3" Duration="4" Instrument="Pluck 1" Attack="False"
				Note Time="48" Value="A2" Duration="4" Instrument="Pluck 1" Attack="False"
				Note Time="60" Value="A3" Duration="6" Instrument="Pluck 1"
				Note Time="66" Value="B3" Duration="6" Instrument="Pluck 1"
				Note Time="72" Value="A4" Duration="6" Instrument="Pluck 1"
				Note Time="78" Value="B4" Duration="6" Instrument="Pluck 1"
			Pattern Name="How2Bboss's Pattern35"
				Note Time="0" Value="G4" Duration="6" Instrument="Pluck 1"
				Note Time="6" Value="G#4" Duration="30" Instrument="Pluck 1" Attack="False"
				Note Time="36" Value="G4" Duration="4" Instrument="Pluck 1" Attack="False"
				Note Time="42" Value="G#4" Duration="12" Instrument="Pluck 1"
				Note Time="60" Value="G#4" Duration="2" Instrument="Pluck 1" Attack="False"
				Note Time="66" Value="G#4" Duration="5" Instrument="Pluck 1"
				Note Time="72" Value="G#4" Duration="2" Instrument="Pluck 1"
				Note Time="78" Value="G#4" Duration="2" Instrument="Pluck 1"
			Pattern Name="How2Bboss's Pattern36"
				Note Time="0" Value="D4" Duration="6" Instrument="Pluck 3"
				Note Time="6" Value="F4" Duration="6" Instrument="Pluck 3"
				Note Time="12" Value="A4" Duration="3" Instrument="Pluck 3"
				Note Time="18" Value="D3" Duration="3" Instrument="Pluck 3"
				Note Time="24" Value="F3" Duration="6" Instrument="Pluck 3"
				Note Time="30" Value="A3" Duration="6" Instrument="Pluck 3"
				Note Time="36" Value="D3" Duration="3" Instrument="Pluck 3"
				Note Time="42" Value="F3" Duration="3" Instrument="Pluck 3"
				Note Time="48" Value="A3" Duration="6" Instrument="Pluck 3"
				Note Time="54" Value="D3" Duration="6" Instrument="Pluck 3"
				Note Time="60" Value="F3" Duration="3" Instrument="Pluck 3"
				Note Time="66" Value="A3" Duration="3" Instrument="Pluck 3"
				Note Time="72" Value="D3" Duration="3" Instrument="Pluck 3"
				Note Time="78" Value="D3" Duration="3" Instrument="Pluck 3"
			PatternInstance Time="0" Pattern="How2Bboss's Pattern15"
			PatternInstance Time="2" Pattern="How2Bboss's Pattern18"
			PatternInstance Time="3" Pattern="How2Bboss's Pattern21"
			PatternInstance Time="4" Pattern="How2Bboss's Pattern30"
			PatternInstance Time="8" Pattern="How2Bboss's Pattern22"
			PatternInstance Time="9" Pattern="How2Bboss's Pattern23"
			PatternInstance Time="10" Pattern="How2Bboss's Pattern24"
			PatternInstance Time="11" Pattern="How2Bboss's Pattern25"
			PatternInstance Time="12" Pattern="How2Bboss's Pattern26"
			PatternInstance Time="13" Pattern="How2Bboss's Pattern27"
			PatternInstance Time="14" Pattern="How2Bboss's Pattern28"
			PatternInstance Time="15" Pattern="How2Bboss's Pattern29"
			PatternInstance Time="16" Pattern="How2Bboss's Pattern31"
			PatternInstance Time="17" Pattern="How2Bboss's Pattern33"
			PatternInstance Time="18" Pattern="How2Bboss's Pattern31"
			PatternInstance Time="19" Pattern="How2Bboss's Pattern33"
			PatternInstance Time="20" Pattern="How2Bboss's Pattern32"
			PatternInstance Time="21" Pattern="How2Bboss's Pattern34"
			PatternInstance Time="22" Pattern="How2Bboss's Pattern35"
			PatternInstance Time="23" Pattern="How2Bboss's Pattern36"
			PatternInstance Time="24" Pattern="How2Bboss's Pattern31"
			PatternInstance Time="25" Pattern="How2Bboss's Pattern33"
			PatternInstance Time="26" Pattern="How2Bboss's Pattern31"
			PatternInstance Time="27" Pattern="How2Bboss's Pattern33"
		Channel Type="Square2"
			Pattern Name="How2Bboss's Pattern03"
				Note Time="0" Value="B0" Duration="7" Instrument="D1"
				Note Time="7" Value="B1" Duration="7" Instrument="D2"
				Note Time="14" Value="B0" Duration="7" Instrument="D2"
				Note Time="21" Value="B0" Duration="7" Instrument="D3"
				Note Time="28" Value="B1" Duration="7" Instrument="D2"
				Note Time="35" Value="B0" Duration="7" Instrument="D1"
				Note Time="42" Value="B0" Duration="4" Instrument="D1"
				Note Time="49" Value="B0" Duration="3" Instrument="D2"
				Note Time="56" Value="B0" Duration="7" Instrument="D2"
				Note Time="63" Value="B0" Duration="7" Instrument="D3"
				Note Time="70" Value="B1" Duration="4" Instrument="D3"
				Note Time="77" Value="B1" Duration="3" Instrument="D1"
				Note Time="84" Value="B0" Duration="7" Instrument="D1"
				Note Time="91" Value="B0" Duration="7" Instrument="D3"
			Pattern Name="How2Bboss's Pattern13"
				Note Time="0" Value="C1" Duration="6" Instrument="D1"
				Note Time="6" Value="C2" Duration="6" Instrument="D1"
				Note Time="12" Value="C1" Duration="6" Instrument="D1"
				Note Time="18" Value="C1" Duration="6" Instrument="D2"
				Note Time="24" Value="C2" Duration="6" Instrument="D2"
				Note Time="30" Value="C1" Duration="6" Instrument="D2"
				Note Time="36" Value="C1" Duration="3" Instrument="D1"
				Note Time="42" Value="C1" Duration="2" Instrument="D2"
				Note Time="48" Value="A0" Duration="6" Instrument="D2"
				Note Time="54" Value="A0" Duration="6" Instrument="D3"
				Note Time="60" Value="A1" Duration="3" Instrument="D3"
				Note Time="66" Value="A1" Duration="2" Instrument="D3"
				Note Time="72" Value="A0" Duration="6" Instrument="D2"
				Note Time="78" Value="A0" Duration="6" Instrument="D3"
			Pattern Name="How2Bboss's Pattern09"
				Note Time="0" Value="B0" Duration="6" Instrument="D1"
				Note Time="6" Value="B1" Duration="6" Instrument="D2"
				Note Time="12" Value="B0" Duration="6" Instrument="D2"
				Note Time="18" Value="B0" Duration="6" Instrument="D3"
				Note Time="24" Value="B1" Duration="6" Instrument="D2"
				Note Time="30" Value="B0" Duration="6" Instrument="D1"
				Note Time="36" Value="B0" Duration="3" Instrument="D1"
				Note Time="42" Value="B0" Duration="2" Instrument="D2"
				Note Time="48" Value="B0" Duration="6" Instrument="D2"
				Note Time="54" Value="B0" Duration="6" Instrument="D3"
				Note Time="60" Value="B1" Duration="3" Instrument="D3"
				Note Time="66" Value="B1" Duration="2" Instrument="D1"
				Note Time="72" Value="B0" Duration="6" Instrument="D1"
				Note Time="78" Value="B0" Duration="6" Instrument="D3"
			Pattern Name="How2Bboss's Pattern12"
				Note Time="0" Value="C1" Duration="6" Instrument="D1"
				Note Time="6" Value="C2" Duration="6" Instrument="D1"
				Note Time="12" Value="C1" Duration="6" Instrument="D1"
				Note Time="18" Value="C1" Duration="6" Instrument="D2"
				Note Time="24" Value="C2" Duration="6" Instrument="D2"
				Note Time="30" Value="C1" Duration="6" Instrument="D2"
				Note Time="36" Value="C#1" Duration="6" Instrument="D1"
				Note Time="42" Value="C#2" Duration="6" Instrument="D1"
				Note Time="48" Value="C#1" Duration="6" Instrument="D1"
				Note Time="54" Value="C#1" Duration="6" Instrument="D2"
				Note Time="60" Value="C#2" Duration="6" Instrument="D2"
				Note Time="66" Value="C#1" Duration="6" Instrument="D2"
				Note Time="72" Value="D1" Duration="6" Instrument="D2"
				Note Time="78" Value="D2" Duration="6" Instrument="D3"
			Pattern Name="How2Bboss's Pattern14"
				Note Time="0" Value="C#1" Duration="6" Instrument="D1"
				Note Time="6" Value="C#2" Duration="6" Instrument="D2"
				Note Time="12" Value="C#1" Duration="6" Instrument="D2"
				Note Time="18" Value="C#1" Duration="6" Instrument="D3"
				Note Time="24" Value="C#2" Duration="6" Instrument="D2"
				Note Time="30" Value="C#1" Duration="6" Instrument="D1"
				Note Time="36" Value="C#1" Duration="3" Instrument="D1"
				Note Time="42" Value="C#1" Duration="2" Instrument="D2"
				Note Time="48" Value="C#1" Duration="6" Instrument="D2"
				Note Time="54" Value="C#1" Duration="6" Instrument="D3"
				Note Time="60" Value="C#2" Duration="3" Instrument="D3"
				Note Time="66" Value="C#2" Duration="2" Instrument="D1"
				Note Time="72" Value="C#1" Duration="6" Instrument="D1"
				Note Time="78" Value="C#1" Duration="6" Instrument="D3"
			Pattern Name="How2Bboss's Pattern17"
				Note Time="0" Value="D1" Duration="6" Instrument="D1"
				Note Time="6" Value="D2" Duration="6" Instrument="D1"
				Note Time="12" Value="D1" Duration="6" Instrument="D1"
				Note Time="18" Value="D1" Duration="6" Instrument="D2"
				Note Time="24" Value="D2" Duration="6" Instrument="D2"
				Note Time="30" Value="D1" Duration="6" Instrument="D2"
				Note Time="36" Value="D1" Duration="3" Instrument="D1"
				Note Time="42" Value="D1" Duration="2" Instrument="D2"
				Note Time="48" Value="B0" Duration="6" Instrument="D2"
				Note Time="54" Value="B0" Duration="6" Instrument="D3"
				Note Time="60" Value="B1" Duration="3" Instrument="D3"
				Note Time="66" Value="B1" Duration="2" Instrument="D3"
				Note Time="72" Value="B0" Duration="6" Instrument="D2"
				Note Time="78" Value="B0" Duration="6" Instrument="D3"
			Pattern Name="How2Bboss's Pattern08"
				Note Time="0" Value="C#1" Duration="6" Instrument="D1"
				Note Time="6" Value="C#1" Duration="6" Instrument="D2"
				Note Time="12" Value="C#1" Duration="6" Instrument="D2"
				Note Time="18" Value="C#1" Duration="6" Instrument="D3"
				Note Time="24" Value="C#1" Duration="6" Instrument="D2"
				Note Time="30" Value="C#1" Duration="6" Instrument="D1"
				Note Time="36" Value="C#1" Duration="3" Instrument="D1"
				Note Time="42" Value="C#1" Duration="2" Instrument="D2"
				Note Time="48" Value="C#1" Duration="6" Instrument="D2"
				Note Time="54" Value="C#1" Duration="6" Instrument="D3"
				Note Time="60" Value="C#1" Duration="3" Instrument="D3"
				Note Time="66" Value="C#1" Duration="2" Instrument="D1"
				Note Time="72" Value="C#1" Duration="6" Instrument="D1"
				Note Time="78" Value="C#1" Duration="6" Instrument="D3"
			Pattern Name="How2Bboss's Pattern19"
				Note Time="0" Value="D1" Duration="6" Instrument="D1"
				Note Time="6" Value="D2" Duration="6" Instrument="D1"
				Note Time="12" Value="D1" Duration="6" Instrument="D1"
				Note Time="18" Value="D1" Duration="6" Instrument="D2"
				Note Time="24" Value="D3" Duration="6" Instrument="D2"
				Note Time="30" Value="D1" Duration="6" Instrument="D2"
				Note Time="36" Value="D1" Duration="3" Instrument="D1"
				Note Time="42" Value="D1" Duration="2" Instrument="D2"
				Note Time="48" Value="A3" Duration="3" Instrument="D3"
				Note Time="54" Value="B3" Duration="3" Instrument="D1"
				Note Time="60" Value="A2" Duration="6" Instrument="D2"
				Note Time="66" Value="B2" Duration="6" Instrument="D3"
				Note Time="72" Value="A1" Duration="6" Instrument="D1"
				Note Time="78" Value="B1" Duration="6" Instrument="D3"
			Pattern Name="How2Bboss's Pattern11"
				Note Time="0" Value="C#1" Duration="6" Instrument="D1"
				Note Time="6" Value="C#2" Duration="6" Instrument="D2"
				Note Time="12" Value="C#1" Duration="6" Instrument="D2"
				Note Time="18" Value="C#1" Duration="6" Instrument="D3"
				Note Time="24" Value="C#2" Duration="6" Instrument="D2"
				Note Time="30" Value="C#1" Duration="6" Instrument="D1"
				Note Time="36" Value="C#1" Duration="3" Instrument="D1"
				Note Time="42" Value="C#1" Duration="2" Instrument="D2"
				Note Time="48" Value="C#1" Duration="6" Instrument="D2"
				Note Time="54" Value="C#1" Duration="6" Instrument="D3"
				Note Time="60" Value="C#2" Duration="3" Instrument="D3"
				Note Time="66" Value="C#2" Duration="3" Instrument="D1"
				Note Time="72" Value="C#1" Duration="6" Instrument="D1"
				Note Time="78" Value="C#1" Duration="6" Instrument="D3"
			Pattern Name="How2Bboss's Pattern15"
				Note Time="0" Value="D1" Duration="6" Instrument="D1"
				Note Time="6" Value="D2" Duration="6" Instrument="D1"
				Note Time="12" Value="D1" Duration="6" Instrument="D1"
				Note Time="18" Value="D1" Duration="6" Instrument="D2"
				Note Time="24" Value="D2" Duration="6" Instrument="D2"
				Note Time="30" Value="D1" Duration="6" Instrument="D2"
				Note Time="36" Value="D1" Duration="3" Instrument="D1"
				Note Time="42" Value="D1" Duration="2" Instrument="D2"
				Note Time="48" Value="D1" Duration="6" Instrument="D2"
				Note Time="54" Value="D1" Duration="6" Instrument="D3"
				Note Time="60" Value="D2" Duration="3" Instrument="D3"
				Note Time="66" Value="D2" Duration="2" Instrument="D3"
				Note Time="72" Value="D1" Duration="6" Instrument="D2"
				Note Time="78" Value="D1" Duration="6" Instrument="D3"
			Pattern Name="How2Bboss's Pattern20"
				Note Time="0" Value="D1" Duration="6" Instrument="D1"
				Note Time="6" Value="D2" Duration="6" Instrument="D1"
				Note Time="12" Value="D1" Duration="6" Instrument="D1"
				Note Time="18" Value="D1" Duration="6" Instrument="D2"
				Note Time="24" Value="D2" Duration="6" Instrument="D2"
				Note Time="30" Value="D1" Duration="6" Instrument="D2"
				Note Time="36" Value="D1" Duration="3" Instrument="D1"
				Note Time="42" Value="D1" Duration="2" Instrument="D2"
				Note Time="48" Value="D1" Duration="6" Instrument="D2"
				Note Time="54" Value="D1" Duration="6" Instrument="D3"
				Note Time="60" Value="D2" Duration="3" Instrument="D3"
				Note Time="66" Value="D2" Duration="2" Instrument="D3"
				Note Time="72" Value="D1" Duration="6" Instrument="D2"
				Note Time="78" Value="D1" Duration="6" Instrument="D3"
				Note Time="84" Value="D2" Duration="3" Instrument="D1"
				Note Time="90" Value="D2" Duration="3" Instrument="D1"
				Note Time="96" Value="D2" Duration="3" Instrument="D1"
			PatternInstance Time="0" Pattern="How2Bboss's Pattern03"
			PatternInstance Time="1" Pattern="How2Bboss's Pattern13"
			PatternInstance Time="2" Pattern="How2Bboss's Pattern09"
			PatternInstance Time="3" Pattern="How2Bboss's Pattern12"
			PatternInstance Time="4" Pattern="How2Bboss's Pattern14"
			PatternInstance Time="5" Pattern="How2Bboss's Pattern17"
			PatternInstance Time="6" Pattern="How2Bboss's Pattern14"
			PatternInstance Time="7" Pattern="How2Bboss's Pattern17"
			PatternInstance Time="8" Pattern="How2Bboss's Pattern08"
			PatternInstance Time="9" Pattern="How2Bboss's Pattern19"
			PatternInstance Time="10" Pattern="How2Bboss's Pattern11"
			PatternInstance Time="11" Pattern="How2Bboss's Pattern15"
			PatternInstance Time="12" Pattern="How2Bboss's Pattern08"
			PatternInstance Time="13" Pattern="How2Bboss's Pattern19"
			PatternInstance Time="14" Pattern="How2Bboss's Pattern11"
			PatternInstance Time="15" Pattern="How2Bboss's Pattern20"
			PatternInstance Time="16" Pattern="How2Bboss's Pattern08"
			PatternInstance Time="17" Pattern="How2Bboss's Pattern19"
			PatternInstance Time="18" Pattern="How2Bboss's Pattern11"
			PatternInstance Time="19" Pattern="How2Bboss's Pattern15"
			PatternInstance Time="20" Pattern="How2Bboss's Pattern08"
			PatternInstance Time="21" Pattern="How2Bboss's Pattern19"
			PatternInstance Time="22" Pattern="How2Bboss's Pattern11"
			PatternInstance Time="23" Pattern="How2Bboss's Pattern15"
			PatternInstance Time="24" Pattern="How2Bboss's Pattern08"
			PatternInstance Time="25" Pattern="How2Bboss's Pattern19"
			PatternInstance Time="26" Pattern="How2Bboss's Pattern11"
			PatternInstance Time="27" Pattern="How2Bboss's Pattern15"
		Channel Type="Triangle"
			Pattern Name="How2Bboss's Pattern08"
				Note Time="0" Value="B2" Duration="7" Instrument="Tri Bass 2" SlideTarget="C#2"
				Note Time="28" Value="F4" Duration="4" Instrument="Tri Bass 2"
				Note Time="56" Value="B2" Duration="7" Instrument="Tri Bass 2" SlideTarget="C#2"
				Note Time="63" Value="F4" Duration="4" Instrument="Tri Bass 2"
				Note Time="70" Value="B2" Duration="7" Instrument="Tri Bass 2" SlideTarget="C#2"
				Note Time="84" Value="F4" Duration="4" Instrument="Tri Bass 2"
			Pattern Name="How2Bboss's Pattern10"
				Note Time="0" Value="B2" Duration="6" Instrument="Tri Bass 2" SlideTarget="C#2"
				Note Time="24" Value="F4" Duration="3" Instrument="Tri Bass 2"
				Note Time="48" Value="B2" Duration="6" Instrument="Tri Bass 2" SlideTarget="C#2"
				Note Time="54" Value="F4" Duration="3" Instrument="Tri Bass 2"
				Note Time="60" Value="B2" Duration="6" Instrument="Tri Bass 2" SlideTarget="C#2"
				Note Time="72" Value="F4" Duration="3" Instrument="Tri Bass 2"
			Pattern Name="How2Bboss's Pattern12"
				Note Time="0" Value="B2" Duration="6" Instrument="Tri Bass 2" SlideTarget="C#2"
				Note Time="24" Value="F4" Duration="3" Instrument="Tri Bass 2"
				Note Time="36" Value="F4" Duration="3" Instrument="Tri Bass 2"
				Note Time="42" Value="B2" Duration="6" Instrument="Tri Bass 2" SlideTarget="C#2"
				Note Time="48" Value="B2" Duration="6" Instrument="Tri Bass 2" SlideTarget="C#2"
				Note Time="54" Value="F4" Duration="3" Instrument="Tri Bass 2"
				Note Time="60" Value="B2" Duration="6" Instrument="Tri Bass 2" SlideTarget="C#2"
				Note Time="66" Value="B2" Duration="6" Instrument="Tri Bass 2" SlideTarget="C#2"
				Note Time="72" Value="F4" Duration="3" Instrument="Tri Bass 2"
				Note Time="78" Value="F4" Duration="3" Instrument="Tri Bass 2"
			Pattern Name="How2Bboss's Pattern09"
				Note Time="0" Value="B2" Duration="6" Instrument="Tri Bass 2" SlideTarget="C#2"
				Note Time="18" Value="F4" Duration="3" Instrument="Tri Bass 2"
				Note Time="36" Value="B2" Duration="6" Instrument="Tri Bass 2" SlideTarget="C#2"
				Note Time="48" Value="F4" Duration="3" Instrument="Tri Bass 2"
				Note Time="60" Value="B2" Duration="6" Instrument="Tri Bass 2" SlideTarget="C#2"
				Note Time="72" Value="F4" Duration="3" Instrument="Tri Bass 2"
				Note Time="78" Value="F4" Duration="3" Instrument="Tri Bass 2"
			Pattern Name="How2Bboss's Pattern14"
				Note Time="0" Value="B2" Duration="6" Instrument="Tri Bass 2" SlideTarget="C#2"
				Note Time="24" Value="F4" Duration="3" Instrument="Tri Bass 2"
				Note Time="36" Value="F4" Duration="3" Instrument="Tri Bass 2"
				Note Time="42" Value="B2" Duration="6" Instrument="Tri Bass 2" SlideTarget="C#2"
				Note Time="48" Value="B2" Duration="6" Instrument="Tri Bass 2" SlideTarget="C#2"
				Note Time="54" Value="B4" Duration="3" Instrument="Tri Bass 2"
				Note Time="57" Value="B4" Duration="3" Instrument="Tri Bass 2"
				Note Time="60" Value="B4" Duration="3" Instrument="Tri Bass 2"
				Note Time="66" Value="B4" Duration="3" Instrument="Tri Bass 2"
				Note Time="72" Value="G4" Duration="3" Instrument="Tri Bass 2"
				Note Time="78" Value="D#4" Duration="3" Instrument="Tri Bass 2"
			Pattern Name="How2Bboss's Pattern18"
				Note Time="0" Value="B2" Duration="6" Instrument="Tri Bass 2" SlideTarget="C#2"
				Note Time="24" Value="F4" Duration="3" Instrument="Tri Bass 2"
				Note Time="36" Value="F4" Duration="3" Instrument="Tri Bass 2"
				Note Time="42" Value="B2" Duration="6" Instrument="Tri Bass 2" SlideTarget="C#2"
				Note Time="48" Value="B2" Duration="6" Instrument="Tri Bass 2" SlideTarget="C#2"
				Note Time="54" Value="B4" Duration="3" Instrument="Tri Bass 2"
				Note Time="57" Value="B4" Duration="3" Instrument="Tri Bass 2"
				Note Time="60" Value="B4" Duration="3" Instrument="Tri Bass 2"
				Note Time="66" Value="B4" Duration="3" Instrument="Tri Bass 2"
				Note Time="72" Value="G4" Duration="3" Instrument="Tri Bass 2"
				Note Time="78" Value="D#4" Duration="3" Instrument="Tri Bass 2"
				Note Time="84" Value="B4" Duration="3" Instrument="Tri Bass 2"
				Note Time="90" Value="B4" Duration="3" Instrument="Tri Bass 2"
				Note Time="96" Value="D#4" Duration="3" Instrument="Tri Bass 2"
			PatternInstance Time="0" Pattern="How2Bboss's Pattern08"
			PatternInstance Time="1" Pattern="How2Bboss's Pattern10"
			PatternInstance Time="2" Pattern="How2Bboss's Pattern10"
			PatternInstance Time="3" Pattern="How2Bboss's Pattern12"
			PatternInstance Time="4" Pattern="How2Bboss's Pattern10"
			PatternInstance Time="5" Pattern="How2Bboss's Pattern10"
			PatternInstance Time="6" Pattern="How2Bboss's Pattern10"
			PatternInstance Time="7" Pattern="How2Bboss's Pattern12"
			PatternInstance Time="8" Pattern="How2Bboss's Pattern09"
			PatternInstance Time="9" Pattern="How2Bboss's Pattern09"
			PatternInstance Time="10" Pattern="How2Bboss's Pattern09"
			PatternInstance Time="11" Pattern="How2Bboss's Pattern14"
			PatternInstance Time="12" Pattern="How2Bboss's Pattern09"
			PatternInstance Time="13" Pattern="How2Bboss's Pattern09"
			PatternInstance Time="14" Pattern="How2Bboss's Pattern09"
			PatternInstance Time="15" Pattern="How2Bboss's Pattern18"
			PatternInstance Time="16" Pattern="How2Bboss's Pattern10"
			PatternInstance Time="17" Pattern="How2Bboss's Pattern10"
			PatternInstance Time="18" Pattern="How2Bboss's Pattern10"
			PatternInstance Time="19" Pattern="How2Bboss's Pattern10"
			PatternInstance Time="20" Pattern="How2Bboss's Pattern10"
			PatternInstance Time="21" Pattern="How2Bboss's Pattern10"
			PatternInstance Time="22" Pattern="How2Bboss's Pattern10"
			PatternInstance Time="23" Pattern="How2Bboss's Pattern10"
			PatternInstance Time="24" Pattern="How2Bboss's Pattern10"
			PatternInstance Time="25" Pattern="How2Bboss's Pattern10"
			PatternInstance Time="26" Pattern="How2Bboss's Pattern10"
			PatternInstance Time="27" Pattern="How2Bboss's Pattern14"
		Channel Type="Noise"
			Pattern Name="How2Bboss's Pattern05"
				Note Time="0" Value="D#5" Duration="7" Instrument="Snare 1"
				Note Time="7" Value="C5" Duration="7" Instrument="Hi Hat 1"
				Note Time="14" Value="C#5" Duration="7" Instrument="Hi Hat 3"
				Note Time="21" Value="C5" Duration="3" Instrument="Hi Hat 1"
				Note Time="24" Value="C5" Duration="4" Instrument="Hi Hat 1"
				Note Time="28" Value="A#4" Duration="14" Instrument="Snare Louder 3"
				Note Time="42" Value="C5" Duration="4" Instrument="Hi Hat 1"
				Note Time="49" Value="C5" Duration="7" Instrument="Hi Hat 4"
				Note Time="56" Value="D#5" Duration="7" Instrument="Snare 1"
				Note Time="63" Value="A#4" Duration="7" Instrument="Snare Louder 3"
				Note Time="70" Value="D#5" Duration="7" Instrument="Snare 1"
				Note Time="77" Value="C5" Duration="3" Instrument="Hi Hat 1"
				Note Time="80" Value="C5" Duration="4" Instrument="Hi Hat 1"
				Note Time="84" Value="A#4" Duration="7" Instrument="Snare Louder 3"
				Note Time="91" Value="C5" Duration="3" Instrument="Hi Hat 1"
				Note Time="94" Value="C5" Duration="4" Instrument="Hi Hat 1"
			Pattern Name="How2Bboss's Pattern09"
				Note Time="0" Value="D#5" Duration="6" Instrument="Snare 1"
				Note Time="6" Value="C5" Duration="6" Instrument="Hi Hat 1"
				Note Time="12" Value="C#5" Duration="6" Instrument="Hi Hat 3"
				Note Time="18" Value="C5" Duration="2" Instrument="Hi Hat 1"
				Note Time="20" Value="C5" Duration="4" Instrument="Hi Hat 1"
				Note Time="24" Value="A#4" Duration="12" Instrument="Snare Louder 3"
				Note Time="36" Value="C5" Duration="3" Instrument="Hi Hat 1"
				Note Time="42" Value="C5" Duration="6" Instrument="Hi Hat 4"
				Note Time="48" Value="D#5" Duration="6" Instrument="Snare 1"
				Note Time="54" Value="A#4" Duration="6" Instrument="Snare Louder 3"
				Note Time="60" Value="D#5" Duration="6" Instrument="Snare 1"
				Note Time="66" Value="C5" Duration="2" Instrument="Hi Hat 1"
				Note Time="68" Value="C5" Duration="4" Instrument="Hi Hat 1"
				Note Time="72" Value="A#4" Duration="6" Instrument="Snare Louder 3"
				Note Time="78" Value="C5" Duration="2" Instrument="Hi Hat 1"
				Note Time="80" Value="C5" Duration="4" Instrument="Hi Hat 1"
			Pattern Name="How2Bboss's Pattern11"
				Note Time="0" Value="D#5" Duration="6" Instrument="Snare 1"
				Note Time="6" Value="C5" Duration="6" Instrument="Hi Hat 1"
				Note Time="12" Value="C#5" Duration="6" Instrument="Hi Hat 3"
				Note Time="18" Value="C5" Duration="2" Instrument="Hi Hat 1"
				Note Time="20" Value="C5" Duration="4" Instrument="Hi Hat 1"
				Note Time="24" Value="A#4" Duration="6" Instrument="Snare Louder 3"
				Note Time="30" Value="C5" Duration="2" Instrument="Hi Hat 1"
				Note Time="36" Value="A#4" Duration="6" Instrument="Snare Louder 3"
				Note Time="42" Value="D#5" Duration="6" Instrument="Snare 1"
				Note Time="48" Value="D#5" Duration="6" Instrument="Snare 1"
				Note Time="54" Value="A#4" Duration="6" Instrument="Snare Louder 3"
				Note Time="60" Value="D#5" Duration="6" Instrument="Snare 1"
				Note Time="66" Value="D#5" Duration="6" Instrument="Snare 1"
				Note Time="72" Value="A#4" Duration="6" Instrument="Snare Louder 3"
				Note Time="78" Value="A#4" Duration="6" Instrument="Snare Louder 3"
			Pattern Name="How2Bboss's Pattern17"
				Note Time="0" Value="D#5" Duration="6" Instrument="Snare 1"
				Note Time="6" Value="C#5" Duration="3" Instrument="Hi Hat"
				Note Time="12" Value="C#5" Duration="3" Instrument="Hi Hat"
				Note Time="18" Value="A#4" Duration="6" Instrument="Snare Louder 3"
				Note Time="24" Value="C#5" Duration="3" Instrument="Hi Hat"
				Note Time="30" Value="C#5" Duration="3" Instrument="Hi Hat"
				Note Time="36" Value="D#5" Duration="6" Instrument="Snare 1"
				Note Time="42" Value="C#5" Duration="3" Instrument="Hi Hat"
				Note Time="48" Value="A#4" Duration="6" Instrument="Snare Louder 3"
				Note Time="54" Value="C#5" Duration="3" Instrument="Hi Hat"
				Note Time="57" Value="C5" Duration="3" Instrument="Hi Hat 4"
				Note Time="60" Value="D#5" Duration="6" Instrument="Snare 1"
				Note Time="66" Value="C#5" Duration="3" Instrument="Hi Hat"
				Note Time="69" Value="C5" Duration="3" Instrument="Hi Hat 1"
				Note Time="72" Value="A#4" Duration="6" Instrument="Snare Louder 3"
				Note Time="78" Value="C#5" Duration="3" Instrument="Hi Hat"
			Pattern Name="How2Bboss's Pattern19"
				Note Time="0" Value="D#5" Duration="6" Instrument="Snare 1"
				Note Time="6" Value="C5" Duration="6" Instrument="Hi Hat 1"
				Note Time="12" Value="C#5" Duration="6" Instrument="Hi Hat 3"
				Note Time="18" Value="C5" Duration="2" Instrument="Hi Hat 1"
				Note Time="20" Value="C5" Duration="4" Instrument="Hi Hat 1"
				Note Time="24" Value="A#4" Duration="6" Instrument="Snare Louder 3"
				Note Time="30" Value="C5" Duration="2" Instrument="Hi Hat 1"
				Note Time="36" Value="A#4" Duration="6" Instrument="Snare Louder 3"
				Note Time="42" Value="D#5" Duration="6" Instrument="Snare 1"
				Note Time="48" Value="D#5" Duration="6" Instrument="Snare 1"
				Note Time="54" Value="A#4" Duration="6" Instrument="Snare Louder 3"
				Note Time="60" Value="D#5" Duration="6" Instrument="Snare 1"
				Note Time="66" Value="D#5" Duration="6" Instrument="Snare 1"
				Note Time="72" Value="A#4" Duration="6" Instrument="Snare Louder 3"
				Note Time="78" Value="A#4" Duration="6" Instrument="Snare Louder 3"
				Note Time="84" Value="A#4" Duration="6" Instrument="Snare Louder 3"
				Note Time="90" Value="A#4" Duration="6" Instrument="Snare Louder 3"
				Note Time="96" Value="D#5" Duration="6" Instrument="Snare 1"
			Pattern Name="How2Bboss's Pattern13"
				Note Time="0" Value="D#5" Duration="6" Instrument="Snare 1"
				Note Time="6" Value="C5" Duration="6" Instrument="Hi Hat 1"
				Note Time="12" Value="C#5" Duration="6" Instrument="Hi Hat 3"
				Note Time="18" Value="C5" Duration="2" Instrument="Hi Hat 1"
				Note Time="20" Value="C5" Duration="4" Instrument="Hi Hat 1"
				Note Time="24" Value="A#4" Duration="12" Instrument="Snare Louder 3"
				Note Time="36" Value="D#5" Duration="6" Instrument="Snare 1"
				Note Time="42" Value="C#5" Duration="3" Instrument="Hi Hat"
				Note Time="48" Value="A#4" Duration="6" Instrument="Snare Louder 3"
				Note Time="54" Value="C#5" Duration="3" Instrument="Hi Hat"
				Note Time="57" Value="C5" Duration="3" Instrument="Hi Hat 4"
				Note Time="60" Value="D#5" Duration="6" Instrument="Snare 1"
				Note Time="66" Value="C#5" Duration="3" Instrument="Hi Hat"
				Note Time="69" Value="C5" Duration="3" Instrument="Hi Hat 1"
				Note Time="72" Value="A#4" Duration="6" Instrument="Snare Louder 3"
				Note Time="78" Value="C#5" Duration="3" Instrument="Hi Hat"
			PatternInstance Time="0" Pattern="How2Bboss's Pattern05"
			PatternInstance Time="1" Pattern="How2Bboss's Pattern09"
			PatternInstance Time="2" Pattern="How2Bboss's Pattern09"
			PatternInstance Time="3" Pattern="How2Bboss's Pattern11"
			PatternInstance Time="4" Pattern="How2Bboss's Pattern09"
			PatternInstance Time="5" Pattern="How2Bboss's Pattern09"
			PatternInstance Time="6" Pattern="How2Bboss's Pattern09"
			PatternInstance Time="7" Pattern="How2Bboss's Pattern11"
			PatternInstance Time="8" Pattern="How2Bboss's Pattern17"
			PatternInstance Time="9" Pattern="How2Bboss's Pattern17"
			PatternInstance Time="10" Pattern="How2Bboss's Pattern17"
			PatternInstance Time="11" Pattern="How2Bboss's Pattern11"
			PatternInstance Time="12" Pattern="How2Bboss's Pattern17"
			PatternInstance Time="13" Pattern="How2Bboss's Pattern17"
			PatternInstance Time="14" Pattern="How2Bboss's Pattern17"
			PatternInstance Time="15" Pattern="How2Bboss's Pattern19"
			PatternInstance Time="16" Pattern="How2Bboss's Pattern09"
			PatternInstance Time="17" Pattern="How2Bboss's Pattern09"
			PatternInstance Time="18" Pattern="How2Bboss's Pattern09"
			PatternInstance Time="19" Pattern="How2Bboss's Pattern09"
			PatternInstance Time="20" Pattern="How2Bboss's Pattern09"
			PatternInstance Time="21" Pattern="How2Bboss's Pattern09"
			PatternInstance Time="22" Pattern="How2Bboss's Pattern09"
			PatternInstance Time="23" Pattern="How2Bboss's Pattern09"
			PatternInstance Time="24" Pattern="How2Bboss's Pattern09"
			PatternInstance Time="25" Pattern="How2Bboss's Pattern09"
			PatternInstance Time="26" Pattern="How2Bboss's Pattern09"
			PatternInstance Time="27" Pattern="How2Bboss's Pattern13"
		Channel Type="DPCM"
		Channel Type="EPSMFM1"
		Channel Type="EPSMFM2"
		Channel Type="EPSMFM3"
	Song Name="Title Ambience" Length="11" LoopPoint="0" PatternLength="16" BeatLength="4" NoteLength="11" Groove="11" GroovePaddingMode="Middle"
		Channel Type="Square1"
			Pattern Name="How2Bboss's Pattern01"
				Note Time="0" Value="B2" Duration="11" Instrument="Soft 6"
				Note Time="44" Value="B2" Duration="11" Instrument="Soft 6"
				Note Time="88" Value="B2" Duration="11" Instrument="Soft 6"
				Note Time="132" Value="B2" Duration="11" Instrument="Soft 6"
			PatternInstance Time="2" Pattern="How2Bboss's Pattern01"
			PatternInstance Time="7" Pattern="How2Bboss's Pattern01"
		Channel Type="Square2"
			Pattern Name="How2Bboss's Pattern01"
				Note Time="0" Value="A#0" Duration="1936" Instrument="Ambient Noise 1" Attack="False"
			PatternInstance Time="0" Pattern="How2Bboss's Pattern01"
		Channel Type="Triangle"
		Channel Type="Noise"
			Pattern Name="How2Bboss's Pattern01"
				Note Time="0" Value="E1" Duration="1936" Instrument="Ambient Noise" Attack="False"
			PatternInstance Time="0" Pattern="How2Bboss's Pattern01"
		Channel Type="DPCM"
		Channel Type="EPSMFM1"
			Pattern Name="How2Bboss's Pattern02"
				Note Time="0" Value="B2" Duration="27" Release="14" Instrument="Evil LR"
				Note Time="44" Value="B2" Duration="27" Release="14" Instrument="Evil LR"
				Note Time="88" Value="B2" Duration="27" Release="14" Instrument="Evil LR"
				Note Time="132" Value="B2" Duration="27" Release="14" Instrument="Evil LR"
			Pattern Name="How2Bboss's Pattern03"
				Note Time="0" Value="F#1" Duration="352" Release="180" Instrument="Screech"
			PatternInstance Time="2" Pattern="How2Bboss's Pattern02"
			PatternInstance Time="7" Pattern="How2Bboss's Pattern03"
		Channel Type="EPSMFM2"
			Pattern Name="How2Bboss's Pattern01"
				Note Time="0" Value="A#2" Duration="1936" Instrument="Noise 1"
			PatternInstance Time="0" Pattern="How2Bboss's Pattern01"
		Channel Type="EPSMFM3"
			Pattern Name="How2Bboss's Pattern01"
				Note Time="0" Value="A3" Duration="1936" Instrument="Noise"
			PatternInstance Time="0" Pattern="How2Bboss's Pattern01"
	Song Name="Combat Ambience" Length="9" LoopPoint="0" PatternLength="16" BeatLength="4" NoteLength="11" Groove="11" GroovePaddingMode="Middle"
		Channel Type="Square1"
			Pattern Name="How2Bboss's Pattern02"
				Note Time="0" Value="A#0" Duration="88" Instrument="Pluck Echo 1" Attack="False" FinePitch="2"
				Note Time="88" Value="F1" Duration="88" Instrument="Pluck Echo 1" Attack="False"
			Pattern Name="How2Bboss's Pattern03"
				Note Time="0" Value="C#1" Duration="88" Instrument="Pluck Echo 1" Attack="False"
				Note Time="88" Value="A#1" Duration="88" Instrument="Pluck Echo 1" Attack="False"
			Pattern Name="How2Bboss's Pattern09"
				Note Time="0" Value="A#3" Duration="11" Instrument="Vol 6" Attack="False"
				Note Time="11" Value="F#1" Duration="33" Instrument="Pluck Echo 1" Attack="False"
				Note Time="44" Value="A#3" Duration="11" Instrument="Vol 6" Attack="False"
				Note Time="55" Value="F#1" Duration="33" Instrument="Pluck Echo 1" Attack="False"
				Note Time="88" Value="A#3" Duration="11" Instrument="Vol 6" Attack="False"
				Note Time="99" Value="F1" Duration="33" Instrument="Pluck Echo 1" Attack="False"
				Note Time="132" Value="A#3" Duration="11" Instrument="Vol 6" Attack="False"
				Note Time="143" Value="F1" Duration="33" Instrument="Pluck Echo 1" Attack="False"
			Pattern Name="How2Bboss's Pattern05"
				Note Time="0" Value="C#1" Duration="88" Instrument="Pluck Echo 1" Attack="False"
				Note Time="88" Value="A#1" Duration="44" Instrument="Pluck Echo 1" Attack="False"
				Note Time="132" Value="B1" Duration="44" Instrument="Pluck Echo 1" Attack="False"
			Pattern Name="How2Bboss's Pattern06"
				Note Time="0" Value="A#3" Duration="11" Instrument="Vol 6" Attack="False"
				Note Time="11" Value="A#1" Duration="33" Instrument="Pluck Echo 1" Attack="False"
				Note Time="44" Value="A#3" Duration="11" Instrument="Vol 6" Attack="False"
				Note Time="55" Value="G#1" Duration="33" Instrument="Pluck Echo 1" Attack="False"
				Note Time="88" Value="A#3" Duration="11" Instrument="Vol 6" Attack="False"
				Note Time="99" Value="E1" Duration="33" Instrument="Pluck Echo 1" Attack="False"
				Note Time="132" Value="A#3" Duration="11" Instrument="Vol 6" Attack="False"
				Note Time="143" Value="F1" Duration="33" Instrument="Pluck Echo 1" Attack="False"
			Pattern Name="How2Bboss's Pattern07"
				Note Time="0" Value="A#1" Duration="88" Instrument="Pluck Echo 1" Attack="False"
				Note Time="88" Value="A#2" Duration="88" Instrument="Pluck Echo 1" Attack="False"
			Pattern Name="How2Bboss's Pattern01"
				Note Time="0" Value="A2" Duration="88" Instrument="Pluck Echo 1" Attack="False"
				Note Time="88" Value="F2" Duration="88" Instrument="Pluck Echo 1" Attack="False"
			Pattern Name="How2Bboss's Pattern08"
				Note Time="0" Value="C#2" Duration="88" Instrument="Pluck Echo 1" Attack="False" FinePitch="2"
				Note Time="88" Value="A1" Duration="88" Instrument="Pluck Echo 1" Attack="False"
			PatternInstance Time="0" Pattern="How2Bboss's Pattern02"
			PatternInstance Time="1" Pattern="How2Bboss's Pattern03"
			PatternInstance Time="2" Pattern="How2Bboss's Pattern09"
			PatternInstance Time="3" Pattern="How2Bboss's Pattern02"
			PatternInstance Time="4" Pattern="How2Bboss's Pattern05"
			PatternInstance Time="5" Pattern="How2Bboss's Pattern06"
			PatternInstance Time="6" Pattern="How2Bboss's Pattern07"
			PatternInstance Time="7" Pattern="How2Bboss's Pattern01"
			PatternInstance Time="8" Pattern="How2Bboss's Pattern08"
		Channel Type="Square2"
			Pattern Name="How2Bboss's Pattern01"
				Note Time="0" Value="A#0" Duration="528" Instrument="Ambient Noise 1" Attack="False"
			Pattern Name="How2Bboss's Pattern02"
				Note Time="0" Value="A3" Duration="11" Instrument="Ambient Noise 1" Attack="False"
				Note Time="11" Value="A#0" Duration="33" Instrument="Ambient Noise 1" Attack="False"
				Note Time="44" Value="A3" Duration="11" Instrument="Ambient Noise 1" Attack="False"
				Note Time="55" Value="A#0" Duration="33" Instrument="Ambient Noise 1" Attack="False"
				Note Time="88" Value="A3" Duration="11" Instrument="Ambient Noise 1" Attack="False"
				Note Time="99" Value="A#0" Duration="33" Instrument="Ambient Noise 1" Attack="False"
				Note Time="132" Value="A3" Duration="11" Instrument="Ambient Noise 1" Attack="False"
				Note Time="143" Value="A#0" Duration="33" Instrument="Ambient Noise 1" Attack="False"
			PatternInstance Time="0" Pattern="How2Bboss's Pattern01"
			PatternInstance Time="2" Pattern="How2Bboss's Pattern02"
			PatternInstance Time="3" Pattern="How2Bboss's Pattern01"
			PatternInstance Time="5" Pattern="How2Bboss's Pattern02"
			PatternInstance Time="6" Pattern="How2Bboss's Pattern01"
		Channel Type="Triangle"
			Pattern Name="How2Bboss's Pattern01"
				Note Time="0" Value="A#1" Duration="352" Instrument="Tri Bass"
			Pattern Name="How2Bboss's Pattern04"
				Note Time="0" Value="A#1" Duration="15" Instrument="Tri Bass 1"
				Note Time="44" Value="A#1" Duration="15" Instrument="Tri Bass 1"
				Note Time="88" Value="A#1" Duration="15" Instrument="Tri Bass 1"
				Note Time="132" Value="A#1" Duration="15" Instrument="Tri Bass 1"
			PatternInstance Time="0" Pattern="How2Bboss's Pattern01"
			PatternInstance Time="2" Pattern="How2Bboss's Pattern04"
			PatternInstance Time="3" Pattern="How2Bboss's Pattern01"
			PatternInstance Time="5" Pattern="How2Bboss's Pattern04"
			PatternInstance Time="6" Pattern="How2Bboss's Pattern01"
			PatternInstance Time="8" Pattern="How2Bboss's Pattern04"
		Channel Type="Noise"
			Pattern Name="How2Bboss's Pattern01"
				Note Time="0" Value="A3" Duration="11" Instrument="Hi Hat 1"
				Note Time="11" Value="G#3" Duration="11" Instrument="Hi Hat 1"
				Note Time="22" Value="G3" Duration="11" Instrument="Hi Hat 1"
				Note Time="33" Value="G#3" Duration="11" Instrument="Hi Hat"
				Note Time="44" Value="G#3" Duration="11" Instrument="Hi Hat 1"
				Note Time="55" Value="A3" Duration="11" Instrument="Hi Hat 1"
				Note Time="66" Value="G#3" Duration="11" Instrument="Hi Hat"
				Note Time="77" Value="G#3" Duration="11" Instrument="Hi Hat 1"
				Note Time="88" Value="A3" Duration="11" Instrument="Hi Hat 1"
				Note Time="99" Value="G#3" Duration="11" Instrument="Hi Hat"
				Note Time="110" Value="G#3" Duration="11" Instrument="Hi Hat 1"
				Note Time="121" Value="A3" Duration="11" Instrument="Hi Hat 1"
				Note Time="132" Value="G#3" Duration="11" Instrument="Hi Hat"
				Note Time="143" Value="G#3" Duration="11" Instrument="Hi Hat 1"
				Note Time="154" Value="G#3" Duration="11" Instrument="Hi Hat"
				Note Time="165" Value="G#3" Duration="11" Instrument="Hi Hat 1"
			Pattern Name="How2Bboss's Pattern03"
				Note Time="0" Value="G#3" Duration="11" Instrument="Hi Hat"
				Note Time="11" Value="G#3" Duration="11" Instrument="Hi Hat 1"
				Note Time="22" Value="A3" Duration="11" Instrument="Hi Hat 1"
				Note Time="33" Value="G#3" Duration="11" Instrument="Hi Hat"
				Note Time="44" Value="G#3" Duration="11" Instrument="Hi Hat 1"
				Note Time="55" Value="A3" Duration="11" Instrument="Hi Hat 1"
				Note Time="66" Value="G#3" Duration="11" Instrument="Hi Hat"
				Note Time="77" Value="G#3" Duration="11" Instrument="Hi Hat 1"
				Note Time="88" Value="A3" Duration="11" Instrument="Hi Hat 1"
				Note Time="99" Value="G#3" Duration="11" Instrument="Hi Hat"
				Note Time="110" Value="G#3" Duration="11" Instrument="Hi Hat 1"
				Note Time="121" Value="A3" Duration="11" Instrument="Hi Hat 1"
				Note Time="132" Value="G#3" Duration="11" Instrument="Hi Hat"
				Note Time="143" Value="G#3" Duration="11" Instrument="Hi Hat 1"
				Note Time="154" Value="G3" Duration="7" Instrument="Hi Hat 1"
				Note Time="161" Value="F#3" Duration="8" Instrument="Hi Hat 1"
				Note Time="169" Value="G#3" Duration="7" Instrument="Hi Hat"
			Pattern Name="How2Bboss's Pattern02"
				Note Time="0" Value="B3" Duration="22" Instrument="Snare Louder"
				Note Time="22" Value="G#3" Duration="7" Instrument="Hi Hat 1"
				Note Time="29" Value="G#3" Duration="8" Instrument="Hi Hat 1"
				Note Time="37" Value="G3" Duration="7" Instrument="Hi Hat 1"
				Note Time="44" Value="F#3" Duration="11" Instrument="Snare 1"
				Note Time="55" Value="G3" Duration="11" Instrument="Hi Hat 1"
				Note Time="66" Value="F#3" Duration="11" Instrument="Snare 1"
				Note Time="77" Value="A#3" Duration="11" Instrument="Hi Hat"
				Note Time="88" Value="B3" Duration="22" Instrument="Snare Louder"
				Note Time="110" Value="G#3" Duration="7" Instrument="Hi Hat 1"
				Note Time="117" Value="G#3" Duration="8" Instrument="Hi Hat 1"
				Note Time="125" Value="G3" Duration="7" Instrument="Hi Hat 1"
				Note Time="132" Value="F#3" Duration="11" Instrument="Snare 1"
				Note Time="143" Value="G#3" Duration="11" Instrument="Hi Hat"
				Note Time="154" Value="F#3" Duration="7" Instrument="Snare 1"
				Note Time="161" Value="G#3" Duration="8" Instrument="Hi Hat"
				Note Time="169" Value="A3" Duration="7" Instrument="Hi Hat"
			PatternInstance Time="0" Pattern="How2Bboss's Pattern01"
			PatternInstance Time="1" Pattern="How2Bboss's Pattern03"
			PatternInstance Time="2" Pattern="How2Bboss's Pattern02"
			PatternInstance Time="3" Pattern="How2Bboss's Pattern01"
			PatternInstance Time="4" Pattern="How2Bboss's Pattern03"
			PatternInstance Time="5" Pattern="How2Bboss's Pattern02"
			PatternInstance Time="6" Pattern="How2Bboss's Pattern01"
			PatternInstance Time="7" Pattern="How2Bboss's Pattern03"
			PatternInstance Time="8" Pattern="How2Bboss's Pattern02"
		Channel Type="DPCM"
			Pattern Name="How2Bboss's Pattern01"
				Note Time="0" DeltaCounter="60"
			PatternInstance Time="0" Pattern="How2Bboss's Pattern01"
		Channel Type="EPSMFM1"
			Pattern Name="How2Bboss's Pattern01"
				Note Time="0" Value="A#0" Duration="528" Release="517" Instrument="Evil LR"
			Pattern Name="How2Bboss's Pattern02"
				Note Time="0" Value="B0" Duration="528" Release="517" Instrument="Screech"
			PatternInstance Time="0" Pattern="How2Bboss's Pattern01"
			PatternInstance Time="3" Pattern="How2Bboss's Pattern01"
			PatternInstance Time="6" Pattern="How2Bboss's Pattern02"
		Channel Type="EPSMFM2"
			Pattern Name="How2Bboss's Pattern01"
				Note Time="0" Value="A#2" Duration="1584" Instrument="Noise 1"
			PatternInstance Time="0" Pattern="How2Bboss's Pattern01"
		Channel Type="EPSMFM3"
			Pattern Name="How2Bboss's Pattern01"
				Note Time="0" Value="A3" Duration="1584" Instrument="Noise"
			PatternInstance Time="0" Pattern="How2Bboss's Pattern01"
	Song Name="Boss" Length="32" LoopPoint="5" PatternLength="14" BeatLength="4" NoteLength="6" Groove="6" GroovePaddingMode="Middle"
		PatternCustomSettings Time="4" Length="24" NoteLength="6" Groove="6" GroovePaddingMode="Middle" BeatLength="4"
		PatternCustomSettings Time="9" Length="24" NoteLength="6" Groove="6" GroovePaddingMode="Middle" BeatLength="4"
		PatternCustomSettings Time="18" Length="24" NoteLength="6" Groove="6" GroovePaddingMode="Middle" BeatLength="4"
		PatternCustomSettings Time="23" Length="24" NoteLength="6" Groove="6" GroovePaddingMode="Middle" BeatLength="4"
		PatternCustomSettings Time="24" Length="16" NoteLength="6" Groove="6" GroovePaddingMode="Middle" BeatLength="4"
		PatternCustomSettings Time="25" Length="16" NoteLength="6" Groove="6" GroovePaddingMode="Middle" BeatLength="4"
		PatternCustomSettings Time="26" Length="16" NoteLength="6" Groove="6" GroovePaddingMode="Middle" BeatLength="4"
		PatternCustomSettings Time="27" Length="16" NoteLength="6" Groove="6" GroovePaddingMode="Middle" BeatLength="4"
		PatternCustomSettings Time="28" Length="16" NoteLength="6" Groove="6" GroovePaddingMode="Middle" BeatLength="4"
		PatternCustomSettings Time="29" Length="16" NoteLength="6" Groove="6" GroovePaddingMode="Middle" BeatLength="4"
		PatternCustomSettings Time="30" Length="16" NoteLength="6" Groove="6" GroovePaddingMode="Middle" BeatLength="4"
		PatternCustomSettings Time="31" Length="16" NoteLength="6" Groove="6" GroovePaddingMode="Middle" BeatLength="4"
		Channel Type="Square1"
			Pattern Name="How2Bboss's Pattern01"
				Note Time="0" Value="G2" Duration="5" Release="4" Instrument="Vol 9 R6"
				Note Time="6" Value="G1" Duration="5" Instrument="Vol 9 R6" Attack="False"
				Note Time="12" Value="D3" Duration="5" Release="4" Instrument="Vol 9 R6"
				Note Time="18" Value="G1" Duration="5" Instrument="Vol 9 R6" Attack="False"
				Note Time="24" Value="A#2" Duration="5" Release="4" Instrument="Vol 9 R6"
				Note Time="30" Value="G1" Duration="5" Instrument="Vol 9 R6" Attack="False"
				Note Time="36" Value="G2" Duration="5" Release="4" Instrument="Vol 9 R6"
				Note Time="42" Value="G1" Duration="5" Instrument="Vol 9 R6" Attack="False"
				Note Time="48" Value="A2" Duration="5" Release="4" Instrument="Vol 9 R6"
				Note Time="54" Value="G1" Duration="5" Instrument="Vol 9 R6" Attack="False"
				Note Time="60" Value="A#2" Duration="5" Release="4" Instrument="Vol 9 R6"
				Note Time="66" Value="G1" Duration="5" Instrument="Vol 9 R6" Attack="False"
				Note Time="72" Value="F#2" Duration="5" Release="4" Instrument="Vol 9 R6"
				Note Time="78" Value="F#1" Duration="5" Instrument="Vol 9 R6" Attack="False"
			Pattern Name="How2Bboss's Pattern07"
				Note Time="0" Value="G1" Duration="24" Instrument="ARP"
				Note Time="24" Value="G2" Duration="24" Instrument="ARP"
				Note Time="48" Value="F#2" Duration="24" Instrument="ARP"
				Note Time="72" Value="C2" Duration="24" Instrument="ARP"
				Note Time="96" Value="D#2" Duration="24" Instrument="ARP"
				Note Time="120" Value="A#2" Duration="24" Instrument="ARP"
			Pattern Name="How2Bboss's Pattern04"
				Note Time="0" Value="G2" Duration="6" Instrument="D3"
				Note Time="6" Value="G1" Duration="6" Instrument="Vol 6"
				Note Time="12" Value="D3" Duration="6" Instrument="D2"
				Note Time="18" Value="G1" Duration="6" Instrument="Vol 6"
				Note Time="24" Value="A#2" Duration="6" Instrument="D2"
				Note Time="30" Value="G1" Duration="6" Instrument="Vol 6"
				Note Time="36" Value="G2" Duration="6" Instrument="D1"
				Note Time="42" Value="G1" Duration="6" Instrument="Vol 6"
				Note Time="48" Value="A2" Duration="6" Instrument="D3"
				Note Time="54" Value="G1" Duration="6" Instrument="Vol 6"
				Note Time="60" Value="A#2" Duration="6" Instrument="D2"
				Note Time="66" Value="G1" Duration="6" Instrument="Vol 6"
				Note Time="72" Value="F#2" Duration="6" Instrument="D1"
				Note Time="78" Value="F#1" Duration="6" Instrument="Vol 6"
			Pattern Name="How2Bboss's Pattern05"
				Note Time="0" Value="G2" Duration="6" Instrument="D3"
				Note Time="6" Value="G1" Duration="6" Instrument="Pluck 3"
				Note Time="12" Value="D3" Duration="6" Instrument="D2"
				Note Time="18" Value="G1" Duration="6" Instrument="Pluck 3"
				Note Time="24" Value="A#2" Duration="6" Instrument="D2"
				Note Time="30" Value="G1" Duration="6" Instrument="Pluck 3"
				Note Time="36" Value="G2" Duration="6" Instrument="D1"
				Note Time="42" Value="G1" Duration="6" Instrument="Pluck 3"
				Note Time="48" Value="A2" Duration="6" Instrument="D3"
				Note Time="54" Value="G1" Duration="6" Instrument="Pluck 3"
				Note Time="60" Value="A#2" Duration="6" Instrument="D2"
				Note Time="66" Value="A#2" Duration="6" Instrument="D1"
				Note Time="72" Value="D3" Duration="6" Instrument="D1"
				Note Time="78" Value="A3" Duration="6" Instrument="D1"
			Pattern Name="How2Bboss's Pattern02"
				Note Time="0" Value="A#3" Duration="6" Instrument="D3"
				Note Time="6" Value="A#2" Duration="6" Instrument="Pluck 3"
				Note Time="12" Value="D3" Duration="6" Instrument="Pluck 3"
				Note Time="18" Value="A#2" Duration="6" Instrument="Pluck 3"
				Note Time="24" Value="C4" Duration="6" Instrument="D3"
				Note Time="30" Value="A2" Duration="6" Instrument="Pluck 3"
				Note Time="36" Value="C3" Duration="6" Instrument="Pluck 3"
				Note Time="42" Value="A2" Duration="6" Instrument="Pluck 3"
				Note Time="48" Value="D4" Duration="6" Instrument="D3"
				Note Time="54" Value="G#2" Duration="6" Instrument="Pluck 3"
				Note Time="60" Value="D3" Duration="6" Instrument="Pluck 3"
				Note Time="66" Value="G#2" Duration="6" Instrument="Pluck 3"
				Note Time="72" Value="D#4" Duration="6" Instrument="D3"
				Note Time="78" Value="F2" Duration="6" Instrument="Pluck 3"
				Note Time="84" Value="D#3" Duration="6" Instrument="Pluck 3"
				Note Time="90" Value="F2" Duration="6" Instrument="Pluck 3"
				Note Time="96" Value="F4" Duration="6" Instrument="D2"
				Note Time="102" Value="A#2" Duration="6" Instrument="Pluck 3"
				Note Time="108" Value="D3" Duration="6" Instrument="Pluck 3"
				Note Time="114" Value="A#2" Duration="6" Instrument="Pluck 3"
				Note Time="120" Value="F#4" Duration="6" Instrument="D2"
				Note Time="126" Value="D3" Duration="6" Instrument="Pluck 3"
				Note Time="132" Value="A2" Duration="6" Instrument="Pluck 3"
				Note Time="138" Value="F#2" Duration="6" Instrument="Pluck 3"
			Pattern Name="How2Bboss's Pattern03"
				Note Time="0" Value="G2" Duration="24" Instrument="ARP"
				Note Time="24" Value="F#2" Duration="24" Instrument="ARP"
				Note Time="48" Value="F2" Duration="24" Instrument="ARP"
				Note Time="72" Value="E2" Duration="24" Instrument="ARP"
				Note Time="96" Value="D#2" Duration="24" Instrument="ARP"
				Note Time="120" Value="F#2" Duration="24" Instrument="ARP"
			Pattern Name="How2Bboss's Pattern08"
				Note Time="0" Value="G4" Duration="6" Release="5" Instrument="Pluck 1 D 1"
				Note Time="6" Value="A#3" Duration="6" Release="5" Instrument="Pluck 1 D 1"
				Note Time="12" Value="G3" Duration="6" Release="5" Instrument="Pluck 1 D 1"
				Note Time="18" Value="A#3" Duration="6" Release="5" Instrument="Pluck 1 D 1"
				Note Time="24" Value="G4" Duration="6" Release="5" Instrument="Pluck 1 D 1"
				Note Time="30" Value="A#3" Duration="6" Release="5" Instrument="Pluck 1 D 1"
				Note Time="36" Value="G3" Duration="6" Release="5" Instrument="Pluck 1 D 1"
				Note Time="42" Value="A#3" Duration="6" Release="5" Instrument="Pluck 1 D 1"
				Note Time="48" Value="F#4" Duration="6" Release="5" Instrument="Pluck 1 D 1"
				Note Time="54" Value="A3" Duration="6" Release="5" Instrument="Pluck 1 D 1"
				Note Time="60" Value="F#3" Duration="6" Release="5" Instrument="Pluck 1 D 1"
				Note Time="66" Value="A3" Duration="6" Release="5" Instrument="Pluck 1 D 1"
				Note Time="72" Value="F#4" Duration="6" Release="5" Instrument="Pluck 1 D 1"
				Note Time="78" Value="A3" Duration="6" Release="5" Instrument="Pluck 1 D 1"
				Note Time="84" Value="F#3" Duration="6" Release="5" Instrument="Pluck 1 D 1"
				Note Time="90" Value="A3" Duration="6" Release="5" Instrument="Pluck 1 D 1"
			Pattern Name="How2Bboss's Pattern09"
				Note Time="0" Value="D#4" Duration="6" Release="5" Instrument="Pluck 1 D 1"
				Note Time="6" Value="A#3" Duration="6" Release="5" Instrument="Pluck 1 D 1"
				Note Time="12" Value="F3" Duration="6" Release="5" Instrument="Pluck 1 D 1"
				Note Time="18" Value="A#3" Duration="6" Release="5" Instrument="Pluck 1 D 1"
				Note Time="24" Value="D#4" Duration="6" Release="5" Instrument="Pluck 1 D 1"
				Note Time="30" Value="A#3" Duration="6" Release="5" Instrument="Pluck 1 D 1"
				Note Time="36" Value="F3" Duration="6" Release="5" Instrument="Pluck 1 D 1"
				Note Time="42" Value="A#3" Duration="6" Release="5" Instrument="Pluck 1 D 1"
				Note Time="48" Value="D#4" Duration="6" Release="5" Instrument="Pluck 1 D 1"
				Note Time="54" Value="B3" Duration="6" Release="5" Instrument="Pluck 1 D 1"
				Note Time="60" Value="F3" Duration="6" Release="5" Instrument="Pluck 1 D 1"
				Note Time="66" Value="B3" Duration="6" Release="5" Instrument="Pluck 1 D 1"
				Note Time="72" Value="D#4" Duration="6" Release="5" Instrument="Pluck 1 D 1"
				Note Time="78" Value="B3" Duration="6" Release="5" Instrument="Pluck 1 D 1"
				Note Time="84" Value="F3" Duration="6" Release="5" Instrument="Pluck 1 D 1"
				Note Time="90" Value="B3" Duration="6" Release="5" Instrument="Pluck 1 D 1"
			Pattern Name="How2Bboss's Pattern10"
				Note Time="0" Value="D#4" Duration="6" Release="5" Instrument="Pluck 1 D 1"
				Note Time="6" Value="C4" Duration="6" Release="5" Instrument="Pluck 1 D 1"
				Note Time="12" Value="A3" Duration="6" Release="5" Instrument="Pluck 1 D 1"
				Note Time="18" Value="C4" Duration="6" Release="5" Instrument="Pluck 1 D 1"
				Note Time="24" Value="D#4" Duration="6" Release="5" Instrument="Pluck 1 D 1"
				Note Time="30" Value="C4" Duration="6" Release="5" Instrument="Pluck 1 D 1"
				Note Time="36" Value="A3" Duration="6" Release="5" Instrument="Pluck 1 D 1"
				Note Time="42" Value="C4" Duration="6" Release="5" Instrument="Pluck 1 D 1"
				Note Time="48" Value="F4" Duration="6" Release="5" Instrument="Pluck 1 D 1"
				Note Time="54" Value="A#3" Duration="6" Release="5" Instrument="Pluck 1 D 1"
				Note Time="60" Value="F3" Duration="6" Release="5" Instrument="Pluck 1 D 1"
				Note Time="66" Value="A#3" Duration="6" Release="5" Instrument="Pluck 1 D 1"
				Note Time="72" Value="F4" Duration="6" Release="5" Instrument="Pluck 1 D 1"
				Note Time="78" Value="A#3" Duration="6" Release="5" Instrument="Pluck 1 D 1"
				Note Time="84" Value="F3" Duration="6" Release="5" Instrument="Pluck 1 D 1"
				Note Time="90" Value="A#3" Duration="6" Release="5" Instrument="Pluck 1 D 1"
			Pattern Name="How2Bboss's Pattern11"
				Note Time="0" Value="G4" Duration="6" Release="5" Instrument="Pluck 1 D 1"
				Note Time="6" Value="D4" Duration="6" Release="5" Instrument="Pluck 1 D 1"
				Note Time="12" Value="A#3" Duration="6" Release="5" Instrument="Pluck 1 D 1"
				Note Time="18" Value="D4" Duration="6" Release="5" Instrument="Pluck 1 D 1"
				Note Time="24" Value="G4" Duration="6" Release="5" Instrument="Pluck 1 D 1"
				Note Time="30" Value="D4" Duration="6" Release="5" Instrument="Pluck 1 D 1"
				Note Time="36" Value="A#3" Duration="6" Release="5" Instrument="Pluck 1 D 1"
				Note Time="42" Value="D4" Duration="6" Release="5" Instrument="Pluck 1 D 1"
				Note Time="48" Value="F#4" Duration="6" Release="5" Instrument="Pluck 1 D 1"
				Note Time="54" Value="D4" Duration="6" Release="5" Instrument="Pluck 1 D 1"
				Note Time="60" Value="A3" Duration="6" Release="5" Instrument="Pluck 1 D 1"
				Note Time="66" Value="D4" Duration="6" Release="5" Instrument="Pluck 1 D 1"
				Note Time="72" Value="F#4" Duration="6" Release="5" Instrument="Pluck 1 D 1"
				Note Time="78" Value="D4" Duration="6" Release="5" Instrument="Pluck 1 D 1"
				Note Time="84" Value="A3" Duration="6" Release="5" Instrument="Pluck 1 D 1"
				Note Time="90" Value="D4" Duration="6" Release="5" Instrument="Pluck 1 D 1"
			Pattern Name="How2Bboss's Pattern16"
				Note Time="0" Value="G4" Duration="6" Release="5" Instrument="Pluck 1 D 1"
				Note Time="6" Value="D4" Duration="6" Release="5" Instrument="Pluck 1 D 1"
				Note Time="12" Value="A#3" Duration="6" Release="5" Instrument="Pluck 1 D 1"
				Note Time="18" Value="D4" Duration="6" Release="5" Instrument="Pluck 1 D 1"
				Note Time="24" Value="D5" Duration="6" Release="5" Instrument="Pluck 1 D 1"
				Note Time="30" Value="D4" Duration="6" Release="5" Instrument="Pluck 1 D 1"
				Note Time="36" Value="A#3" Duration="6" Release="5" Instrument="Pluck 1 D 1"
				Note Time="42" Value="D4" Duration="6" Release="5" Instrument="Pluck 1 D 1"
				Note Time="48" Value="A4" Duration="6" Release="5" Instrument="Pluck 1 D 1"
				Note Time="54" Value="D4" Duration="6" Release="5" Instrument="Pluck 1 D 1"
				Note Time="60" Value="A3" Duration="6" Release="5" Instrument="Pluck 1 D 1"
				Note Time="66" Value="D4" Duration="6" Release="5" Instrument="Pluck 1 D 1"
				Note Time="72" Value="D5" Duration="6" Release="5" Instrument="Pluck 1 D 1"
				Note Time="78" Value="D4" Duration="6" Release="5" Instrument="Pluck 1 D 1"
				Note Time="84" Value="A3" Duration="6" Release="5" Instrument="Pluck 1 D 1"
				Note Time="90" Value="D4" Duration="6" Release="5" Instrument="Pluck 1 D 1"
			PatternInstance Time="0" Pattern="How2Bboss's Pattern01"
			PatternInstance Time="1" Pattern="How2Bboss's Pattern01"
			PatternInstance Time="2" Pattern="How2Bboss's Pattern01"
			PatternInstance Time="3" Pattern="How2Bboss's Pattern01"
			PatternInstance Time="4" Pattern="How2Bboss's Pattern07"
			PatternInstance Time="5" Pattern="How2Bboss's Pattern04"
			PatternInstance Time="6" Pattern="How2Bboss's Pattern04"
			PatternInstance Time="7" Pattern="How2Bboss's Pattern04"
			PatternInstance Time="8" Pattern="How2Bboss's Pattern05"
			PatternInstance Time="9" Pattern="How2Bboss's Pattern02"
			PatternInstance Time="10" Pattern="How2Bboss's Pattern04"
			PatternInstance Time="11" Pattern="How2Bboss's Pattern04"
			PatternInstance Time="12" Pattern="How2Bboss's Pattern04"
			PatternInstance Time="13" Pattern="How2Bboss's Pattern04"
			PatternInstance Time="14" Pattern="How2Bboss's Pattern04"
			PatternInstance Time="15" Pattern="How2Bboss's Pattern04"
			PatternInstance Time="16" Pattern="How2Bboss's Pattern04"
			PatternInstance Time="17" Pattern="How2Bboss's Pattern04"
			PatternInstance Time="18" Pattern="How2Bboss's Pattern03"
			PatternInstance Time="19" Pattern="How2Bboss's Pattern04"
			PatternInstance Time="20" Pattern="How2Bboss's Pattern04"
			PatternInstance Time="21" Pattern="How2Bboss's Pattern04"
			PatternInstance Time="22" Pattern="How2Bboss's Pattern05"
			PatternInstance Time="23" Pattern="How2Bboss's Pattern02"
			PatternInstance Time="24" Pattern="How2Bboss's Pattern08"
			PatternInstance Time="25" Pattern="How2Bboss's Pattern09"
			PatternInstance Time="26" Pattern="How2Bboss's Pattern10"
			PatternInstance Time="27" Pattern="How2Bboss's Pattern11"
			PatternInstance Time="28" Pattern="How2Bboss's Pattern08"
			PatternInstance Time="29" Pattern="How2Bboss's Pattern09"
			PatternInstance Time="30" Pattern="How2Bboss's Pattern10"
			PatternInstance Time="31" Pattern="How2Bboss's Pattern16"
		Channel Type="Square2"
			Pattern Name="How2Bboss's Pattern02"
				Note Time="0" Value="G1" Duration="16" Release="11" Instrument="Pluck 3" FinePitch="-4"
				Note Time="18" Value="G1" Duration="16" Release="11" Instrument="Pluck 3"
				Note Time="36" Value="G1" Duration="16" Release="11" Instrument="Pluck 3"
				Note Time="54" Value="G1" Duration="16" Release="11" Instrument="Pluck 3"
				Note Time="72" Value="F#1" Duration="3" Instrument="Pluck 3"
				Note Time="78" Value="F#1" Duration="3" Instrument="Pluck 3"
			Pattern Name="How2Bboss's Pattern04"
				Note Time="0" Value="G1" Duration="12" Release="11" Instrument="Pluck 3"
				Note Time="12" Value="A#2" Duration="6" Instrument="Vol 9 R6"
				Note Time="18" Value="G1" Duration="6" Instrument="Pluck 3"
				Note Time="24" Value="G2" Duration="6" Instrument="Vol 9 R6"
				Note Time="36" Value="D2" Duration="12" Release="11" Instrument="Pluck 3"
				Note Time="48" Value="F#2" Duration="6" Instrument="Vol 9 R6"
				Note Time="54" Value="G1" Duration="6" Instrument="Pluck 3"
				Note Time="60" Value="G2" Duration="6" Instrument="Vol 9 R6"
				Note Time="72" Value="D2" Duration="6" Instrument="Vol 9 R6"
				Note Time="78" Value="F#1" Duration="3" Instrument="Pluck 3"
			Pattern Name="How2Bboss's Pattern03"
				Note Time="0" Value="A#0" Duration="5" Instrument="Pluck 3"
				Note Time="6" Value="A#0" Duration="5" Instrument="Pluck 3"
				Note Time="12" Value="A#0" Duration="11" Instrument="Pluck 3"
				Note Time="24" Value="A0" Duration="5" Instrument="Pluck 3"
				Note Time="30" Value="A0" Duration="5" Instrument="Pluck 3"
				Note Time="36" Value="A0" Duration="11" Instrument="Pluck 3"
				Note Time="48" Value="G#1" Duration="5" Instrument="Pluck 3"
				Note Time="54" Value="G#1" Duration="5" Instrument="Pluck 3"
				Note Time="60" Value="G#1" Duration="11" Instrument="Pluck 3"
				Note Time="72" Value="F1" Duration="5" Instrument="Pluck 3"
				Note Time="78" Value="F1" Duration="5" Instrument="Pluck 3"
				Note Time="84" Value="F1" Duration="11" Instrument="Pluck 3"
				Note Time="96" Value="D#1" Duration="5" Instrument="Pluck 3"
				Note Time="102" Value="D#1" Duration="5" Instrument="Pluck 3"
				Note Time="108" Value="D#1" Duration="11" Instrument="Pluck 3"
				Note Time="120" Value="D1" Duration="5" Instrument="Pluck 3"
				Note Time="126" Value="D1" Duration="5" Instrument="Pluck 3"
				Note Time="132" Value="D1" Duration="11" Instrument="Pluck 3"
			Pattern Name="How2Bboss's Pattern14"
				Note Time="0" Value="A#2" Duration="3" Instrument="Pluck 3"
				Note Time="3" Value="G1" Duration="3" Instrument="Pluck 3" Attack="False"
				Note Time="6" Value="A#2" Duration="3" Instrument="Pluck 3"
				Note Time="12" Value="G1" Duration="6" Instrument="Pluck 3" Attack="False"
				Note Time="18" Value="A#2" Duration="3" Instrument="Pluck 3"
				Note Time="21" Value="G1" Duration="3" Instrument="Pluck 3" Attack="False"
				Note Time="24" Value="A#2" Duration="3" Instrument="Pluck 3"
				Note Time="30" Value="G1" Duration="6" Instrument="Pluck 3" Attack="False"
				Note Time="36" Value="A#2" Duration="3" Instrument="Pluck 3"
				Note Time="39" Value="G1" Duration="3" Instrument="Pluck 3" Attack="False"
				Note Time="42" Value="A#2" Duration="3" Instrument="Pluck 3"
				Note Time="48" Value="G1" Duration="6" Instrument="Pluck 3" Attack="False"
				Note Time="54" Value="A#2" Duration="3" Instrument="Pluck 3"
				Note Time="57" Value="G1" Duration="3" Instrument="Pluck 3" Attack="False"
				Note Time="60" Value="A#2" Duration="3" Instrument="Pluck 3"
				Note Time="66" Value="G1" Duration="6" Instrument="Pluck 3" Attack="False"
				Note Time="72" Value="A#2" Duration="3" Instrument="Pluck 3"
				Note Time="75" Value="F#1" Duration="3" Instrument="Pluck 3" Attack="False"
				Note Time="78" Value="A#2" Duration="3" Instrument="Pluck 3"
				Note Time="81" Value="F#1" Duration="3" Instrument="Pluck 3" Attack="False"
			Pattern Name="How2Bboss's Pattern05"
				Note Time="0" Value="G1" Duration="6" Instrument="Pluck 3"
				Note Time="6" Value="D3" Duration="3" Instrument="Pluck 3"
				Note Time="12" Value="A#2" Duration="6" Instrument="Vol 6"
				Note Time="18" Value="G1" Duration="6" Instrument="Pluck 3"
				Note Time="24" Value="D3" Duration="3" Instrument="Pluck 3"
				Note Time="30" Value="G1" Duration="3" Instrument="Pluck 3"
				Note Time="36" Value="G1" Duration="6" Instrument="Pluck 3"
				Note Time="42" Value="D3" Duration="3" Instrument="Pluck 3"
				Note Time="48" Value="F#2" Duration="6" Instrument="Vol 6"
				Note Time="54" Value="G1" Duration="6" Instrument="Pluck 3"
				Note Time="60" Value="D3" Duration="3" Instrument="Pluck 3"
				Note Time="66" Value="G1" Duration="6" Instrument="Pluck 3"
				Note Time="75" Value="F#1" Duration="3" Instrument="Pluck 3" Attack="False"
				Note Time="78" Value="D3" Duration="3" Instrument="Pluck 3"
				Note Time="81" Value="F#1" Duration="3" Instrument="Pluck 3" Attack="False"
			Pattern Name="How2Bboss's Pattern10"
				Note Time="0" Value="D2" Duration="24" Instrument="Pluck 3"
				Note Time="24" Value="C#2" Duration="24" Instrument="Pluck 3"
				Note Time="48" Value="C2" Duration="24" Instrument="Pluck 3"
				Note Time="72" Value="B1" Duration="24" Instrument="Pluck 3"
				Note Time="96" Value="A#1" Duration="24" Instrument="Pluck 3"
				Note Time="120" Value="F#1" Duration="24" Instrument="Pluck 3"
			Pattern Name="How2Bboss's Pattern11"
				Note Time="0" Value="G1" Duration="12" Release="11" Instrument="Pluck 3"
				Note Time="12" Value="A#2" Duration="6" Instrument="D3"
				Note Time="18" Value="G1" Duration="6" Instrument="Pluck 3"
				Note Time="24" Value="G2" Duration="6" Instrument="D2"
				Note Time="36" Value="G1" Duration="6" Instrument="Pluck 3"
				Note Time="42" Value="D2" Duration="6" Instrument="D1"
				Note Time="48" Value="F#2" Duration="6" Instrument="D1"
				Note Time="54" Value="G1" Duration="6" Instrument="Pluck 3" FinePitch="-3"
				Note Time="60" Value="G2" Duration="6" Instrument="D2"
				Note Time="72" Value="D2" Duration="6" Instrument="D3"
				Note Time="78" Value="F#1" Duration="3" Instrument="Pluck 3"
			Pattern Name="How2Bboss's Pattern12"
				Note Time="0" Value="G1" Duration="12" Release="11" Instrument="Pluck 3"
				Note Time="12" Value="A#2" Duration="6" Instrument="D3"
				Note Time="18" Value="G1" Duration="6" Instrument="Pluck 3"
				Note Time="24" Value="G2" Duration="6" Instrument="D2"
				Note Time="36" Value="G1" Duration="6" Instrument="Pluck 3"
				Note Time="42" Value="D2" Duration="6" Instrument="D1"
				Note Time="48" Value="F#2" Duration="6" Instrument="D1" FinePitch="-1"
				Note Time="54" Value="G1" Duration="6" Instrument="Pluck 3"
				Note Time="60" Value="G2" Duration="6" Instrument="D2"
				Note Time="66" Value="G2" Duration="6" Instrument="D2"
				Note Time="72" Value="A#2" Duration="6" Instrument="D3"
				Note Time="78" Value="F3" Duration="6" Instrument="D3"
			Pattern Name="How2Bboss's Pattern13"
				Note Time="0" Value="F3" Duration="6" Instrument="D3"
				Note Time="6" Value="A#0" Duration="5" Instrument="Pluck 3"
				Note Time="12" Value="A#0" Duration="11" Instrument="Pluck 3"
				Note Time="24" Value="D#3" Duration="6" Instrument="D3"
				Note Time="30" Value="A0" Duration="5" Instrument="Pluck 3"
				Note Time="36" Value="A0" Duration="11" Instrument="Pluck 3"
				Note Time="48" Value="A#3" Duration="6" Instrument="D3"
				Note Time="54" Value="G#1" Duration="5" Instrument="Pluck 3"
				Note Time="60" Value="G#1" Duration="11" Instrument="Pluck 3"
				Note Time="72" Value="B3" Duration="6" Instrument="D3"
				Note Time="78" Value="F1" Duration="5" Instrument="Pluck 3"
				Note Time="84" Value="F1" Duration="11" Instrument="Pluck 3"
				Note Time="96" Value="A#3" Duration="6" Instrument="D2"
				Note Time="102" Value="D#1" Duration="5" Instrument="Pluck 3"
				Note Time="108" Value="D#1" Duration="11" Instrument="Pluck 3"
				Note Time="120" Value="A3" Duration="6" Instrument="D1"
				Note Time="126" Value="D1" Duration="5" Instrument="Pluck 3"
				Note Time="132" Value="D1" Duration="11" Instrument="Pluck 3"
			Pattern Name="How2Bboss's Pattern01"
				Note Time="0" Value="G1" Duration="5" Instrument="Pluck 3" FinePitch="-3"
				Note Time="6" Value="G1" Duration="5" Instrument="Pluck 3"
				Note Time="12" Value="G1" Duration="11" Instrument="Pluck 3"
				Note Time="24" Value="G1" Duration="5" Instrument="Pluck 3"
				Note Time="30" Value="G1" Duration="5" Instrument="Pluck 3"
				Note Time="36" Value="G1" Duration="11" Instrument="Pluck 3"
				Note Time="48" Value="A1" Duration="5" Instrument="Pluck 3"
				Note Time="54" Value="A1" Duration="5" Instrument="Pluck 3"
				Note Time="60" Value="A0" Duration="11" Instrument="Pluck 3"
				Note Time="72" Value="A1" Duration="5" Instrument="Pluck 3"
				Note Time="78" Value="A1" Duration="5" Instrument="Pluck 3"
				Note Time="84" Value="A1" Duration="11" Instrument="Pluck 3"
			Pattern Name="How2Bboss's Pattern06"
				Note Time="0" Value="A#0" Duration="17" Instrument="Pluck 3"
				Note Time="18" Value="A#1" Duration="5" Instrument="Pluck 3"
				Note Time="24" Value="A#1" Duration="5" Instrument="Pluck 3"
				Note Time="30" Value="A#1" Duration="5" Instrument="Pluck 3"
				Note Time="36" Value="A#0" Duration="11" Instrument="Pluck 3"
				Note Time="48" Value="D#2" Duration="5" Instrument="Pluck 3"
				Note Time="54" Value="D#1" Duration="11" Instrument="Pluck 3"
				Note Time="66" Value="D2" Duration="5" Instrument="Pluck 3"
				Note Time="72" Value="D2" Duration="5" Instrument="Pluck 3"
				Note Time="78" Value="D2" Duration="17" Instrument="Pluck 3"
			Pattern Name="How2Bboss's Pattern07"
				Note Time="0" Value="C1" Duration="5" Instrument="Pluck 3"
				Note Time="6" Value="C1" Duration="5" Instrument="Pluck 3"
				Note Time="12" Value="C2" Duration="5" Instrument="Pluck 3"
				Note Time="18" Value="C1" Duration="5" Instrument="Pluck 3"
				Note Time="24" Value="C1" Duration="5" Instrument="Pluck 3"
				Note Time="30" Value="C2" Duration="5" Instrument="Pluck 3"
				Note Time="36" Value="C2" Duration="5" Instrument="Pluck 3"
				Note Time="42" Value="C1" Duration="5" Instrument="Pluck 3"
				Note Time="48" Value="A#0" Duration="5" Instrument="Pluck 3"
				Note Time="54" Value="A#0" Duration="5" Instrument="Pluck 3"
				Note Time="60" Value="A#1" Duration="11" Instrument="Pluck 3"
				Note Time="72" Value="A#0" Duration="5" Instrument="Pluck 3"
				Note Time="78" Value="A#1" Duration="11" Instrument="Pluck 3"
				Note Time="90" Value="A#0" Duration="5" Instrument="Pluck 3"
			Pattern Name="How2Bboss's Pattern08"
				Note Time="0" Value="A#0" Duration="5" Instrument="Pluck 3"
				Note Time="6" Value="A#1" Duration="11" Instrument="Pluck 3"
				Note Time="18" Value="A#1" Duration="5" Instrument="Pluck 3"
				Note Time="24" Value="A#1" Duration="11" Instrument="Pluck 3"
				Note Time="36" Value="A#1" Duration="5" Instrument="Pluck 3"
				Note Time="42" Value="A#1" Duration="5" Instrument="Pluck 3"
				Note Time="48" Value="A1" Duration="5" Instrument="Pluck 3"
				Note Time="54" Value="A0" Duration="11" Instrument="Pluck 3"
				Note Time="66" Value="A1" Duration="5" Instrument="Pluck 3"
				Note Time="72" Value="F#1" Duration="11" Instrument="Pluck 3"
				Note Time="84" Value="F#1" Duration="5" Instrument="Pluck 3"
				Note Time="90" Value="F#1" Duration="5" Instrument="Pluck 3"
			Pattern Name="How2Bboss's Pattern09"
				Note Time="0" Value="A#1" Duration="5" Instrument="Pluck 3"
				Note Time="6" Value="A#1" Duration="11" Instrument="Pluck 3"
				Note Time="18" Value="G1" Duration="5" Instrument="Pluck 3"
				Note Time="24" Value="G1" Duration="11" Instrument="Pluck 3"
				Note Time="36" Value="G1" Duration="5" Instrument="Pluck 3"
				Note Time="42" Value="G1" Duration="5" Instrument="Pluck 3"
				Note Time="48" Value="A1" Duration="5" Instrument="Pluck 3"
				Note Time="54" Value="A1" Duration="11" Instrument="Pluck 3"
				Note Time="66" Value="F#1" Duration="5" Instrument="Pluck 3"
				Note Time="72" Value="F#1" Duration="11" Instrument="Pluck 3"
				Note Time="84" Value="F#1" Duration="5" Instrument="Pluck 3"
				Note Time="90" Value="F#1" Duration="5" Instrument="Pluck 3"
			PatternInstance Time="5" Pattern="How2Bboss's Pattern02"
			PatternInstance Time="6" Pattern="How2Bboss's Pattern02"
			PatternInstance Time="7" Pattern="How2Bboss's Pattern04"
			PatternInstance Time="8" Pattern="How2Bboss's Pattern04"
			PatternInstance Time="9" Pattern="How2Bboss's Pattern03"
			PatternInstance Time="10" Pattern="How2Bboss's Pattern14"
			PatternInstance Time="11" Pattern="How2Bboss's Pattern14"
			PatternInstance Time="12" Pattern="How2Bboss's Pattern14"
			PatternInstance Time="13" Pattern="How2Bboss's Pattern14"
			PatternInstance Time="14" Pattern="How2Bboss's Pattern05"
			PatternInstance Time="15" Pattern="How2Bboss's Pattern05"
			PatternInstance Time="16" Pattern="How2Bboss's Pattern05"
			PatternInstance Time="17" Pattern="How2Bboss's Pattern05"
			PatternInstance Time="18" Pattern="How2Bboss's Pattern10"
			PatternInstance Time="19" Pattern="How2Bboss's Pattern04"
			PatternInstance Time="20" Pattern="How2Bboss's Pattern04"
			PatternInstance Time="21" Pattern="How2Bboss's Pattern11"
			PatternInstance Time="22" Pattern="How2Bboss's Pattern12"
			PatternInstance Time="23" Pattern="How2Bboss's Pattern13"
			PatternInstance Time="24" Pattern="How2Bboss's Pattern01"
			PatternInstance Time="25" Pattern="How2Bboss's Pattern06"
			PatternInstance Time="26" Pattern="How2Bboss's Pattern07"
			PatternInstance Time="27" Pattern="How2Bboss's Pattern08"
			PatternInstance Time="28" Pattern="How2Bboss's Pattern01"
			PatternInstance Time="29" Pattern="How2Bboss's Pattern06"
			PatternInstance Time="30" Pattern="How2Bboss's Pattern07"
			PatternInstance Time="31" Pattern="How2Bboss's Pattern09"
		Channel Type="Triangle"
			Pattern Name="How2Bboss's Pattern03"
				Note Time="0" Value="G2" Duration="12" Instrument="Tri Bass"
				Note Time="18" Value="G2" Duration="12" Instrument="Tri Bass"
				Note Time="36" Value="G2" Duration="12" Instrument="Tri Bass"
				Note Time="54" Value="G2" Duration="12" Instrument="Tri Bass"
				Note Time="72" Value="F#2" Duration="4" Instrument="Tri Bass"
				Note Time="78" Value="F#2" Duration="4" Instrument="Tri Bass"
			Pattern Name="How2Bboss's Pattern05"
				Note Time="0" Value="G2" Duration="12" Instrument="Tri Bass"
				Note Time="12" Value="G3" Duration="12" Instrument="Tri Bass"
				Note Time="24" Value="A#1" Duration="12" Instrument="Tri Bass"
				Note Time="36" Value="A#2" Duration="12" Instrument="Tri Bass"
				Note Time="48" Value="A1" Duration="12" Instrument="Tri Bass"
				Note Time="60" Value="A2" Duration="12" Instrument="Tri Bass"
				Note Time="72" Value="C2" Duration="12" Instrument="Tri Bass"
				Note Time="84" Value="C3" Duration="12" Instrument="Tri Bass"
				Note Time="96" Value="D#2" Duration="12" Instrument="Tri Bass"
				Note Time="108" Value="D#3" Duration="12" Instrument="Tri Bass"
				Note Time="120" Value="A#1" Duration="12" Instrument="Tri Bass"
				Note Time="132" Value="A#2" Duration="12" Instrument="Tri Bass"
			Pattern Name="How2Bboss's Pattern01"
				Note Time="0" Value="G1" Duration="5" Instrument="Tri Bass 1"
				Note Time="6" Value="G1" Duration="17" Instrument="Tri Bass 1"
				Note Time="24" Value="G1" Duration="17" Instrument="Tri Bass 1"
				Note Time="42" Value="G1" Duration="17" Instrument="Tri Bass 1"
				Note Time="60" Value="G1" Duration="11" Instrument="Tri Bass 1"
				Note Time="72" Value="F#1" Duration="6" Instrument="Tri Bass 1"
				Note Time="78" Value="F#2" Duration="6" Instrument="Tri Bass 1"
			Pattern Name="How2Bboss's Pattern02"
				Note Time="0" Value="D4" Duration="24" Instrument="Tri Bass"
				Note Time="24" Value="A#4" Duration="24" Instrument="Tri Bass"
				Note Time="48" Value="G#4" Duration="24" Instrument="Tri Bass"
				Note Time="72" Value="D#4" Duration="24" Instrument="Tri Bass"
				Note Time="96" Value="G4" Duration="24" Instrument="Tri Bass"
				Note Time="120" Value="F#4" Duration="24" Instrument="Tri Bass"
			Pattern Name="How2Bboss's Pattern04"
				Note Time="0" Value="G4" Duration="72" Instrument="Tri Vib"
				Note Time="72" Value="G4" Duration="12" Instrument="Tri Vib" SlideTarget="G2" Attack="False"
			Pattern Name="How2Bboss's Pattern06"
				Note Time="0" Value="G2" Duration="12" Instrument="Tri Bass"
				Note Time="12" Value="A#4" Duration="6" Instrument="Tri Bass"
				Note Time="18" Value="A#4" Duration="6" Instrument="Tri Bass"
				Note Time="24" Value="F#2" Duration="12" Instrument="Tri Bass"
				Note Time="36" Value="C#4" Duration="6" Instrument="Tri Bass"
				Note Time="42" Value="C#4" Duration="6" Instrument="Tri Bass"
				Note Time="48" Value="F2" Duration="12" Instrument="Tri Bass"
				Note Time="60" Value="G#4" Duration="6" Instrument="Tri Bass"
				Note Time="66" Value="G#4" Duration="6" Instrument="Tri Bass"
				Note Time="72" Value="E2" Duration="12" Instrument="Tri Bass"
				Note Time="84" Value="G4" Duration="6" Instrument="Tri Bass"
				Note Time="90" Value="G4" Duration="6" Instrument="Tri Bass"
				Note Time="96" Value="D#2" Duration="12" Instrument="Tri Bass"
				Note Time="108" Value="F#4" Duration="6" Instrument="Tri Bass"
				Note Time="114" Value="F#4" Duration="6" Instrument="Tri Bass"
				Note Time="120" Value="F#2" Duration="12" Instrument="Tri Bass"
				Note Time="132" Value="F#4" Duration="6" Instrument="Tri Bass"
				Note Time="138" Value="F#4" Duration="6" Instrument="Tri Bass"
			Pattern Name="How2Bboss's Pattern09"
				Note Time="0" Value="G2" Duration="18" Instrument="Tri Bass 1"
				Note Time="18" Value="G2" Duration="18" Instrument="Tri Bass 1"
				Note Time="36" Value="G2" Duration="12" Instrument="Tri Bass 1"
				Note Time="48" Value="A2" Duration="18" Instrument="Tri Bass 1"
				Note Time="66" Value="A2" Duration="18" Instrument="Tri Bass 1"
				Note Time="84" Value="A2" Duration="12" Instrument="Tri Bass 1"
			Pattern Name="How2Bboss's Pattern10"
				Note Time="0" Value="A#2" Duration="18" Instrument="Tri Bass 1"
				Note Time="18" Value="A#2" Duration="18" Instrument="Tri Bass 1"
				Note Time="36" Value="A#2" Duration="12" Instrument="Tri Bass 1"
				Note Time="48" Value="B2" Duration="18" Instrument="Tri Bass 1"
				Note Time="66" Value="B2" Duration="18" Instrument="Tri Bass 1"
				Note Time="84" Value="B2" Duration="12" Instrument="Tri Bass 1"
			Pattern Name="How2Bboss's Pattern11"
				Note Time="0" Value="C3" Duration="18" Instrument="Tri Bass 1"
				Note Time="18" Value="C4" Duration="6" Instrument="Tri Bass 1"
				Note Time="24" Value="C3" Duration="12" Instrument="Tri Bass 1"
				Note Time="36" Value="C3" Duration="12" Instrument="Tri Bass 1"
				Note Time="48" Value="A#2" Duration="18" Instrument="Tri Bass 1"
				Note Time="66" Value="A#2" Duration="18" Instrument="Tri Bass 1"
				Note Time="84" Value="C#3" Duration="12" Instrument="Tri Bass 1"
			Pattern Name="How2Bboss's Pattern12"
				Note Time="0" Value="D3" Duration="18" Instrument="Tri Bass 1"
				Note Time="18" Value="D3" Duration="18" Instrument="Tri Bass 1"
				Note Time="36" Value="D3" Duration="12" Instrument="Tri Bass 1"
				Note Time="48" Value="D4" Duration="18" Instrument="Tri Bass 1"
				Note Time="66" Value="D4" Duration="18" Instrument="Tri Bass 1"
				Note Time="84" Value="D3" Duration="12" Instrument="Tri Bass 1"
			PatternInstance Time="0" Pattern="How2Bboss's Pattern03"
			PatternInstance Time="1" Pattern="How2Bboss's Pattern03"
			PatternInstance Time="2" Pattern="How2Bboss's Pattern03"
			PatternInstance Time="3" Pattern="How2Bboss's Pattern03"
			PatternInstance Time="4" Pattern="How2Bboss's Pattern05"
			PatternInstance Time="5" Pattern="How2Bboss's Pattern01"
			PatternInstance Time="6" Pattern="How2Bboss's Pattern01"
			PatternInstance Time="7" Pattern="How2Bboss's Pattern01"
			PatternInstance Time="8" Pattern="How2Bboss's Pattern01"
			PatternInstance Time="9" Pattern="How2Bboss's Pattern02"
			PatternInstance Time="10" Pattern="How2Bboss's Pattern04"
			PatternInstance Time="11" Pattern="How2Bboss's Pattern03"
			PatternInstance Time="12" Pattern="How2Bboss's Pattern03"
			PatternInstance Time="13" Pattern="How2Bboss's Pattern03"
			PatternInstance Time="14" Pattern="How2Bboss's Pattern01"
			PatternInstance Time="15" Pattern="How2Bboss's Pattern01"
			PatternInstance Time="16" Pattern="How2Bboss's Pattern01"
			PatternInstance Time="17" Pattern="How2Bboss's Pattern01"
			PatternInstance Time="18" Pattern="How2Bboss's Pattern06"
			PatternInstance Time="19" Pattern="How2Bboss's Pattern01"
			PatternInstance Time="20" Pattern="How2Bboss's Pattern01"
			PatternInstance Time="21" Pattern="How2Bboss's Pattern01"
			PatternInstance Time="22" Pattern="How2Bboss's Pattern01"
			PatternInstance Time="23" Pattern="How2Bboss's Pattern02"
			PatternInstance Time="24" Pattern="How2Bboss's Pattern09"
			PatternInstance Time="25" Pattern="How2Bboss's Pattern10"
			PatternInstance Time="26" Pattern="How2Bboss's Pattern11"
			PatternInstance Time="27" Pattern="How2Bboss's Pattern12"
			PatternInstance Time="28" Pattern="How2Bboss's Pattern09"
			PatternInstance Time="29" Pattern="How2Bboss's Pattern10"
			PatternInstance Time="30" Pattern="How2Bboss's Pattern11"
			PatternInstance Time="31" Pattern="How2Bboss's Pattern12"
		Channel Type="Noise"
			Pattern Name="How2Bboss's Pattern01"
				Note Time="0" Value="D#5" Duration="6" Instrument="Snare 1"
				Note Time="18" Value="D#5" Duration="6" Instrument="Snare 1"
				Note Time="36" Value="D#5" Duration="6" Instrument="Snare 1"
				Note Time="54" Value="D#5" Duration="6" Instrument="Snare 1"
				Note Time="72" Value="D#5" Duration="6" Instrument="Snare 1"
				Note Time="78" Value="D#5" Duration="6" Instrument="Snare 1"
			Pattern Name="How2Bboss's Pattern02"
				Note Time="0" Value="D#5" Duration="6" Instrument="Snare 1"
				Note Time="6" Value="A#4" Duration="3" Instrument="Hi Hat 1"
				Note Time="12" Value="A#4" Duration="3" Instrument="Hi Hat 1"
				Note Time="18" Value="D#5" Duration="6" Instrument="Snare 1"
				Note Time="24" Value="A#4" Duration="3" Instrument="Hi Hat 1"
				Note Time="30" Value="A#4" Duration="3" Instrument="Hi Hat 1"
				Note Time="36" Value="D#5" Duration="6" Instrument="Snare 1"
				Note Time="42" Value="A#4" Duration="3" Instrument="Hi Hat 1"
				Note Time="48" Value="A#4" Duration="3" Instrument="Hi Hat 1"
				Note Time="54" Value="D#5" Duration="6" Instrument="Snare 1"
				Note Time="60" Value="A#4" Duration="4" Instrument="Hi Hat 1"
				Note Time="64" Value="A#4" Duration="4" Instrument="Hi Hat 1"
				Note Time="68" Value="A#4" Duration="4" Instrument="Hi Hat 1"
				Note Time="72" Value="D#5" Duration="6" Instrument="Snare 1"
				Note Time="78" Value="D#5" Duration="6" Instrument="Snare 1"
			Pattern Name="How2Bboss's Pattern04"
				Note Time="0" Value="D#5" Duration="6" Instrument="Snare 1"
				Note Time="6" Value="A#4" Duration="6" Instrument="Hi Hat 1"
				Note Time="12" Value="G#4" Duration="6" Instrument="Snare Louder 2"
				Note Time="18" Value="A#4" Duration="3" Instrument="Hi Hat 1"
				Note Time="21" Value="A#4" Duration="3" Instrument="Hi Hat 1"
				Note Time="24" Value="D#5" Duration="6" Instrument="Snare 1"
				Note Time="30" Value="A#4" Duration="6" Instrument="Hi Hat 1"
				Note Time="36" Value="G#4" Duration="6" Instrument="Snare Louder 2"
				Note Time="42" Value="A#4" Duration="3" Instrument="Hi Hat 1"
				Note Time="45" Value="A#4" Duration="3" Instrument="Hi Hat 1"
				Note Time="48" Value="D#5" Duration="3" Instrument="Snare 1"
				Note Time="51" Value="A#4" Duration="3" Instrument="Hi Hat 1"
				Note Time="54" Value="A#4" Duration="3" Instrument="Hi Hat 1"
				Note Time="57" Value="A#4" Duration="3" Instrument="Hi Hat 1"
				Note Time="60" Value="G#4" Duration="6" Instrument="Snare Louder 2"
				Note Time="66" Value="A#4" Duration="6" Instrument="Hi Hat 1"
				Note Time="72" Value="D#5" Duration="6" Instrument="Snare 1"
				Note Time="78" Value="A#4" Duration="3" Instrument="Hi Hat 1"
				Note Time="84" Value="A#4" Duration="3" Instrument="Hi Hat 1"
				Note Time="90" Value="A#4" Duration="3" Instrument="Hi Hat 1"
				Note Time="96" Value="D#5" Duration="6" Instrument="Snare 1"
				Note Time="102" Value="A#4" Duration="6" Instrument="Hi Hat 1"
				Note Time="108" Value="G#4" Duration="6" Instrument="Snare Louder 2"
				Note Time="114" Value="G#4" Duration="6" Instrument="Snare Louder 2"
				Note Time="120" Value="G#4" Duration="6" Instrument="Snare Louder 2"
				Note Time="126" Value="A#4" Duration="6" Instrument="Hi Hat 1"
				Note Time="132" Value="D#5" Duration="6" Instrument="Snare 1"
				Note Time="138" Value="D#5" Duration="6" Instrument="Snare 1"
			Pattern Name="How2Bboss's Pattern03"
				Note Time="0" Value="D#5" Duration="6" Instrument="Snare Louder"
				Note Time="6" Value="C5" Duration="6" Instrument="Hi Hat"
				Note Time="12" Value="G#4" Duration="6" Instrument="Snare Louder 1"
				Note Time="18" Value="C5" Duration="3" Instrument="Hi Hat"
				Note Time="21" Value="C5" Duration="3" Instrument="Hi Hat"
				Note Time="24" Value="D#5" Duration="6" Instrument="Snare Louder"
				Note Time="30" Value="C5" Duration="6" Instrument="Hi Hat"
				Note Time="36" Value="G#4" Duration="6" Instrument="Snare Louder 1"
				Note Time="42" Value="C5" Duration="3" Instrument="Hi Hat"
				Note Time="45" Value="C5" Duration="3" Instrument="Hi Hat"
				Note Time="48" Value="D#5" Duration="3" Instrument="Snare Louder"
				Note Time="51" Value="C5" Duration="3" Instrument="Hi Hat"
				Note Time="54" Value="C5" Duration="3" Instrument="Hi Hat"
				Note Time="57" Value="C5" Duration="3" Instrument="Hi Hat"
				Note Time="60" Value="G#4" Duration="6" Instrument="Snare Louder 1"
				Note Time="66" Value="C5" Duration="6" Instrument="Hi Hat"
				Note Time="72" Value="D#5" Duration="6" Instrument="Snare Louder"
				Note Time="78" Value="C5" Duration="3" Instrument="Hi Hat"
				Note Time="84" Value="C5" Duration="3" Instrument="Hi Hat"
				Note Time="90" Value="C5" Duration="3" Instrument="Hi Hat"
				Note Time="96" Value="D#5" Duration="6" Instrument="Snare Louder"
				Note Time="102" Value="C5" Duration="6" Instrument="Hi Hat"
				Note Time="108" Value="G#4" Duration="6" Instrument="Snare Louder 1"
				Note Time="114" Value="G#4" Duration="6" Instrument="Snare Louder 1"
				Note Time="120" Value="G#4" Duration="6" Instrument="Snare Louder 1"
				Note Time="126" Value="C5" Duration="6" Instrument="Hi Hat"
				Note Time="132" Value="D#5" Duration="6" Instrument="Snare Louder"
				Note Time="138" Value="D#5" Duration="6" Instrument="Snare Louder"
			Pattern Name="How2Bboss's Pattern05"
				Note Time="0" Value="D#5" Duration="6" Instrument="Snare Louder"
				Note Time="6" Value="B4" Duration="3" Instrument="Hi Hat"
				Note Time="12" Value="B4" Duration="3" Instrument="Hi Hat"
				Note Time="18" Value="D#5" Duration="6" Instrument="Snare Louder"
				Note Time="24" Value="B4" Duration="3" Instrument="Hi Hat"
				Note Time="30" Value="B4" Duration="3" Instrument="Hi Hat"
				Note Time="36" Value="D#5" Duration="6" Instrument="Snare Louder"
				Note Time="42" Value="B4" Duration="3" Instrument="Hi Hat"
				Note Time="48" Value="B4" Duration="3" Instrument="Hi Hat"
				Note Time="54" Value="D#5" Duration="6" Instrument="Snare Louder"
				Note Time="60" Value="B4" Duration="4" Instrument="Hi Hat"
				Note Time="64" Value="B4" Duration="4" Instrument="Hi Hat"
				Note Time="68" Value="B4" Duration="4" Instrument="Hi Hat"
				Note Time="72" Value="D#5" Duration="6" Instrument="Snare Louder"
				Note Time="78" Value="D#5" Duration="6" Instrument="Snare Louder"
				Note Time="84" Value="B4" Duration="3" Instrument="Hi Hat"
				Note Time="90" Value="B4" Duration="3" Instrument="Hi Hat"
			Pattern Name="How2Bboss's Pattern06"
				Note Time="0" Value="D#5" Duration="6" Instrument="Snare Louder"
				Note Time="6" Value="B4" Duration="3" Instrument="Hi Hat"
				Note Time="12" Value="B4" Duration="3" Instrument="Hi Hat"
				Note Time="18" Value="D#5" Duration="6" Instrument="Snare Louder"
				Note Time="24" Value="B4" Duration="3" Instrument="Hi Hat"
				Note Time="30" Value="B4" Duration="3" Instrument="Hi Hat"
				Note Time="36" Value="D#5" Duration="6" Instrument="Snare Louder"
				Note Time="42" Value="B4" Duration="3" Instrument="Hi Hat"
				Note Time="48" Value="B4" Duration="3" Instrument="Hi Hat"
				Note Time="54" Value="D#5" Duration="6" Instrument="Snare Louder"
				Note Time="60" Value="B4" Duration="4" Instrument="Hi Hat"
				Note Time="64" Value="B4" Duration="4" Instrument="Hi Hat"
				Note Time="68" Value="B4" Duration="4" Instrument="Hi Hat"
				Note Time="72" Value="D#5" Duration="6" Instrument="Snare Louder"
				Note Time="78" Value="D#5" Duration="6" Instrument="Snare Louder"
				Note Time="84" Value="G#4" Duration="6" Instrument="Snare Louder 1"
				Note Time="90" Value="G#4" Duration="6" Instrument="Snare Louder 1"
			PatternInstance Time="0" Pattern="How2Bboss's Pattern01"
			PatternInstance Time="1" Pattern="How2Bboss's Pattern01"
			PatternInstance Time="2" Pattern="How2Bboss's Pattern02"
			PatternInstance Time="3" Pattern="How2Bboss's Pattern02"
			PatternInstance Time="4" Pattern="How2Bboss's Pattern04"
			PatternInstance Time="5" Pattern="How2Bboss's Pattern02"
			PatternInstance Time="6" Pattern="How2Bboss's Pattern02"
			PatternInstance Time="7" Pattern="How2Bboss's Pattern02"
			PatternInstance Time="8" Pattern="How2Bboss's Pattern02"
			PatternInstance Time="9" Pattern="How2Bboss's Pattern03"
			PatternInstance Time="10" Pattern="How2Bboss's Pattern05"
			PatternInstance Time="11" Pattern="How2Bboss's Pattern02"
			PatternInstance Time="12" Pattern="How2Bboss's Pattern02"
			PatternInstance Time="13" Pattern="How2Bboss's Pattern02"
			PatternInstance Time="14" Pattern="How2Bboss's Pattern02"
			PatternInstance Time="15" Pattern="How2Bboss's Pattern02"
			PatternInstance Time="16" Pattern="How2Bboss's Pattern02"
			PatternInstance Time="17" Pattern="How2Bboss's Pattern02"
			PatternInstance Time="18" Pattern="How2Bboss's Pattern04"
			PatternInstance Time="19" Pattern="How2Bboss's Pattern02"
			PatternInstance Time="20" Pattern="How2Bboss's Pattern02"
			PatternInstance Time="21" Pattern="How2Bboss's Pattern02"
			PatternInstance Time="22" Pattern="How2Bboss's Pattern02"
			PatternInstance Time="23" Pattern="How2Bboss's Pattern03"
			PatternInstance Time="24" Pattern="How2Bboss's Pattern05"
			PatternInstance Time="25" Pattern="How2Bboss's Pattern05"
			PatternInstance Time="26" Pattern="How2Bboss's Pattern05"
			PatternInstance Time="27" Pattern="How2Bboss's Pattern06"
			PatternInstance Time="28" Pattern="How2Bboss's Pattern05"
			PatternInstance Time="29" Pattern="How2Bboss's Pattern05"
			PatternInstance Time="30" Pattern="How2Bboss's Pattern05"
			PatternInstance Time="31" Pattern="How2Bboss's Pattern06"
		Channel Type="DPCM"
			Pattern Name="How2Bboss's Pattern01"
				Note Time="0" DeltaCounter="0"
			Pattern Name="How2Bboss's Pattern02"
				Note Time="0" Value="C4" Duration="24" Instrument=".DPCM"
				Note Time="24" Value="B3" Duration="24" Instrument=".DPCM"
				Note Time="48" Value="A#3" Duration="24" Instrument=".DPCM"
				Note Time="72" Value="A3" Duration="24" Instrument=".DPCM"
				Note Time="96" Value="C4" Duration="24" Instrument=".DPCM"
				Note Time="120" Value="G#3" Duration="24" Instrument=".DPCM"
			Pattern Name="How2Bboss's Pattern03"
				Note Time="0" Value="C4" Duration="24" Instrument=".DPCM"
				Note Time="24" Value="C4" Duration="24" Instrument=".DPCM"
				Note Time="48" Value="C4" Duration="24" Instrument=".DPCM"
			Pattern Name="How2Bboss's Pattern04"
				Note Time="0" Value="C4" Duration="24" Instrument=".DPCM"
				Note Time="24" Value="C4" Duration="24" Instrument=".DPCM"
				Note Time="48" Value="B3" Duration="24" Instrument=".DPCM"
				Note Time="72" Value="B3" Duration="24" Instrument=".DPCM"
			Pattern Name="How2Bboss's Pattern05"
				Note Time="0" Value="A3" Duration="24" Instrument=".DPCM"
				Note Time="24" Value="A3" Duration="24" Instrument=".DPCM"
				Note Time="48" Value="A#3" Duration="24" Instrument=".DPCM"
				Note Time="72" Value="A#3" Duration="24" Instrument=".DPCM"
			Pattern Name="How2Bboss's Pattern06"
				Note Time="0" Value="B3" Duration="24" Instrument=".DPCM"
				Note Time="24" Value="B3" Duration="24" Instrument=".DPCM"
				Note Time="48" Value="A3" Duration="24" Instrument=".DPCM"
				Note Time="72" Value="A3" Duration="24" Instrument=".DPCM"
			Pattern Name="How2Bboss's Pattern07"
				Note Time="0" Value="C4" Duration="24" Instrument=".DPCM"
				Note Time="24" Value="C4" Duration="24" Instrument=".DPCM"
				Note Time="48" Value="G#3" Duration="24" Instrument=".DPCM"
				Note Time="72" Value="G#3" Duration="23" Instrument=".DPCM"
			PatternInstance Time="5" Pattern="How2Bboss's Pattern01"
			PatternInstance Time="9" Pattern="How2Bboss's Pattern02"
			PatternInstance Time="10" Pattern="How2Bboss's Pattern03"
			PatternInstance Time="11" Pattern="How2Bboss's Pattern01"
			PatternInstance Time="23" Pattern="How2Bboss's Pattern02"
			PatternInstance Time="24" Pattern="How2Bboss's Pattern04"
			PatternInstance Time="25" Pattern="How2Bboss's Pattern05"
			PatternInstance Time="26" Pattern="How2Bboss's Pattern06"
			PatternInstance Time="27" Pattern="How2Bboss's Pattern07"
			PatternInstance Time="28" Pattern="How2Bboss's Pattern04"
			PatternInstance Time="29" Pattern="How2Bboss's Pattern05"
			PatternInstance Time="30" Pattern="How2Bboss's Pattern06"
			PatternInstance Time="31" Pattern="How2Bboss's Pattern07"
		Channel Type="EPSMFM1"
			Pattern Name="How2Bboss's Pattern02"
				Note Time="0" Value="G2" Duration="336" Instrument="Saw L"
			Pattern Name="How2Bboss's Pattern04"
				Note Time="0" Value="G3" Duration="6" Instrument="Saw L"
				Note Time="6" Value="D4" Duration="6" Instrument="Saw L"
				Note Time="12" Value="G4" Duration="6" Instrument="Saw L"
				Note Time="18" Value="A#4" Duration="6" Instrument="Saw L"
				Note Time="24" Value="G4" Duration="6" Instrument="Saw L"
				Note Time="30" Value="D5" Duration="6" Instrument="Saw L"
				Note Time="36" Value="G5" Duration="6" Instrument="Saw L"
				Note Time="42" Value="A#5" Duration="6" Instrument="Saw L"
				Note Time="48" Value="F#4" Duration="6" Instrument="Saw L"
				Note Time="54" Value="C#5" Duration="6" Instrument="Saw L"
				Note Time="60" Value="F#5" Duration="6" Instrument="Saw L"
				Note Time="66" Value="A5" Duration="6" Instrument="Saw L"
				Note Time="72" Value="C4" Duration="6" Instrument="Saw L"
				Note Time="78" Value="G4" Duration="6" Instrument="Saw L"
				Note Time="84" Value="C5" Duration="6" Instrument="Saw L"
				Note Time="90" Value="D#5" Duration="6" Instrument="Saw L"
				Note Time="96" Value="D#4" Duration="6" Instrument="Saw L"
				Note Time="102" Value="A#4" Duration="6" Instrument="Saw L"
				Note Time="108" Value="D#5" Duration="6" Instrument="Saw L"
				Note Time="114" Value="F#5" Duration="6" Instrument="Saw L"
				Note Time="120" Value="A#4" Duration="6" Instrument="Saw L"
				Note Time="126" Value="F5" Duration="6" Instrument="Saw L"
				Note Time="132" Value="C#6" Duration="6" Instrument="Saw L"
				Note Time="138" Value="A#5" Duration="6" Instrument="Saw L"
			Pattern Name="How2Bboss's Pattern01"
				Note Time="0" Value="G3" Duration="6" Instrument="Saw L"
				Note Time="12" Value="D4" Duration="6" Instrument="Saw L"
				Note Time="24" Value="A#3" Duration="6" Instrument="Saw L"
				Note Time="36" Value="G3" Duration="6" Instrument="Saw L"
				Note Time="48" Value="A3" Duration="6" Instrument="Saw L"
				Note Time="60" Value="A#3" Duration="6" Instrument="Saw L"
				Note Time="72" Value="F#3" Duration="6" Instrument="Saw L"
			Pattern Name="How2Bboss's Pattern03"
				Note Time="1" Value="G3" Duration="23" Instrument="Evil 2"
				Note Time="24" Value="D#3" Duration="24" Instrument="Evil 2" Attack="False"
				Note Time="48" Value="D3" Duration="24" Instrument="Evil 2" Attack="False"
				Note Time="72" Value="D#3" Duration="24" Instrument="Evil 2" Attack="False"
				Note Time="96" Value="G3" Duration="24" Instrument="Evil 2" Attack="False"
				Note Time="120" Value="F#3" Duration="24" Instrument="Evil 2" Attack="False"
			Pattern Name="How2Bboss's Pattern07"
				Note Time="0" Value="A#4" Duration="3" Instrument="Saw L"
				Note Time="6" Value="A#4" Duration="3" Instrument="Saw L"
				Note Time="18" Value="A#4" Duration="3" Instrument="Saw L"
				Note Time="24" Value="A#4" Duration="3" Instrument="Saw L"
				Note Time="36" Value="A#4" Duration="3" Instrument="Saw L"
				Note Time="42" Value="A#4" Duration="3" Instrument="Saw L"
				Note Time="54" Value="A#4" Duration="3" Instrument="Saw L"
				Note Time="60" Value="A#4" Duration="3" Instrument="Saw L"
				Note Time="72" Value="A#4" Duration="3" Instrument="Saw L"
				Note Time="78" Value="A#4" Duration="3" Instrument="Saw L"
			Pattern Name="How2Bboss's Pattern06"
				Note Time="0" Value="G4" Duration="3" Instrument="Saw L"
				Note Time="6" Value="G4" Duration="3" Instrument="Saw L"
				Note Time="18" Value="G4" Duration="3" Instrument="Saw L"
				Note Time="24" Value="G4" Duration="3" Instrument="Saw L"
				Note Time="36" Value="G4" Duration="3" Instrument="Saw L"
				Note Time="42" Value="G4" Duration="3" Instrument="Saw L"
				Note Time="54" Value="G4" Duration="3" Instrument="Saw L"
				Note Time="60" Value="G4" Duration="3" Instrument="Saw L"
				Note Time="72" Value="F#4" Duration="3" Instrument="Saw L"
				Note Time="78" Value="F#4" Duration="3" Instrument="Saw L"
			Pattern Name="How2Bboss's Pattern05"
				Note Time="0" Value="G4" Duration="24" Instrument="Saw L"
				Note Time="24" Value="F#4" Duration="24" Instrument="Saw L"
				Note Time="48" Value="F4" Duration="24" Instrument="Saw L"
				Note Time="72" Value="B4" Duration="24" Instrument="Saw L"
				Note Time="96" Value="A#4" Duration="24" Instrument="Saw L"
				Note Time="120" Value="C#5" Duration="24" Instrument="Saw L"
			Pattern Name="How2Bboss's Pattern13"
				Note Time="1" Value="G2" Duration="47" Instrument="Saw L"
				Note Time="48" Value="A2" Duration="48" Instrument="Saw L"
			Pattern Name="How2Bboss's Pattern10"
				Note Time="0" Value="A#2" Duration="48" Instrument="Saw L"
				Note Time="48" Value="B2" Duration="48" Instrument="Saw L"
			Pattern Name="How2Bboss's Pattern11"
				Note Time="0" Value="C3" Duration="48" Instrument="Saw L"
				Note Time="48" Value="A#2" Duration="48" Instrument="Saw L"
			Pattern Name="How2Bboss's Pattern12"
				Note Time="0" Value="A#2" Duration="48" Instrument="Saw L"
				Note Time="48" Value="A2" Duration="48" Instrument="Saw L"
			Pattern Name="How2Bboss's Pattern09"
				Note Time="0" Value="G2" Duration="48" Instrument="Saw L"
				Note Time="48" Value="A2" Duration="48" Instrument="Saw L"
			PatternInstance Time="0" Pattern="How2Bboss's Pattern02"
			PatternInstance Time="4" Pattern="How2Bboss's Pattern04"
			PatternInstance Time="5" Pattern="How2Bboss's Pattern01"
			PatternInstance Time="6" Pattern="How2Bboss's Pattern01"
			PatternInstance Time="7" Pattern="How2Bboss's Pattern01"
			PatternInstance Time="8" Pattern="How2Bboss's Pattern01"
			PatternInstance Time="9" Pattern="How2Bboss's Pattern03"
			PatternInstance Time="10" Pattern="How2Bboss's Pattern07"
			PatternInstance Time="11" Pattern="How2Bboss's Pattern07"
			PatternInstance Time="12" Pattern="How2Bboss's Pattern07"
			PatternInstance Time="13" Pattern="How2Bboss's Pattern07"
			PatternInstance Time="14" Pattern="How2Bboss's Pattern06"
			PatternInstance Time="15" Pattern="How2Bboss's Pattern06"
			PatternInstance Time="16" Pattern="How2Bboss's Pattern06"
			PatternInstance Time="17" Pattern="How2Bboss's Pattern06"
			PatternInstance Time="18" Pattern="How2Bboss's Pattern05"
			PatternInstance Time="19" Pattern="How2Bboss's Pattern01"
			PatternInstance Time="20" Pattern="How2Bboss's Pattern01"
			PatternInstance Time="21" Pattern="How2Bboss's Pattern01"
			PatternInstance Time="22" Pattern="How2Bboss's Pattern01"
			PatternInstance Time="23" Pattern="How2Bboss's Pattern03"
			PatternInstance Time="24" Pattern="How2Bboss's Pattern13"
			PatternInstance Time="25" Pattern="How2Bboss's Pattern10"
			PatternInstance Time="26" Pattern="How2Bboss's Pattern11"
			PatternInstance Time="27" Pattern="How2Bboss's Pattern12"
			PatternInstance Time="28" Pattern="How2Bboss's Pattern09"
			PatternInstance Time="29" Pattern="How2Bboss's Pattern10"
			PatternInstance Time="30" Pattern="How2Bboss's Pattern11"
			PatternInstance Time="31" Pattern="How2Bboss's Pattern12"
		Channel Type="EPSMFM2"
			Pattern Name="How2Bboss's Pattern03"
				Note Time="0" Value="G2" Duration="336" Instrument="Saw R"
			Pattern Name="How2Bboss's Pattern04"
				Note Time="0" Value="G3" Duration="6" Instrument="Saw R"
				Note Time="6" Value="D4" Duration="6" Instrument="Saw R"
				Note Time="12" Value="G4" Duration="6" Instrument="Saw R"
				Note Time="18" Value="A#4" Duration="6" Instrument="Saw R"
				Note Time="24" Value="G4" Duration="6" Instrument="Saw R"
				Note Time="30" Value="D5" Duration="6" Instrument="Saw R"
				Note Time="36" Value="G5" Duration="6" Instrument="Saw R"
				Note Time="42" Value="A#5" Duration="6" Instrument="Saw R"
				Note Time="48" Value="F#4" Duration="6" Instrument="Saw R"
				Note Time="54" Value="C#5" Duration="6" Instrument="Saw R"
				Note Time="60" Value="F#5" Duration="6" Instrument="Saw R"
				Note Time="66" Value="A5" Duration="6" Instrument="Saw R"
				Note Time="72" Value="C4" Duration="6" Instrument="Saw R"
				Note Time="78" Value="G4" Duration="6" Instrument="Saw R"
				Note Time="84" Value="C5" Duration="6" Instrument="Saw R"
				Note Time="90" Value="D#5" Duration="6" Instrument="Saw R"
				Note Time="96" Value="D#4" Duration="6" Instrument="Saw R"
				Note Time="102" Value="A#4" Duration="6" Instrument="Saw R"
				Note Time="108" Value="D#5" Duration="6" Instrument="Saw R"
				Note Time="114" Value="F#5" Duration="6" Instrument="Saw R"
				Note Time="120" Value="A#4" Duration="6" Instrument="Saw R"
				Note Time="126" Value="F5" Duration="6" Instrument="Saw R"
				Note Time="132" Value="C#6" Duration="6" Instrument="Saw R"
				Note Time="138" Value="A#5" Duration="6" Instrument="Saw R"
			Pattern Name="How2Bboss's Pattern01"
				Note Time="0" Value="G3" Duration="6" Instrument="Saw R"
				Note Time="12" Value="D4" Duration="6" Instrument="Saw R"
				Note Time="24" Value="A#3" Duration="6" Instrument="Saw R"
				Note Time="36" Value="G3" Duration="6" Instrument="Saw R"
				Note Time="48" Value="A3" Duration="6" Instrument="Saw R"
				Note Time="60" Value="A#3" Duration="6" Instrument="Saw R"
				Note Time="72" Value="F#3" Duration="6" Instrument="Saw R"
			Pattern Name="How2Bboss's Pattern02"
				Note Time="0" Value="D3" Duration="6" Instrument="Saw R"
				Note Time="12" Value="A#3" Duration="6" Instrument="Saw R"
				Note Time="24" Value="G3" Duration="6" Instrument="Saw R"
				Note Time="36" Value="D3" Duration="6" Instrument="Saw R"
				Note Time="48" Value="F#3" Duration="6" Instrument="Saw R"
				Note Time="60" Value="G3" Duration="6" Instrument="Saw R"
				Note Time="72" Value="D3" Duration="6" Instrument="Saw R"
			Pattern Name="How2Bboss's Pattern05"
				Note Time="0" Value="D3" Duration="24" Instrument="Evil 1"
				Note Time="24" Value="C3" Duration="24" Instrument="Evil 1" Attack="False"
				Note Time="48" Value="B2" Duration="24" Instrument="Evil 1" Attack="False"
				Note Time="72" Value="A#2" Duration="24" Instrument="Evil 1" Attack="False"
				Note Time="96" Value="D3" Duration="24" Instrument="Evil 1" Attack="False"
				Note Time="120" Value="D3" Duration="23" Instrument="Evil 1" Attack="False"
				Note Time="143" Value="A#4" Duration="4" Instrument="Saw R"
			Pattern Name="How2Bboss's Pattern09"
				Note Time="6" Value="A#4" Duration="3" Instrument="Saw R"
				Note Time="18" Value="A#4" Duration="3" Instrument="Saw R"
				Note Time="24" Value="A#4" Duration="3" Instrument="Saw R"
				Note Time="36" Value="A#4" Duration="3" Instrument="Saw R"
				Note Time="42" Value="A#4" Duration="3" Instrument="Saw R"
				Note Time="54" Value="A#4" Duration="3" Instrument="Saw R"
				Note Time="60" Value="A#4" Duration="3" Instrument="Saw R"
				Note Time="72" Value="A#4" Duration="3" Instrument="Saw R"
				Note Time="78" Value="A#4" Duration="3" Instrument="Saw R"
			Pattern Name="How2Bboss's Pattern06"
				Note Time="0" Value="A#4" Duration="3" Instrument="Saw R"
				Note Time="6" Value="A#4" Duration="3" Instrument="Saw R"
				Note Time="18" Value="A#4" Duration="3" Instrument="Saw R"
				Note Time="24" Value="A#4" Duration="3" Instrument="Saw R"
				Note Time="36" Value="A#4" Duration="3" Instrument="Saw R"
				Note Time="42" Value="A#4" Duration="3" Instrument="Saw R"
				Note Time="54" Value="A#4" Duration="3" Instrument="Saw R"
				Note Time="60" Value="A#4" Duration="3" Instrument="Saw R"
				Note Time="72" Value="A#4" Duration="3" Instrument="Saw R"
				Note Time="78" Value="A#4" Duration="3" Instrument="Saw R"
			Pattern Name="How2Bboss's Pattern07"
				Note Time="0" Value="D5" Duration="3" Instrument="Saw R"
				Note Time="6" Value="D5" Duration="3" Instrument="Saw R"
				Note Time="18" Value="D5" Duration="3" Instrument="Saw R"
				Note Time="24" Value="D5" Duration="3" Instrument="Saw R"
				Note Time="36" Value="D5" Duration="3" Instrument="Saw R"
				Note Time="42" Value="D5" Duration="3" Instrument="Saw R"
				Note Time="54" Value="D5" Duration="3" Instrument="Saw R"
				Note Time="60" Value="D5" Duration="3" Instrument="Saw R"
				Note Time="72" Value="D5" Duration="3" Instrument="Saw R"
				Note Time="78" Value="D5" Duration="3" Instrument="Saw R"
			Pattern Name="How2Bboss's Pattern08"
				Note Time="0" Value="D5" Duration="8" Instrument="Saw R"
				Note Time="8" Value="A#4" Duration="8" Instrument="Saw R"
				Note Time="16" Value="D5" Duration="8" Instrument="Saw R"
				Note Time="24" Value="C#5" Duration="8" Instrument="Saw R"
				Note Time="32" Value="C5" Duration="8" Instrument="Saw R"
				Note Time="40" Value="A4" Duration="8" Instrument="Saw R"
				Note Time="48" Value="G#4" Duration="8" Instrument="Saw R"
				Note Time="56" Value="B4" Duration="8" Instrument="Saw R"
				Note Time="64" Value="C5" Duration="8" Instrument="Saw R"
				Note Time="72" Value="B4" Duration="8" Instrument="Saw R"
				Note Time="80" Value="G#4" Duration="8" Instrument="Saw R"
				Note Time="88" Value="F4" Duration="8" Instrument="Saw R"
				Note Time="96" Value="D#4" Duration="8" Instrument="Saw R"
				Note Time="104" Value="F#4" Duration="8" Instrument="Saw R"
				Note Time="112" Value="A#4" Duration="8" Instrument="Saw R"
				Note Time="120" Value="F#5" Duration="8" Instrument="Saw R"
				Note Time="128" Value="F5" Duration="8" Instrument="Saw R"
				Note Time="136" Value="F#5" Duration="8" Instrument="Saw R"
			Pattern Name="How2Bboss's Pattern10"
				Note Time="0" Value="D3" Duration="24" Instrument="Evil 1"
				Note Time="24" Value="C3" Duration="24" Instrument="Evil 1" Attack="False"
				Note Time="48" Value="B2" Duration="24" Instrument="Evil 1" Attack="False"
				Note Time="72" Value="A#2" Duration="24" Instrument="Evil 1" Attack="False"
				Note Time="96" Value="D3" Duration="24" Instrument="Evil 1" Attack="False"
				Note Time="120" Value="D3" Duration="23" Instrument="Evil 1" Attack="False"
				Note Time="143" Value="G2" Duration="49" Instrument="Saw R"
			Pattern Name="How2Bboss's Pattern13"
				Note Time="48" Value="A2" Duration="48" Instrument="Saw R"
			Pattern Name="How2Bboss's Pattern14"
				Note Time="0" Value="A#2" Duration="48" Instrument="Saw R"
				Note Time="48" Value="B2" Duration="48" Instrument="Saw R"
			Pattern Name="How2Bboss's Pattern17"
				Note Time="0" Value="C3" Duration="48" Instrument="Saw R"
				Note Time="48" Value="A#2" Duration="48" Instrument="Saw R"
			Pattern Name="How2Bboss's Pattern18"
				Note Time="0" Value="A#2" Duration="48" Instrument="Saw R"
				Note Time="48" Value="A2" Duration="48" Instrument="Saw R"
			Pattern Name="How2Bboss's Pattern15"
				Note Time="0" Value="G2" Duration="48" Instrument="Saw R"
				Note Time="48" Value="A2" Duration="48" Instrument="Saw R"
			PatternInstance Time="0" Pattern="How2Bboss's Pattern03"
			PatternInstance Time="4" Pattern="How2Bboss's Pattern04"
			PatternInstance Time="5" Pattern="How2Bboss's Pattern01"
			PatternInstance Time="6" Pattern="How2Bboss's Pattern01"
			PatternInstance Time="7" Pattern="How2Bboss's Pattern02"
			PatternInstance Time="8" Pattern="How2Bboss's Pattern02"
			PatternInstance Time="9" Pattern="How2Bboss's Pattern05"
			PatternInstance Time="10" Pattern="How2Bboss's Pattern09"
			PatternInstance Time="11" Pattern="How2Bboss's Pattern06"
			PatternInstance Time="12" Pattern="How2Bboss's Pattern06"
			PatternInstance Time="13" Pattern="How2Bboss's Pattern06"
			PatternInstance Time="14" Pattern="How2Bboss's Pattern07"
			PatternInstance Time="15" Pattern="How2Bboss's Pattern07"
			PatternInstance Time="16" Pattern="How2Bboss's Pattern07"
			PatternInstance Time="17" Pattern="How2Bboss's Pattern07"
			PatternInstance Time="18" Pattern="How2Bboss's Pattern08"
			PatternInstance Time="19" Pattern="How2Bboss's Pattern01"
			PatternInstance Time="20" Pattern="How2Bboss's Pattern01"
			PatternInstance Time="21" Pattern="How2Bboss's Pattern02"
			PatternInstance Time="22" Pattern="How2Bboss's Pattern02"
			PatternInstance Time="23" Pattern="How2Bboss's Pattern10"
			PatternInstance Time="24" Pattern="How2Bboss's Pattern13"
			PatternInstance Time="25" Pattern="How2Bboss's Pattern14"
			PatternInstance Time="26" Pattern="How2Bboss's Pattern17"
			PatternInstance Time="27" Pattern="How2Bboss's Pattern18"
			PatternInstance Time="28" Pattern="How2Bboss's Pattern15"
			PatternInstance Time="29" Pattern="How2Bboss's Pattern14"
			PatternInstance Time="30" Pattern="How2Bboss's Pattern17"
			PatternInstance Time="31" Pattern="How2Bboss's Pattern18"
		Channel Type="EPSMFM3"
			Pattern Name="How2Bboss's Pattern01"
				Note Time="0" Value="G1" Duration="72" Instrument="Evil LR" Attack="False"
				Note Time="72" Value="F#1" Duration="12" Instrument="Evil LR" Attack="False"
			Pattern Name="How2Bboss's Pattern02"
				Note Time="0" Value="G2" Duration="12" Instrument="Soft Saw Bass"
				Note Time="12" Value="G3" Duration="6" Instrument="Soft Saw Bass"
				Note Time="18" Value="G3" Duration="6" Instrument="Soft Saw Bass"
				Note Time="24" Value="A#1" Duration="12" Instrument="Soft Saw Bass"
				Note Time="36" Value="A#2" Duration="6" Instrument="Soft Saw Bass"
				Note Time="42" Value="A#2" Duration="6" Instrument="Soft Saw Bass"
				Note Time="48" Value="A1" Duration="12" Instrument="Soft Saw Bass"
				Note Time="60" Value="A2" Duration="6" Instrument="Soft Saw Bass"
				Note Time="66" Value="A2" Duration="6" Instrument="Soft Saw Bass"
				Note Time="72" Value="C2" Duration="12" Instrument="Soft Saw Bass"
				Note Time="84" Value="C3" Duration="6" Instrument="Soft Saw Bass"
				Note Time="90" Value="C3" Duration="6" Instrument="Soft Saw Bass"
				Note Time="96" Value="D#2" Duration="12" Instrument="Soft Saw Bass"
				Note Time="108" Value="D#3" Duration="6" Instrument="Soft Saw Bass"
				Note Time="114" Value="D#3" Duration="6" Instrument="Soft Saw Bass"
				Note Time="120" Value="A#1" Duration="12" Instrument="Soft Saw Bass"
				Note Time="132" Value="A#2" Duration="6" Instrument="Soft Saw Bass"
				Note Time="138" Value="A#2" Duration="6" Instrument="Soft Saw Bass"
			Pattern Name="How2Bboss's Pattern03"
				Note Time="0" Value="G2" Duration="12" Instrument="Soft Saw Bass"
				Note Time="18" Value="G2" Duration="12" Instrument="Soft Saw Bass"
				Note Time="36" Value="G2" Duration="12" Instrument="Soft Saw Bass"
				Note Time="54" Value="G2" Duration="12" Instrument="Soft Saw Bass"
				Note Time="72" Value="F#2" Duration="6" Instrument="Soft Saw Bass"
				Note Time="78" Value="F#2" Duration="6" Instrument="Soft Saw Bass"
			Pattern Name="How2Bboss's Pattern06"
				Note Time="0" Value="G2" Duration="12" Instrument="Soft Saw Bass"
				Note Time="18" Value="G2" Duration="12" Instrument="Soft Saw Bass"
				Note Time="36" Value="G2" Duration="12" Instrument="Soft Saw Bass"
				Note Time="54" Value="G2" Duration="12" Instrument="Soft Saw Bass"
				Note Time="72" Value="F#2" Duration="6" Instrument="Soft Saw Bass"
				Note Time="78" Value="F#2" Duration="5" Instrument="Soft Saw Bass"
				Note Time="83" Value="A#2" Duration="25" Instrument="Evil 3"
			Pattern Name="How2Bboss's Pattern04"
				Note Time="24" Value="A2" Duration="24" Instrument="Evil 3" Attack="False"
				Note Time="48" Value="G#2" Duration="24" Instrument="Evil 3" Attack="False"
				Note Time="72" Value="F2" Duration="24" Instrument="Evil 3" Attack="False"
				Note Time="96" Value="A#2" Duration="24" Instrument="Evil 3" Attack="False"
				Note Time="120" Value="A2" Duration="24" Instrument="Evil 3" Attack="False"
			Pattern Name="How2Bboss's Pattern07"
				Note Time="1" Value="G2" Duration="11" Instrument="Soft Saw Bass"
				Note Time="18" Value="G2" Duration="12" Instrument="Soft Saw Bass"
				Note Time="36" Value="G2" Duration="12" Instrument="Soft Saw Bass"
				Note Time="54" Value="G2" Duration="12" Instrument="Soft Saw Bass"
				Note Time="72" Value="F#2" Duration="6" Instrument="Soft Saw Bass"
				Note Time="78" Value="F#2" Duration="6" Instrument="Soft Saw Bass"
			Pattern Name="How2Bboss's Pattern05"
				Note Time="0" Value="G2" Duration="12" Instrument="Soft Saw Bass"
				Note Time="12" Value="G3" Duration="12" Instrument="Soft Saw Bass"
				Note Time="24" Value="F#2" Duration="12" Instrument="Soft Saw Bass"
				Note Time="36" Value="F#3" Duration="12" Instrument="Soft Saw Bass"
				Note Time="48" Value="F2" Duration="12" Instrument="Soft Saw Bass"
				Note Time="60" Value="F3" Duration="12" Instrument="Soft Saw Bass"
				Note Time="72" Value="E2" Duration="12" Instrument="Soft Saw Bass"
				Note Time="84" Value="E3" Duration="12" Instrument="Soft Saw Bass"
				Note Time="96" Value="D#2" Duration="12" Instrument="Soft Saw Bass"
				Note Time="108" Value="D#3" Duration="12" Instrument="Soft Saw Bass"
				Note Time="120" Value="F#2" Duration="12" Instrument="Soft Saw Bass"
				Note Time="132" Value="F#3" Duration="12" Instrument="Soft Saw Bass"
			Pattern Name="How2Bboss's Pattern12"
				Note Time="0" Value="G5" Duration="6" Instrument="Saw R 1"
				Note Time="6" Value="A#4" Duration="6" Instrument="Saw R 1"
				Note Time="12" Value="G4" Duration="6" Instrument="Saw R 1"
				Note Time="18" Value="A#4" Duration="6" Instrument="Saw R 1"
				Note Time="24" Value="G5" Duration="6" Instrument="Saw R 1"
				Note Time="30" Value="A#4" Duration="6" Instrument="Saw R 1"
				Note Time="36" Value="G4" Duration="6" Instrument="Saw R 1"
				Note Time="42" Value="A#4" Duration="6" Instrument="Saw R 1"
				Note Time="48" Value="F#5" Duration="6" Instrument="Saw R 1"
				Note Time="54" Value="A4" Duration="6" Instrument="Saw R 1"
				Note Time="60" Value="F#4" Duration="6" Instrument="Saw R 1"
				Note Time="66" Value="A4" Duration="6" Instrument="Saw R 1"
				Note Time="72" Value="F#5" Duration="6" Instrument="Saw R 1"
				Note Time="78" Value="A4" Duration="6" Instrument="Saw R 1"
				Note Time="84" Value="F#4" Duration="6" Instrument="Saw R 1"
				Note Time="90" Value="A4" Duration="6" Instrument="Saw R 1"
			Pattern Name="How2Bboss's Pattern09"
				Note Time="0" Value="D#5" Duration="6" Instrument="Saw R 1"
				Note Time="6" Value="A#4" Duration="6" Instrument="Saw R 1"
				Note Time="12" Value="F4" Duration="6" Instrument="Saw R 1"
				Note Time="18" Value="A#4" Duration="6" Instrument="Saw R 1"
				Note Time="24" Value="D#5" Duration="6" Instrument="Saw R 1"
				Note Time="30" Value="A#4" Duration="6" Instrument="Saw R 1"
				Note Time="36" Value="F4" Duration="6" Instrument="Saw R 1"
				Note Time="42" Value="A#4" Duration="6" Instrument="Saw R 1"
				Note Time="48" Value="D#5" Duration="6" Instrument="Saw R 1"
				Note Time="54" Value="B4" Duration="6" Instrument="Saw R 1"
				Note Time="60" Value="F4" Duration="6" Instrument="Saw R 1"
				Note Time="66" Value="B4" Duration="6" Instrument="Saw R 1"
				Note Time="72" Value="D#5" Duration="6" Instrument="Saw R 1"
				Note Time="78" Value="B4" Duration="6" Instrument="Saw R 1"
				Note Time="84" Value="F4" Duration="6" Instrument="Saw R 1"
				Note Time="90" Value="B4" Duration="6" Instrument="Saw R 1"
			Pattern Name="How2Bboss's Pattern10"
				Note Time="0" Value="D#5" Duration="6" Instrument="Saw R 1"
				Note Time="6" Value="C5" Duration="6" Instrument="Saw R 1"
				Note Time="12" Value="A4" Duration="6" Instrument="Saw R 1"
				Note Time="18" Value="C5" Duration="6" Instrument="Saw R 1"
				Note Time="24" Value="D#5" Duration="6" Instrument="Saw R 1"
				Note Time="30" Value="C5" Duration="6" Instrument="Saw R 1"
				Note Time="36" Value="A4" Duration="6" Instrument="Saw R 1"
				Note Time="42" Value="C5" Duration="6" Instrument="Saw R 1"
				Note Time="48" Value="F5" Duration="6" Instrument="Saw R 1"
				Note Time="54" Value="A#4" Duration="6" Instrument="Saw R 1"
				Note Time="60" Value="F4" Duration="6" Instrument="Saw R 1"
				Note Time="66" Value="A#4" Duration="6" Instrument="Saw R 1"
				Note Time="72" Value="F5" Duration="6" Instrument="Saw R 1"
				Note Time="78" Value="A#4" Duration="6" Instrument="Saw R 1"
				Note Time="84" Value="F4" Duration="6" Instrument="Saw R 1"
				Note Time="90" Value="A#4" Duration="6" Instrument="Saw R 1"
			Pattern Name="How2Bboss's Pattern11"
				Note Time="0" Value="G5" Duration="6" Instrument="Saw R 1"
				Note Time="6" Value="D5" Duration="6" Instrument="Saw R 1"
				Note Time="12" Value="A#4" Duration="6" Instrument="Saw R 1"
				Note Time="18" Value="D5" Duration="6" Instrument="Saw R 1"
				Note Time="24" Value="G5" Duration="6" Instrument="Saw R 1"
				Note Time="30" Value="D5" Duration="6" Instrument="Saw R 1"
				Note Time="36" Value="A#4" Duration="6" Instrument="Saw R 1"
				Note Time="42" Value="D5" Duration="6" Instrument="Saw R 1"
				Note Time="48" Value="F#5" Duration="6" Instrument="Saw R 1"
				Note Time="54" Value="D5" Duration="6" Instrument="Saw R 1"
				Note Time="60" Value="A4" Duration="6" Instrument="Saw R 1"
				Note Time="66" Value="D5" Duration="6" Instrument="Saw R 1"
				Note Time="72" Value="F#5" Duration="6" Instrument="Saw R 1"
				Note Time="78" Value="D5" Duration="6" Instrument="Saw R 1"
				Note Time="84" Value="A4" Duration="6" Instrument="Saw R 1"
				Note Time="90" Value="D5" Duration="6" Instrument="Saw R 1"
			Pattern Name="How2Bboss's Pattern16"
				Note Time="0" Value="G5" Duration="6" Instrument="Saw R 1"
				Note Time="6" Value="D5" Duration="6" Instrument="Saw R 1"
				Note Time="12" Value="A#4" Duration="6" Instrument="Saw R 1"
				Note Time="18" Value="D5" Duration="6" Instrument="Saw R 1"
				Note Time="24" Value="D6" Duration="6" Instrument="Saw R 1"
				Note Time="30" Value="D5" Duration="6" Instrument="Saw R 1"
				Note Time="36" Value="A#4" Duration="6" Instrument="Saw R 1"
				Note Time="42" Value="D5" Duration="6" Instrument="Saw R 1"
				Note Time="48" Value="A5" Duration="6" Instrument="Saw R 1"
				Note Time="54" Value="D5" Duration="6" Instrument="Saw R 1"
				Note Time="60" Value="A4" Duration="6" Instrument="Saw R 1"
				Note Time="66" Value="D5" Duration="6" Instrument="Saw R 1"
				Note Time="72" Value="D6" Duration="6" Instrument="Saw R 1"
				Note Time="78" Value="D5" Duration="6" Instrument="Saw R 1"
				Note Time="84" Value="A4" Duration="6" Instrument="Saw R 1"
				Note Time="90" Value="D5" Duration="6" Instrument="Saw R 1"
			PatternInstance Time="0" Pattern="How2Bboss's Pattern01"
			PatternInstance Time="1" Pattern="How2Bboss's Pattern01"
			PatternInstance Time="2" Pattern="How2Bboss's Pattern01"
			PatternInstance Time="3" Pattern="How2Bboss's Pattern01"
			PatternInstance Time="4" Pattern="How2Bboss's Pattern02"
			PatternInstance Time="5" Pattern="How2Bboss's Pattern03"
			PatternInstance Time="6" Pattern="How2Bboss's Pattern03"
			PatternInstance Time="7" Pattern="How2Bboss's Pattern03"
			PatternInstance Time="8" Pattern="How2Bboss's Pattern06"
			PatternInstance Time="9" Pattern="How2Bboss's Pattern04"
			PatternInstance Time="10" Pattern="How2Bboss's Pattern07"
			PatternInstance Time="11" Pattern="How2Bboss's Pattern03"
			PatternInstance Time="12" Pattern="How2Bboss's Pattern03"
			PatternInstance Time="13" Pattern="How2Bboss's Pattern03"
			PatternInstance Time="14" Pattern="How2Bboss's Pattern03"
			PatternInstance Time="15" Pattern="How2Bboss's Pattern03"
			PatternInstance Time="16" Pattern="How2Bboss's Pattern03"
			PatternInstance Time="17" Pattern="How2Bboss's Pattern03"
			PatternInstance Time="18" Pattern="How2Bboss's Pattern05"
			PatternInstance Time="19" Pattern="How2Bboss's Pattern03"
			PatternInstance Time="20" Pattern="How2Bboss's Pattern03"
			PatternInstance Time="21" Pattern="How2Bboss's Pattern03"
			PatternInstance Time="22" Pattern="How2Bboss's Pattern06"
			PatternInstance Time="23" Pattern="How2Bboss's Pattern04"
			PatternInstance Time="24" Pattern="How2Bboss's Pattern12"
			PatternInstance Time="25" Pattern="How2Bboss's Pattern09"
			PatternInstance Time="26" Pattern="How2Bboss's Pattern10"
			PatternInstance Time="27" Pattern="How2Bboss's Pattern11"
			PatternInstance Time="28" Pattern="How2Bboss's Pattern12"
			PatternInstance Time="29" Pattern="How2Bboss's Pattern09"
			PatternInstance Time="30" Pattern="How2Bboss's Pattern10"
			PatternInstance Time="31" Pattern="How2Bboss's Pattern16"
